Karmilla-Bold.sfdir
StartChar: exclam
Encoding: 33 33 11
Width: 293
Flags: W
LayerCount: 2
Fore
SplineSet
91 13 m 128,-1,1
 68 35 68 35 68 69 c 128,-1,2
 68 103 68 103 91 126 c 128,-1,3
 114 149 114 149 150 149 c 128,-1,4
 186 149 186 149 210 126 c 128,-1,5
 234 103 234 103 234 69 c 128,-1,6
 234 35 234 35 210 13 c 128,-1,7
 186 -9 186 -9 150 -9 c 128,-1,0
 114 -9 114 -9 91 13 c 128,-1,1
86 664 m 1,8,-1
 214 664 l 1,9,-1
 200 219 l 1,10,-1
 99 219 l 1,11,-1
 86 664 l 1,8,-1
EndSplineSet
EndChar
StartChar: quotedbl
Encoding: 34 34 146
Width: 383
Flags: W
LayerCount: 2
Fore
SplineSet
351 686 m 1,0,-1
 335 448 l 1,1,-1
 248 448 l 1,2,-1
 233 686 l 1,3,-1
 351 686 l 1,0,-1
150 686 m 1,4,-1
 134 448 l 1,5,-1
 47 448 l 1,6,-1
 32 686 l 1,7,-1
 150 686 l 1,4,-1
EndSplineSet
EndChar
StartChar: numbersign
Encoding: 35 35 147
Width: 678
Flags: W
LayerCount: 2
Fore
SplineSet
268 241 m 1,0,-1
 404 241 l 1,1,-1
 421 399 l 1,2,-1
 285 399 l 1,3,-1
 268 241 l 1,0,-1
396 164 m 1,4,-1
 260 164 l 1,5,-1
 246 33 l 1,6,-1
 135 33 l 1,7,-1
 149 164 l 1,8,-1
 57 164 l 1,9,-1
 64 241 l 1,10,-1
 157 241 l 1,11,-1
 174 399 l 1,12,-1
 81 399 l 1,13,-1
 89 477 l 1,14,-1
 182 477 l 1,15,-1
 196 606 l 1,16,-1
 307 606 l 1,17,-1
 293 477 l 1,18,-1
 429 477 l 1,19,-1
 443 606 l 1,20,-1
 554 606 l 1,21,-1
 540 477 l 1,22,-1
 634 477 l 1,23,-1
 625 399 l 1,24,-1
 532 399 l 1,25,-1
 515 241 l 1,26,-1
 609 241 l 1,27,-1
 601 164 l 1,28,-1
 507 164 l 1,29,-1
 493 33 l 1,30,-1
 382 33 l 1,31,-1
 396 164 l 1,4,-1
EndSplineSet
EndChar
StartChar: dollar
Encoding: 36 36 93
Width: 689
Flags: W
LayerCount: 2
Back
Fore
SplineSet
230.5 532 m 128,-1,1
 206 511 206 511 206 483 c 128,-1,2
 206 455 206 455 222 438.5 c 128,-1,3
 238 422 238 422 273 410 c 1,4,-1
 303 398 l 1,5,-1
 303 559 l 1,6,0
 255 553 255 553 230.5 532 c 128,-1,1
466 123 m 128,-1,8
 491 145 491 145 491 175 c 0,9,10
 491 232.257 491 232.257 419 259 c 2,11,-1
 387 271 l 1,12,-1
 387 96 l 1,13,7
 441 101 441 101 466 123 c 128,-1,8
475 343 m 2,14,15
 550 317 550 317 587 277.5 c 128,-1,16
 624 238 624 238 624 173 c 0,17,18
 624 101.5 624 101.5 566 50.5 c 0,19,20
 502.389 -5.43348 502.389 -5.43348 387 -13 c 1,21,-1
 387 -101 l 1,22,-1
 303 -101 l 1,23,-1
 303 -11 l 1,24,25
 199 -0.6 199 -0.6 134.5 51 c 0,26,27
 65 106.6 65 106.6 65 203 c 1,28,-1
 182 203 l 1,29,30
 182 155 182 155 213 130 c 128,-1,31
 244 105 244 105 303 98 c 1,32,-1
 303 292 l 1,33,-1
 253 309 l 2,34,35
 169 337 169 337 123 376.5 c 128,-1,36
 77 416 77 416 77 487 c 128,-1,37
 77 558 77 558 134.5 605.5 c 128,-1,38
 192 653 192 653 303 661 c 1,39,-1
 303 737 l 1,40,-1
 387 737 l 1,41,-1
 387 660 l 1,42,43
 484 650 484 650 535 600 c 128,-1,44
 586 550 586 550 600 470 c 1,45,-1
 483 470 l 1,46,47
 478 500 478 500 453.5 523.5 c 128,-1,48
 429 547 429 547 387 556 c 1,49,-1
 387 374 l 1,50,-1
 475 343 l 2,14,15
EndSplineSet
EndChar
StartChar: percent
Encoding: 37 37 150
Width: 765
Flags: W
LayerCount: 2
Back
Fore
SplineSet
573 215 m 0,0,1
 525 215 525 215 525 138.5 c 128,-1,2
 525 62 525 62 573 62 c 0,3,4
 594 62 594 62 608 79.5 c 128,-1,5
 622 97 622 97 622 138.5 c 128,-1,6
 622 180 622 180 608 197.5 c 128,-1,7
 594 215 594 215 573 215 c 0,0,1
573 290 m 128,-1,9
 630.487 290 630.487 290 669 252.5 c 0,10,11
 710 212.579 710 212.579 710 139 c 0,12,13
 710 65 710 65 669 24 c 0,14,15
 631 -14 631 -14 573 -14 c 128,-1,16
 515 -14 515 -14 477 24 c 0,17,18
 436 65 436 65 436 139 c 0,19,20
 436 212.579 436 212.579 477 252.5 c 0,21,8
 515.513 290 515.513 290 573 290 c 128,-1,9
546 649 m 1,22,-1
 665 649 l 1,23,-1
 226 0 l 1,24,-1
 106 0 l 1,25,-1
 546 649 l 1,22,-1
246 511 m 0,26,27
 246 587 246 587 197 587 c 0,28,29
 149 587 149 587 149 511 c 0,30,31
 149 434 149 434 197 434 c 0,32,33
 246 434 246 434 246 511 c 0,26,27
197.5 662 m 0,34,35
 225 662 225 662 250 652.5 c 128,-1,36
 275 643 275 643 294 624.5 c 0,37,38
 335 584.579 335 584.579 335 511 c 0,39,40
 335 438 335 438 294 397 c 0,41,42
 256 359 256 359 197 359 c 0,43,44
 140 359 140 359 102 397 c 0,45,46
 61 438 61 438 61 511 c 0,47,48
 61 584.579 61 584.579 102 624.5 c 0,49,50
 140.514 662 140.514 662 197.5 662 c 0,34,35
EndSplineSet
EndChar
StartChar: ampersand
Encoding: 38 38 126
Width: 965
Flags: W
LayerCount: 2
Back
Fore
SplineSet
465.5 428 m 128,-1,1
 490 454 490 454 490 486.5 c 128,-1,2
 490 519 490 519 467 538.5 c 128,-1,3
 444 558 444 558 403 558 c 128,-1,4
 362 558 362 558 339.5 536.5 c 128,-1,5
 317 515 317 515 317 485 c 0,6,7
 317 441 317 441 364 400 c 1,8,-1
 387 379 l 1,9,0
 441 402 441 402 465.5 428 c 128,-1,1
342 284 m 1,10,11
 222 266.857 222 266.857 222 192 c 0,12,13
 222 150 222 150 258.5 121.5 c 128,-1,14
 295 93 295 93 361 93 c 0,15,16
 436.952 93 436.952 93 504 137 c 1,17,-1
 342 284 l 1,10,11
764 344 m 1,18,19
 720.15 218.715 720.15 218.715 654 137 c 1,20,-1
 671 122 l 2,21,22
 689 106 689 106 705 98 c 128,-1,23
 721 90 721 90 744.5 90 c 128,-1,24
 768 90 768 90 785 107.5 c 128,-1,25
 802 125 802 125 804 164 c 1,26,-1
 911 164 l 1,27,28
 909 82 909 82 870.5 34 c 128,-1,29
 832 -14 832 -14 756 -14 c 0,30,31
 708 -14 708 -14 667.5 5 c 128,-1,32
 627 24 627 24 582 65 c 1,33,34
 482.211 -14 482.211 -14 360 -14 c 0,35,36
 247.556 -14 247.556 -14 170.5 43 c 0,37,38
 92 101.068 92 101.068 92 185 c 0,39,40
 92 314.886 92 314.886 275 344 c 1,41,-1
 259 359 l 1,42,43
 187 424.25 187 424.25 187 502 c 0,44,45
 187 571.25 187 571.25 244 614 c 0,46,47
 305.333 660 305.333 660 406 660 c 0,48,49
 503.262 660 503.262 660 563.5 614 c 0,50,51
 620 570.855 620 570.855 620 505.927 c 128,-1,52
 620 441 620 441 578.5 396.5 c 128,-1,53
 537 352 537 352 452 320 c 1,54,-1
 579 205 l 1,55,56
 640.363 277.869 640.363 277.869 684 388 c 1,57,-1
 764 344 l 1,18,19
EndSplineSet
EndChar
StartChar: quotesingle
Encoding: 39 39 64
Width: 180
Flags: W
LayerCount: 2
Fore
SplineSet
149 677 m 1,0,-1
 133 439 l 1,1,-1
 46 439 l 1,2,-1
 31 677 l 1,3,-1
 149 677 l 1,0,-1
EndSplineSet
EndChar
StartChar: parenleft
Encoding: 40 40 68
Width: 400
Flags: W
LayerCount: 2
Back
Fore
SplineSet
282 -118 m 1,0,1
 73 67.7778 73 67.7778 73 318 c 0,2,3
 73 570.157 73 570.157 282 754 c 1,4,-1
 367 692 l 1,5,6
 281 602 281 602 238 511.5 c 128,-1,7
 195 421 195 421 195 318 c 128,-1,8
 195 215 195 215 238 125.5 c 128,-1,9
 281 36 281 36 367 -54 c 1,10,-1
 282 -118 l 1,0,1
EndSplineSet
EndChar
StartChar: parenright
Encoding: 41 41 69
Width: 400
Flags: W
LayerCount: 2
Fore
SplineSet
32 -54 m 1,0,1
 119 36 119 36 162 125.5 c 128,-1,2
 205 215 205 215 205 318 c 128,-1,3
 205 421 205 421 161.5 511.5 c 128,-1,4
 118 602 118 602 32 692 c 1,5,-1
 118 754 l 1,6,7
 327 568.439 327 568.439 327 318 c 0,8,9
 327 69.514 327 69.514 118 -118 c 1,10,-1
 32 -54 l 1,0,1
EndSplineSet
EndChar
StartChar: asterisk
Encoding: 42 42 148
Width: 409
Flags: W
LayerCount: 2
Back
Fore
SplineSet
161 528 m 1,0,-1
 50 565 l 1,1,-1
 80 635 l 1,2,-1
 179 585 l 1,3,-1
 167 704 l 1,4,-1
 247 704 l 1,5,-1
 235 585 l 1,6,-1
 334 637 l 1,7,-1
 364 566 l 1,8,-1
 255 529 l 1,9,-1
 341 447 l 1,10,-1
 282 396 l 1,11,-1
 208 497 l 1,12,-1
 132 396 l 1,13,-1
 75 447 l 1,14,-1
 161 528 l 1,0,-1
EndSplineSet
EndChar
StartChar: comma
Encoding: 44 44 4
Width: 253
Flags: W
LayerCount: 2
Fore
SplineSet
24 -92 m 1,0,1
 57 -75 57 -75 82.5 -54 c 128,-1,2
 108 -33 108 -33 116 -5 c 1,3,4
 88 0 88 0 68.5 17.5 c 128,-1,5
 49 35 49 35 49 64.5 c 128,-1,6
 49 94 49 94 72 115 c 128,-1,7
 95 136 95 136 135 136 c 128,-1,8
 175 136 175 136 200 105 c 128,-1,9
 225 74 225 74 225 29 c 0,10,11
 225 -44.2857 225 -44.2857 159 -104 c 0,12,13
 138 -123 138 -123 112 -136 c 1,14,-1
 24 -92 l 1,0,1
EndSplineSet
EndChar
StartChar: hyphen
Encoding: 45 45 8
Width: 373
Flags: W
LayerCount: 2
Fore
SplineSet
46 250 m 1,0,-1
 46 353 l 1,1,-1
 327 353 l 1,2,-1
 327 250 l 1,3,-1
 46 250 l 1,0,-1
EndSplineSet
EndChar
StartChar: period
Encoding: 46 46 5
Width: 215
Flags: W
LayerCount: 2
Fore
SplineSet
47 13 m 128,-1,1
 24 35 24 35 24 69 c 128,-1,2
 24 103 24 103 47 126 c 128,-1,3
 70 149 70 149 106 149 c 128,-1,4
 142 149 142 149 166 126 c 128,-1,5
 190 103 190 103 190 69 c 128,-1,6
 190 35 190 35 166 13 c 128,-1,7
 142 -9 142 -9 106 -9 c 128,-1,0
 70 -9 70 -9 47 13 c 128,-1,1
EndSplineSet
EndChar
StartChar: slash
Encoding: 47 47 149
Width: 472
Flags: W
LayerCount: 2
Back
Fore
SplineSet
310 745 m 1,0,-1
 431 745 l 1,1,-1
 173 -81 l 1,2,-1
 53 -81 l 1,3,-1
 310 745 l 1,0,-1
EndSplineSet
EndChar
StartChar: zero
Encoding: 48 48 73
Width: 633
Flags: W
LayerCount: 2
Fore
SplineSet
425.5 495.5 m 128,-1,1
 387 555 387 555 316.5 555 c 128,-1,2
 246 555 246 555 207.5 495.5 c 128,-1,3
 169 436 169 436 169 324 c 128,-1,4
 169 212 169 212 207.5 153.5 c 128,-1,5
 246 95 246 95 316.5 95 c 128,-1,6
 387 95 387 95 425.5 153.5 c 128,-1,7
 464 212 464 212 464 324 c 128,-1,0
 464 436 464 436 425.5 495.5 c 128,-1,1
316.5 662 m 0,8,9
 376 662 376 662 425.5 641.5 c 128,-1,10
 475 621 475 621 510.5 579 c 0,11,12
 586 489.676 586 489.676 586 324 c 128,-1,13
 586 158.324 586 158.324 510.5 69 c 0,14,15
 440.345 -14 440.345 -14 317 -14 c 0,16,17
 193.143 -14 193.143 -14 122 69 c 0,18,19
 47 156.5 47 156.5 47 324 c 128,-1,20
 47 491.5 47 491.5 122 579 c 0,21,22
 193.143 662 193.143 662 316.5 662 c 0,8,9
EndSplineSet
Substitution2: "'onum' Oldstyle Figures in Latin lookup 0 subtable" zero.propold
EndChar
StartChar: one
Encoding: 49 49 74
Width: 357
Flags: W
LayerCount: 2
Back
Fore
SplineSet
42 600 m 1,0,1
 116.9 611.015 116.9 611.015 174 653 c 1,2,-1
 263 653 l 1,3,-1
 263 0 l 1,4,-1
 145 0 l 1,5,-1
 145 512 l 1,6,7
 94 487 94 487 42 487 c 1,8,-1
 42 600 l 1,0,1
EndSplineSet
Substitution2: "'onum' Oldstyle Figures in Latin lookup 0 subtable" one.propold
EndChar
StartChar: two
Encoding: 50 50 75
Width: 605
Flags: W
LayerCount: 2
Fore
SplineSet
178 108 m 1,0,-1
 549 108 l 1,1,-1
 549 0 l 1,2,-1
 60 0 l 1,3,-1
 60 111 l 2,4,5
 60 227.643 60 227.643 143 281 c 0,6,7
 171 299 171 299 208 313 c 2,8,-1
 341 364 l 2,9,10
 385 381 385 381 405.5 406.5 c 128,-1,11
 426 432 426 432 426 470 c 128,-1,12
 426 508 426 508 399 533.5 c 128,-1,13
 372 559 372 559 322 559 c 128,-1,14
 272 559 272 559 239.5 535 c 128,-1,15
 207 511 207 511 202 464 c 1,16,-1
 71 464 l 1,17,18
 72.9028 559.138 72.9028 559.138 144 613 c 0,19,20
 208.68 662 208.68 662 319 662 c 0,21,22
 420.077 662 420.077 662 485.5 608 c 0,23,24
 553 552.286 553 552.286 553 471.143 c 128,-1,25
 553 390 553 390 512.5 341.5 c 128,-1,26
 472 293 472 293 387 260 c 2,27,-1
 252 208 l 2,28,29
 213 193 213 193 195.5 174.5 c 128,-1,30
 178 156 178 156 178 127 c 2,31,-1
 178 108 l 1,0,-1
EndSplineSet
Substitution2: "'onum' Oldstyle Figures in Latin lookup 0 subtable" two.propold
EndChar
StartChar: three
Encoding: 51 51 76
Width: 622
Flags: W
LayerCount: 2
Fore
SplineSet
309 555 m 0,0,1
 200.043 555 200.043 555 182 472 c 1,2,-1
 58 472 l 1,3,4
 67.6258 568.258 67.6258 568.258 136.5 617 c 0,5,6
 200.087 662 200.087 662 304 662 c 0,7,8
 410.792 662 410.792 662 478.5 612 c 0,9,10
 548 560.677 548 560.677 548 481 c 0,11,12
 548 431 548 431 521 394.5 c 128,-1,13
 494 358 494 358 441 340 c 1,14,15
 500 320 500 320 535.5 280.5 c 128,-1,16
 571 241 571 241 571 190 c 128,-1,17
 571 139 571 139 552.5 103 c 128,-1,18
 534 67 534 67 500 41 c 0,19,20
 428.077 -14 428.077 -14 313 -14 c 0,21,22
 203.182 -14 203.182 -14 127.5 41.5 c 0,23,24
 44 102.733 44 102.733 44 204 c 1,25,-1
 170 204 l 1,26,27
 173 153 173 153 211.5 124 c 128,-1,28
 250 95 250 95 312 95 c 128,-1,29
 374 95 374 95 408.5 122.5 c 128,-1,30
 443 150 443 150 443 192.5 c 128,-1,31
 443 235 443 235 411.5 259 c 128,-1,32
 380 283 380 283 312 283 c 2,33,-1
 226 283 l 1,34,-1
 226 376 l 1,35,-1
 300 376 l 2,36,37
 357 376 357 376 389 400.5 c 128,-1,38
 421 425 421 425 421 465 c 128,-1,39
 421 505 421 505 393.5 530 c 128,-1,40
 366 555 366 555 309 555 c 0,0,1
EndSplineSet
Substitution2: "'onum' Oldstyle Figures in Latin lookup 0 subtable" three.propold
EndChar
StartChar: four
Encoding: 52 52 77
Width: 595
Flags: W
LayerCount: 2
Back
Fore
SplineSet
162 233 m 1,0,-1
 357 233 l 1,1,-1
 357 481 l 1,2,-1
 162 233 l 1,0,-1
468 656 m 1,3,-1
 468 245 l 1,4,-1
 581 245 l 1,5,-1
 581 144 l 1,6,-1
 468 144 l 1,7,-1
 468 0 l 1,8,-1
 351 0 l 1,9,-1
 351 144 l 1,10,-1
 22 144 l 1,11,-1
 22 233 l 1,12,-1
 354 656 l 1,13,-1
 468 656 l 1,3,-1
EndSplineSet
Substitution2: "'onum' Oldstyle Figures in Latin lookup 0 subtable" four.propold
EndChar
StartChar: five
Encoding: 53 53 78
Width: 582
Flags: W
LayerCount: 2
Fore
SplineSet
57 194 m 1,0,-1
 178 194 l 1,1,2
 178 143 178 143 212 119 c 128,-1,3
 246 95 246 95 299 95 c 128,-1,4
 352 95 352 95 386.5 129.5 c 128,-1,5
 421 164 421 164 421 216 c 0,6,7
 421 315 421 315 287 315 c 2,8,-1
 89 315 l 1,9,-1
 119 649 l 1,10,-1
 508 649 l 1,11,-1
 508 541 l 1,12,-1
 233 541 l 1,13,-1
 219 395 l 1,14,15
 273 404 273 404 322 404 c 0,16,17
 423 404 423 404 483 355.5 c 128,-1,18
 543 307 543 307 543 216 c 0,19,20
 543 117.385 543 117.385 475.5 53 c 0,21,22
 405.258 -14 405.258 -14 297 -14 c 0,23,24
 190.283 -14 190.283 -14 125.5 40.5 c 0,25,26
 58.9503 96.4863 58.9503 96.4863 57 194 c 1,0,-1
EndSplineSet
Substitution2: "'onum' Oldstyle Figures in Latin lookup 0 subtable" five.propold
EndChar
StartChar: six
Encoding: 54 54 79
Width: 607
Flags: W
LayerCount: 2
Fore
SplineSet
242.5 272.5 m 128,-1,1
 210 244 210 244 210 197 c 128,-1,2
 210 150 210 150 242.5 122.5 c 128,-1,3
 275 95 275 95 322.5 95 c 128,-1,4
 370 95 370 95 403 122.5 c 128,-1,5
 436 150 436 150 436 197 c 0,6,7
 436 244.323 436 244.323 402.5 273.5 c 0,8,9
 370.926 301 370.926 301 322.963 301 c 128,-1,0
 275 301 275 301 242.5 272.5 c 128,-1,1
425 471 m 1,10,11
 420 510 420 510 397 532.5 c 128,-1,12
 374 555 374 555 333.5 555 c 128,-1,13
 293 555 293 555 262.5 537.5 c 128,-1,14
 232 520 232 520 210.5 487 c 0,15,16
 166 418.698 166 418.698 166 303 c 0,17,18
 166 260.5 166 260.5 169 238 c 1,19,20
 180.174 323.669 180.174 323.669 234 363.5 c 0,21,22
 280.622 398 280.622 398 351 398 c 0,23,24
 441.426 398 441.426 398 500.5 340 c 0,25,26
 558 283.545 558 283.545 558 192 c 0,27,28
 558 99.6129 558 99.6129 493 43 c 0,29,30
 427.556 -14 427.556 -14 323 -14 c 0,31,32
 201.115 -14 201.115 -14 123.5 78.5 c 0,33,34
 47 169.671 47 169.671 47 313 c 0,35,36
 47 478.892 47 478.892 124 571.5 c 0,37,38
 199.247 662 199.247 662 328 662 c 0,39,40
 425.68 662 425.68 662 486 610 c 0,41,42
 546.98 557.431 546.98 557.431 551 471 c 1,43,-1
 425 471 l 1,10,11
EndSplineSet
Substitution2: "'onum' Oldstyle Figures in Latin lookup 0 subtable" six.propold
EndChar
StartChar: seven
Encoding: 55 55 80
Width: 498
Flags: W
LayerCount: 2
Fore
SplineSet
480 649 m 1,0,-1
 480 536 l 1,1,-1
 203 0 l 1,2,-1
 44 0 l 1,3,-1
 341 535 l 1,4,-1
 24 535 l 1,5,-1
 24 649 l 1,6,-1
 480 649 l 1,0,-1
EndSplineSet
Substitution2: "'onum' Oldstyle Figures in Latin lookup 0 subtable" seven.propold
EndChar
StartChar: nine
Encoding: 57 57 82
Width: 610
Flags: W
LayerCount: 2
Fore
SplineSet
207.5 526.5 m 128,-1,1
 175 499 175 499 175 450.5 c 128,-1,2
 175 402 175 402 207.5 375 c 128,-1,3
 240 348 240 348 288 348 c 0,4,5
 334.778 348 334.778 348 367.5 376.5 c 0,6,7
 401 405.677 401 405.677 401 451 c 0,8,9
 401 497.323 401 497.323 367.5 526.5 c 0,10,11
 335.926 554 335.926 554 287.963 554 c 128,-1,0
 240 554 240 554 207.5 526.5 c 128,-1,1
293 95 m 0,12,13
 445 95 445 95 445 345 c 0,14,15
 445 372 445 372 441 404 c 1,16,17
 427.75 326.39 427.75 326.39 376 286.5 c 0,18,19
 329.946 251 329.946 251 259 251 c 0,20,21
 168 251 168 251 110.5 308.5 c 128,-1,22
 53 366 53 366 53 456 c 0,23,24
 53 548.387 53 548.387 118 605 c 0,25,26
 183.444 662 183.444 662 287 662 c 0,27,28
 405.012 662 405.012 662 483.5 572 c 0,29,30
 564 479.693 564 479.693 564 335 c 0,31,32
 564 84 564 84 414 10.5 c 0,33,34
 364 -14 364 -14 305.5 -14 c 128,-1,35
 247 -14 247 -14 203.5 1 c 128,-1,36
 160 16 160 16 128 43 c 0,37,38
 60 100.375 60 100.375 60 192 c 1,39,-1
 183 192 l 1,40,41
 185 147 185 147 215.5 121 c 128,-1,42
 246 95 246 95 293 95 c 0,12,13
EndSplineSet
Substitution2: "'onum' Oldstyle Figures in Latin lookup 0 subtable" nine.propold
EndChar
StartChar: colon
Encoding: 58 58 7
Width: 270
Flags: W
LayerCount: 2
Fore
SplineSet
74 327 m 128,-1,1
 51 349 51 349 51 383 c 128,-1,2
 51 417 51 417 74 440 c 128,-1,3
 97 463 97 463 133 463 c 128,-1,4
 169 463 169 463 193 440 c 128,-1,5
 217 417 217 417 217 383 c 128,-1,6
 217 349 217 349 193 327 c 128,-1,7
 169 305 169 305 133 305 c 128,-1,0
 97 305 97 305 74 327 c 128,-1,1
74 30 m 128,-1,9
 51 52 51 52 51 86 c 128,-1,10
 51 120 51 120 74 143 c 128,-1,11
 97 166 97 166 133 166 c 128,-1,12
 169 166 169 166 193 143 c 128,-1,13
 217 120 217 120 217 86 c 128,-1,14
 217 52 217 52 193 30 c 128,-1,15
 169 8 169 8 133 8 c 128,-1,8
 97 8 97 8 74 30 c 128,-1,9
EndSplineSet
EndChar
StartChar: semicolon
Encoding: 59 59 6
Width: 308
Flags: W
LayerCount: 2
Fore
SplineSet
54 -92 m 1,8,9
 87 -75 87 -75 112.5 -54 c 128,-1,10
 138 -33 138 -33 146 -5 c 1,11,12
 118 0 118 0 98.5 17.5 c 128,-1,13
 79 35 79 35 79 64.5 c 128,-1,14
 79 94 79 94 102 115 c 128,-1,15
 125 136 125 136 165 136 c 128,-1,16
 205 136 205 136 230 105 c 128,-1,17
 255 74 255 74 255 29 c 0,18,19
 255 -44.2857 255 -44.2857 189 -104 c 0,20,21
 168 -123 168 -123 142 -136 c 1,22,-1
 54 -92 l 1,8,9
85 383 m 128,-1,1
 85 417 85 417 108 440 c 128,-1,2
 131 463 131 463 167 463 c 128,-1,3
 203 463 203 463 227 440 c 128,-1,4
 251 417 251 417 251 383 c 128,-1,5
 251 349 251 349 227 327 c 128,-1,6
 203 305 203 305 167 305 c 128,-1,7
 131 305 131 305 108 327 c 128,-1,0
 85 349 85 349 85 383 c 128,-1,1
EndSplineSet
EndChar
StartChar: less
Encoding: 60 60 144
Width: 502
Flags: W
LayerCount: 2
Fore
SplineSet
457 527 m 1,0,-1
 166 322 l 1,1,-1
 457 118 l 1,2,-1
 379 28 l 1,3,-1
 45 269 l 1,4,-1
 45 376 l 1,5,-1
 379 617 l 1,6,-1
 457 527 l 1,0,-1
EndSplineSet
EndChar
StartChar: equal
Encoding: 61 61 72
Width: 506
Flags: W
LayerCount: 2
Fore
SplineSet
79 95 m 1,4,-1
 79 198 l 1,5,-1
 427 198 l 1,6,-1
 427 95 l 1,7,-1
 79 95 l 1,4,-1
79 306 m 1,0,-1
 79 408 l 1,1,-1
 427 408 l 1,2,-1
 427 306 l 1,3,-1
 79 306 l 1,0,-1
EndSplineSet
EndChar
StartChar: greater
Encoding: 62 62 145
Width: 502
Flags: W
LayerCount: 2
Back
Fore
SplineSet
123 617 m 1,0,-1
 457 376 l 1,1,-1
 457 269 l 1,2,-1
 123 28 l 1,3,-1
 45 118 l 1,4,-1
 335 322 l 1,5,-1
 45 527 l 1,6,-1
 123 617 l 1,0,-1
EndSplineSet
EndChar
StartChar: question
Encoding: 63 63 94
Width: 517
Flags: W
LayerCount: 2
Fore
SplineSet
177.5 121 m 128,-1,1
 200 143 200 143 236.5 143 c 128,-1,2
 273 143 273 143 297 121 c 128,-1,3
 321 99 321 99 321 65 c 128,-1,4
 321 31 321 31 297 8.5 c 128,-1,5
 273 -14 273 -14 236.5 -14 c 128,-1,6
 200 -14 200 -14 177.5 8.5 c 128,-1,7
 155 31 155 31 155 65 c 128,-1,0
 155 99 155 99 177.5 121 c 128,-1,1
485 481 m 0,8,9
 485 428 485 428 459 392.5 c 128,-1,10
 433 357 433 357 377 329 c 0,11,12
 329.571 305.286 329.571 305.286 315.286 288.143 c 128,-1,13
 301 271 301 271 297 256.5 c 128,-1,14
 293 242 293 242 293 223 c 2,15,-1
 293 194 l 1,16,-1
 175 194 l 1,17,-1
 175 234 l 2,18,19
 175 324.132 175 324.132 229 362.5 c 0,20,21
 248 376 248 376 285 395 c 128,-1,22
 322 414 322 414 338.5 433.5 c 128,-1,23
 355 453 355 453 355 483.5 c 128,-1,24
 355 514 355 514 330 534.5 c 128,-1,25
 305 555 305 555 256 555 c 128,-1,26
 207 555 207 555 179 531.5 c 128,-1,27
 151 508 151 508 147 470 c 1,28,-1
 24 470 l 1,29,30
 29 557 29 557 88 609.5 c 128,-1,31
 147 662 147 662 253.643 662 c 128,-1,32
 360.286 662 360.286 662 422.643 610.212 c 128,-1,33
 485 558.424 485 558.424 485 481 c 0,8,9
EndSplineSet
EndChar
StartChar: at
Encoding: 64 64 127
Width: 1027
Flags: W
LayerCount: 2
Fore
SplineSet
704 150 m 2,0,1
 704 99 704 99 739 99 c 0,2,3
 755 99 755 99 775.5 109.5 c 128,-1,4
 796 120 796 120 814 143.5 c 0,5,6
 857 199.639 857 199.639 857 293 c 0,7,8
 857 409.079 857 409.079 780 480 c 0,9,10
 697.486 556 697.486 556 560 556 c 0,11,12
 394.688 556 394.688 556 289.5 454 c 0,13,14
 186 353.636 186 353.636 186 202 c 0,15,16
 186 55.3673 186 55.3673 285 -30.5 c 0,17,18
 389.341 -121 389.341 -121 569 -121 c 1,19,-1
 569 -218 l 1,20,21
 455 -218 455 -218 362.5 -184.5 c 128,-1,22
 270 -151 270 -151 204 -93.5 c 128,-1,23
 138 -36 138 -36 102.5 42 c 128,-1,24
 67 120 67 120 67 215.5 c 128,-1,25
 67 311 67 311 104 394.5 c 128,-1,26
 141 478 141 478 207 537.5 c 128,-1,27
 273 597 273 597 363.5 629.5 c 128,-1,28
 454 662 454 662 553.5 662 c 128,-1,29
 653 662 653 662 730 633.5 c 128,-1,30
 807 605 807 605 861.5 555 c 128,-1,31
 916 505 916 505 946 437.5 c 128,-1,32
 976 370 976 370 976 297 c 128,-1,33
 976 224 976 224 955 170.5 c 128,-1,34
 934 117 934 117 900.5 80.5 c 128,-1,35
 867 44 867 44 823.5 25 c 128,-1,36
 780 6 780 6 733.5 6 c 128,-1,37
 687 6 687 6 657 23.5 c 128,-1,38
 627 41 627 41 618 73 c 1,39,-1
 612 89 l 1,40,41
 592 51 592 51 563.5 28.5 c 128,-1,42
 535 6 535 6 493 6 c 128,-1,43
 451 6 451 6 421.5 20 c 128,-1,44
 392 34 392 34 369 58.5 c 0,45,46
 318 112.826 318 112.826 318 192 c 0,47,48
 318 295.409 318 295.409 390 368.5 c 0,49,50
 460.433 440 460.433 440 559 440 c 0,51,52
 625 440 625 440 664.5 400.5 c 128,-1,53
 704 361 704 361 704 281 c 2,54,-1
 704 150 l 2,0,1
609 280 m 2,55,56
 609 311 609 311 597.5 330 c 128,-1,57
 586 349 586 349 560 349 c 128,-1,58
 534 349 534 349 511 338.5 c 128,-1,59
 488 328 488 328 469 307.5 c 0,60,61
 425 260.026 425 260.026 425 194 c 0,62,63
 425 149 425 149 448.5 125.5 c 128,-1,64
 472 102 472 102 507 102 c 128,-1,65
 542 102 542 102 565.5 121.5 c 128,-1,66
 589 141 589 141 609 180 c 1,67,-1
 609 280 l 2,55,56
EndSplineSet
EndChar
StartChar: A
Encoding: 65 65 38
Width: 626
Flags: W
LayerCount: 2
Fore
SplineSet
223 229 m 1,0,-1
 405 229 l 1,1,-1
 315 508 l 1,2,-1
 223 229 l 1,0,-1
243 649 m 1,3,-1
 391 649 l 1,4,-1
 604 0 l 1,5,-1
 479 0 l 1,6,-1
 434 140 l 1,7,-1
 193 140 l 1,8,-1
 147 0 l 1,9,-1
 22 0 l 1,10,-1
 243 649 l 1,3,-1
EndSplineSet
EndChar
StartChar: B
Encoding: 66 66 39
Width: 648
Flags: W
LayerCount: 2
Fore
SplineSet
93 0 m 1,16,-1
 93 649 l 1,17,-1
 355 649 l 2,18,19
 463.404 649 463.404 649 522.5 598.5 c 0,20,21
 578 551.073 578 551.073 578 477 c 0,22,23
 578 422 578 422 547.5 383 c 128,-1,24
 517 344 517 344 462 328 c 1,25,26
 517 317 517 317 553 278.5 c 128,-1,27
 589 240 589 240 589 180 c 0,28,29
 589 60.1333 589 60.1333 470 16.5 c 0,30,31
 425 0 425 0 356 0 c 2,32,-1
 93 0 l 1,16,-1
211 103 m 5,8,-1
 353 103 l 2,9,10
 410 103 410 103 435.5 126 c 128,-1,11
 461 149 461 149 461 187 c 128,-1,12
 461 225 461 225 434.5 248.5 c 128,-1,13
 408 272 408 272 353 272 c 2,14,-1
 211 272 l 1,15,-1
 211 103 l 5,8,-1
211 375 m 1,0,-1
 350 375 l 2,1,2
 403 375 403 375 430 398 c 128,-1,3
 457 421 457 421 457 460.5 c 128,-1,4
 457 500 457 500 430.5 523.5 c 128,-1,5
 404 547 404 547 351 547 c 2,6,-1
 211 547 l 1,7,-1
 211 375 l 1,0,-1
EndSplineSet
EndChar
StartChar: C
Encoding: 67 67 40
Width: 634
Flags: W
LayerCount: 2
Fore
SplineSet
47 326 m 0,0,1
 47 486.4 47 486.4 126.5 576.5 c 0,2,3
 201.941 662 201.941 662 326.5 662 c 0,4,5
 438 662 438 662 506 607 c 0,6,7
 569.264 555.598 569.264 555.598 588 464 c 1,8,-1
 462 441 l 1,9,10
 446 492 446 492 412.5 523.5 c 128,-1,11
 379 555 379 555 329 555 c 0,12,13
 261.368 555 261.368 555 219 497.5 c 0,14,15
 174 436.429 174 436.429 174 326.714 c 128,-1,16
 174 217 174 217 214 155.5 c 128,-1,17
 254 94 254 94 323 94 c 128,-1,18
 392 94 392 94 427 127.5 c 128,-1,19
 462 161 462 161 462 214 c 1,20,-1
 589 214 l 1,21,22
 589 105 589 105 519.5 45.5 c 128,-1,23
 450 -14 450 -14 329 -14 c 0,24,25
 199.682 -14 199.682 -14 124 76 c 0,26,27
 47 167.568 47 167.568 47 326 c 0,0,1
EndSplineSet
EndChar
StartChar: D
Encoding: 68 68 41
Width: 686
Flags: W
LayerCount: 2
Fore
SplineSet
211 107 m 1,0,-1
 303 107 l 2,1,2
 394.845 107 394.845 107 451.5 169 c 0,3,4
 506 228.642 506 228.642 506 324 c 0,5,6
 506 421.358 506 421.358 451.5 481 c 0,7,8
 395.759 542 395.759 542 303 542 c 2,9,-1
 211 542 l 1,10,-1
 211 107 l 1,0,-1
303 649 m 2,11,12
 451.357 649 451.357 649 542.5 561 c 0,13,14
 634 472.655 634 472.655 634 324 c 0,15,16
 634 176.345 634 176.345 542.5 88 c 0,17,18
 451.357 -2.84217e-014 451.357 -2.84217e-014 303 0 c 2,19,-1
 92 0 l 1,20,-1
 92 649 l 1,21,-1
 303 649 l 2,11,12
EndSplineSet
EndChar
StartChar: E
Encoding: 69 69 42
Width: 586
Flags: W
LayerCount: 2
Fore
SplineSet
92 649 m 1,0,-1
 510 649 l 1,1,-1
 510 547 l 1,2,-1
 210 547 l 1,3,-1
 210 376 l 1,4,-1
 491 376 l 1,5,-1
 491 274 l 1,6,-1
 210 274 l 1,7,-1
 210 103 l 1,8,-1
 510 103 l 1,9,-1
 510 0 l 1,10,-1
 92 0 l 1,11,-1
 92 649 l 1,0,-1
EndSplineSet
EndChar
StartChar: F
Encoding: 70 70 43
Width: 547
Flags: W
LayerCount: 2
Fore
SplineSet
93 649 m 1,0,-1
 502 649 l 1,1,-1
 502 547 l 1,2,-1
 211 547 l 1,3,-1
 211 376 l 1,4,-1
 477 376 l 1,5,-1
 477 275 l 1,6,-1
 211 275 l 1,7,-1
 211 0 l 1,8,-1
 93 0 l 1,9,-1
 93 649 l 1,0,-1
EndSplineSet
EndChar
StartChar: G
Encoding: 71 71 44
Width: 677
Flags: W
LayerCount: 2
Back
Fore
SplineSet
491 103 m 1,0,1
 449.214 -14 449.214 -14 330 -14 c 0,2,3
 208.455 -14 208.455 -14 129 78 c 0,4,5
 47 172.947 47 172.947 47 321 c 0,6,7
 47 476.561 47 476.561 135 571 c 0,8,9
 219.795 662 219.795 662 354 662 c 0,10,11
 445 662 445 662 506.5 622.5 c 128,-1,12
 568 583 568 583 603 498 c 1,13,-1
 482 470 l 1,14,15
 429.381 555 429.381 555 348 555 c 0,16,17
 274.18 555 274.18 555 225 492.5 c 0,18,19
 174 427.688 174 427.688 174 321 c 0,20,21
 174 219.727 174 219.727 220 157 c 0,22,23
 265.467 95 265.467 95 340 95 c 0,24,25
 404 95 404 95 445 136 c 0,26,27
 487 178 487 178 487 251 c 2,28,-1
 487 255 l 1,29,-1
 341 258 l 1,30,-1
 341 334 l 1,31,-1
 600 334 l 1,32,-1
 600 0 l 1,33,-1
 504 0 l 1,34,-1
 491 103 l 1,0,1
EndSplineSet
EndChar
StartChar: H
Encoding: 72 72 45
Width: 706
Flags: W
LayerCount: 2
Back
Fore
SplineSet
211 649 m 1,0,-1
 211 378 l 1,1,-1
 494 378 l 1,2,-1
 494 649 l 1,3,-1
 612 649 l 1,4,-1
 612 0 l 1,5,-1
 494 0 l 1,6,-1
 494 275 l 1,7,-1
 211 275 l 1,8,-1
 211 0 l 1,9,-1
 93 0 l 1,10,-1
 93 649 l 1,11,-1
 211 649 l 1,0,-1
EndSplineSet
EndChar
StartChar: K
Encoding: 75 75 48
Width: 654
Flags: W
LayerCount: 2
Fore
SplineSet
93 0 m 1,0,-1
 93 649 l 1,1,-1
 212 649 l 1,2,-1
 212 382 l 1,3,-1
 468 649 l 1,4,-1
 630 649 l 1,5,-1
 344 357 l 1,6,-1
 649 0 l 1,7,-1
 496 0 l 1,8,-1
 265 275 l 1,9,-1
 212 221 l 1,10,-1
 212 0 l 1,11,-1
 93 0 l 1,0,-1
EndSplineSet
EndChar
StartChar: M
Encoding: 77 77 50
Width: 874
Flags: W
LayerCount: 2
Back
Fore
SplineSet
262 649 m 1,0,-1
 440 263 l 1,1,-1
 618 649 l 1,2,-1
 781 649 l 1,3,-1
 781 0 l 1,4,-1
 662 0 l 1,5,-1
 662 493 l 1,6,-1
 478 71 l 1,7,-1
 401 71 l 1,8,-1
 211 507 l 1,9,-1
 211 0 l 1,10,-1
 93 0 l 1,11,-1
 93 649 l 1,12,-1
 262 649 l 1,0,-1
EndSplineSet
EndChar
StartChar: N
Encoding: 78 78 51
Width: 717
Flags: W
LayerCount: 2
Back
Fore
SplineSet
220 649 m 1,0,-1
 506 189 l 1,1,-1
 506 649 l 1,2,-1
 624 649 l 1,3,-1
 624 0 l 1,4,-1
 504 0 l 1,5,-1
 209 476 l 1,6,-1
 209 0 l 1,7,-1
 91 0 l 1,8,-1
 91 649 l 1,9,-1
 220 649 l 1,0,-1
EndSplineSet
EndChar
StartChar: O
Encoding: 79 79 52
Width: 683
Flags: W
LayerCount: 2
Back
Fore
SplineSet
467.5 495.5 m 128,-1,1
 421 556 421 556 342 556 c 128,-1,2
 263 556 263 556 216 495.5 c 128,-1,3
 169 435 169 435 169 323.5 c 128,-1,4
 169 212 169 212 216 152.5 c 128,-1,5
 263 93 263 93 342 93 c 128,-1,6
 421 93 421 93 467.5 152.5 c 128,-1,7
 514 212 514 212 514 323.5 c 128,-1,0
 514 435 514 435 467.5 495.5 c 128,-1,1
341.5 662 m 0,8,9
 407 662 407 662 461 640.5 c 128,-1,10
 515 619 515 619 554 577 c 0,11,12
 636 488.692 636 488.692 636 325 c 0,13,14
 636 159.859 636 159.859 554 70.5 c 0,15,16
 476.459 -14 476.459 -14 341 -14 c 0,17,18
 207.459 -14 207.459 -14 129 71.5 c 0,19,20
 47 160.859 47 160.859 47 325 c 0,21,22
 47 490.692 47 490.692 129 579 c 0,23,24
 206.071 662 206.071 662 341.5 662 c 0,8,9
EndSplineSet
EndChar
StartChar: P
Encoding: 80 80 53
Width: 581
Flags: W
LayerCount: 2
Back
Fore
SplineSet
319 339 m 2,0,1
 374 339 374 339 402 368 c 128,-1,2
 430 397 430 397 430 442.5 c 128,-1,3
 430 488 430 488 402 517.5 c 128,-1,4
 374 547 374 547 319 547 c 2,5,-1
 209 547 l 1,6,-1
 209 339 l 1,7,-1
 319 339 l 2,0,1
490.5 595.5 m 128,-1,9
 552 542 552 542 552 442.5 c 128,-1,10
 552 343 552 343 490.5 289.5 c 128,-1,11
 429 236 429 236 319 236 c 2,12,-1
 209 236 l 1,13,-1
 209 0 l 1,14,-1
 90 0 l 1,15,-1
 90 649 l 1,16,-1
 319 649 l 2,17,8
 429 649 429 649 490.5 595.5 c 128,-1,9
EndSplineSet
EndChar
StartChar: Q
Encoding: 81 81 54
Width: 686
Flags: W
LayerCount: 2
Fore
SplineSet
467.5 495.5 m 128,-1,1
 421 556 421 556 342 556 c 128,-1,2
 263 556 263 556 216 495.5 c 128,-1,3
 169 435 169 435 169 323.5 c 128,-1,4
 169 212 169 212 216 152.5 c 128,-1,5
 263 93 263 93 342 93 c 128,-1,6
 421 93 421 93 467.5 152.5 c 128,-1,7
 514 212 514 212 514 323.5 c 128,-1,0
 514 435 514 435 467.5 495.5 c 128,-1,1
628 -162 m 1,8,9
 586.6 -180 586.6 -180 538.8 -180 c 0,10,11
 442.333 -180 442.333 -180 375 -79 c 2,12,-1
 332 -14 l 1,13,14
 202.778 -11.9489 202.778 -11.9489 126.5 74.5 c 0,15,16
 47 164.6 47 164.6 47 325 c 0,17,18
 47 490.692 47 490.692 129 579 c 0,19,20
 206.071 662 206.071 662 341 662 c 0,21,22
 475.071 662 475.071 662 554 577 c 0,23,24
 636 488.692 636 488.692 636 325 c 0,25,26
 636 190 636 190 584 109.5 c 128,-1,27
 532 29 532 29 444 1 c 1,28,-1
 460 -24 l 2,29,30
 484.448 -60.6724 484.448 -60.6724 531 -63 c 1,31,32
 573.636 -63 573.636 -63 628 -40 c 1,33,-1
 628 -162 l 1,8,9
EndSplineSet
EndChar
StartChar: R
Encoding: 82 82 55
Width: 644
Flags: W
LayerCount: 2
Back
Fore
SplineSet
322 332 m 2,0,1
 387 332 387 332 420 361.5 c 128,-1,2
 453 391 453 391 453 439.5 c 128,-1,3
 453 488 453 488 423 517.5 c 128,-1,4
 393 547 393 547 333 547 c 2,5,-1
 211 547 l 1,6,-1
 211 332 l 1,7,-1
 322 332 l 2,0,1
575 450 m 0,8,9
 575 381 575 381 536 332 c 128,-1,10
 497 283 497 283 424 264 c 1,11,-1
 598 0 l 1,12,-1
 444 0 l 1,13,-1
 301 253 l 1,14,-1
 211 253 l 1,15,-1
 211 0 l 1,16,-1
 93 0 l 1,17,-1
 93 649 l 1,18,-1
 333 649 l 2,19,20
 448.245 649 448.245 649 512 594.5 c 0,21,22
 575 540.645 575 540.645 575 450 c 0,8,9
EndSplineSet
EndChar
StartChar: S
Encoding: 83 83 56
Width: 638
Flags: W
LayerCount: 2
Fore
SplineSet
65 203 m 1,0,-1
 182 203 l 1,1,2
 182 123.08 182 123.08 265 101.5 c 0,3,4
 290 95 290 95 331 95 c 128,-1,5
 372 95 372 95 407 115.5 c 128,-1,6
 442 136 442 136 442 170.5 c 128,-1,7
 442 205 442 205 423 223.5 c 128,-1,8
 404 242 404 242 361 258 c 2,9,-1
 232 309 l 2,10,11
 157 338 157 338 117 377 c 128,-1,12
 77 416 77 416 77 485 c 0,13,14
 77 565.869 77 565.869 139.5 613 c 0,15,16
 204.478 662 204.478 662 313.739 662 c 128,-1,17
 423 662 423 662 482.5 611.5 c 128,-1,18
 542 561 542 561 551 470 c 1,19,-1
 434 470 l 1,20,21
 418.342 555 418.342 555 314 555 c 0,22,23
 263 555 263 555 234.5 534.5 c 128,-1,24
 206 514 206 514 206 485 c 128,-1,25
 206 456 206 456 224.5 439.5 c 128,-1,26
 243 423 243 423 282 409 c 1,27,-1
 423 354 l 2,28,29
 495 326 495 326 534 283.5 c 128,-1,30
 573 241 573 241 573 177 c 0,31,32
 573 89 573 89 507 37.5 c 128,-1,33
 441 -14 441 -14 319 -14 c 0,34,35
 211.222 -14 211.222 -14 143.5 39 c 0,36,37
 68.7684 97.4856 68.7684 97.4856 65 203 c 1,0,-1
EndSplineSet
EndChar
StartChar: U
Encoding: 85 85 58
Width: 690
Flags: W
LayerCount: 2
Fore
SplineSet
201 649 m 1,0,-1
 201 245 l 2,1,2
 201 165 201 165 241.5 130 c 128,-1,3
 282 95 282 95 346 95 c 128,-1,4
 410 95 410 95 450.5 130 c 128,-1,5
 491 165 491 165 491 245 c 2,6,-1
 491 649 l 1,7,-1
 609 649 l 1,8,-1
 609 245 l 2,9,10
 609 121 609 121 540 53.5 c 128,-1,11
 471 -14 471 -14 346 -14 c 128,-1,12
 221 -14 221 -14 152 53.5 c 128,-1,13
 83 121 83 121 83 245 c 2,14,-1
 83 649 l 1,15,-1
 201 649 l 1,0,-1
EndSplineSet
EndChar
StartChar: V
Encoding: 86 86 59
Width: 607
Flags: W
LayerCount: 2
Back
Fore
SplineSet
145 649 m 1,0,-1
 303 148 l 1,1,-1
 463 649 l 1,2,-1
 587 649 l 1,3,-1
 364 0 l 1,4,-1
 240 0 l 1,5,-1
 20 649 l 1,6,-1
 145 649 l 1,0,-1
EndSplineSet
EndChar
StartChar: W
Encoding: 87 87 60
Width: 966
Flags: W
LayerCount: 2
Back
Fore
SplineSet
152 649 m 1,0,-1
 295 156 l 1,1,-1
 434 606 l 1,2,-1
 514 606 l 1,3,-1
 661 154 l 1,4,-1
 813 649 l 1,5,-1
 946 649 l 1,6,-1
 723 0 l 1,7,-1
 599 0 l 1,8,-1
 477 366 l 1,9,-1
 356 0 l 1,10,-1
 232 0 l 1,11,-1
 20 649 l 1,12,-1
 152 649 l 1,0,-1
EndSplineSet
EndChar
StartChar: X
Encoding: 88 88 61
Width: 684
Flags: W
LayerCount: 2
Back
Fore
SplineSet
649 0 m 1,0,-1
 501 0 l 1,1,-1
 330 230 l 1,2,-1
 178 0 l 1,3,-1
 34 0 l 1,4,-1
 263 323 l 1,5,-1
 33 649 l 1,6,-1
 178 649 l 1,7,-1
 342 415 l 1,8,-1
 484 649 l 1,9,-1
 627 649 l 1,10,-1
 408 325 l 1,11,-1
 649 0 l 1,0,-1
EndSplineSet
EndChar
StartChar: Y
Encoding: 89 89 62
Width: 604
Flags: W
LayerCount: 2
Back
Fore
SplineSet
156 649 m 1,0,-1
 299 390 l 1,1,-1
 449 649 l 1,2,-1
 588 649 l 1,3,-1
 357 268 l 1,4,-1
 357 0 l 1,5,-1
 239 0 l 1,6,-1
 239 268 l 1,7,-1
 16 649 l 1,8,-1
 156 649 l 1,0,-1
EndSplineSet
EndChar
StartChar: Z
Encoding: 90 90 63
Width: 629
Flags: W
LayerCount: 2
Back
Fore
SplineSet
73 102 m 1,0,-1
 416 540 l 1,1,-1
 73 541 l 1,2,-1
 73 649 l 1,3,-1
 564 649 l 1,4,-1
 564 548 l 1,5,-1
 222 109 l 1,6,-1
 564 108 l 1,7,-1
 564 0 l 1,8,-1
 73 0 l 1,9,-1
 73 102 l 1,0,-1
EndSplineSet
EndChar
StartChar: bracketleft
Encoding: 91 91 153
Width: 352
Flags: W
LayerCount: 2
Fore
SplineSet
93 790 m 1,0,-1
 340 790 l 1,1,-1
 340 684 l 1,2,-1
 211 684 l 1,3,-1
 211 -34 l 1,4,-1
 340 -34 l 1,5,-1
 340 -141 l 1,6,-1
 93 -141 l 1,7,-1
 93 790 l 1,0,-1
EndSplineSet
EndChar
StartChar: backslash
Encoding: 92 92 151
Width: 472
Flags: W
LayerCount: 2
Back
Fore
SplineSet
41 746 m 1,0,-1
 161 746 l 1,1,-1
 419 -80 l 1,2,-1
 298 -80 l 1,3,-1
 41 746 l 1,0,-1
EndSplineSet
EndChar
StartChar: bracketright
Encoding: 93 93 154
Width: 336
Flags: W
LayerCount: 2
Back
Fore
SplineSet
243 -141 m 1,0,-1
 -4 -141 l 1,1,-1
 -4 -34 l 1,2,-1
 125 -34 l 1,3,-1
 125 684 l 1,4,-1
 -4 684 l 1,5,-1
 -4 790 l 1,6,-1
 243 790 l 1,7,-1
 243 -141 l 1,0,-1
EndSplineSet
EndChar
StartChar: asciicircum
Encoding: 94 94 155
Width: 527
Flags: W
LayerCount: 2
Back
Fore
SplineSet
20 218 m 1,0,-1
 218 603 l 1,1,-1
 314 603 l 1,2,-1
 511 218 l 1,3,-1
 381 218 l 1,4,-1
 266 464 l 1,5,-1
 150 218 l 1,6,-1
 20 218 l 1,0,-1
EndSplineSet
EndChar
StartChar: underscore
Encoding: 95 95 156
Width: 768
Flags: W
LayerCount: 2
Back
Fore
SplineSet
55 -55 m 1,0,-1
 714 -55 l 1,1,-1
 714 -158 l 1,2,-1
 55 -158 l 1,3,-1
 55 -55 l 1,0,-1
EndSplineSet
EndChar
StartChar: a
Encoding: 97 97 12
Width: 584
Flags: W
LayerCount: 2
Fore
SplineSet
387 190 m 1,0,1
 327.571 206 327.571 206 277 206 c 0,2,3
 181 206 181 206 181 142 c 0,4,5
 181 115 181 115 203 95.5 c 128,-1,6
 225 76 225 76 273.5 76 c 128,-1,7
 322 76 322 76 353.5 108.5 c 128,-1,8
 385 141 385 141 387 190 c 1,0,1
253 284 m 0,9,10
 311 284 311 284 387 265 c 1,11,-1
 387 313 l 2,12,13
 387 364 387 364 366.5 388.5 c 128,-1,14
 346 413 346 413 299.5 413 c 128,-1,15
 253 413 253 413 228 394.5 c 128,-1,16
 203 376 203 376 203 342 c 1,17,-1
 74 342 l 1,18,19
 74 425 74 425 132.5 462 c 128,-1,20
 191 499 191 499 296 499 c 0,21,22
 446.25 499 446.25 499 490 394 c 0,23,24
 505 358 505 358 505 309 c 2,25,-1
 505 0 l 1,26,-1
 402 0 l 1,27,-1
 393 65 l 1,28,29
 345.6 -14 345.6 -14 249 -14 c 0,30,31
 154.907 -14 154.907 -14 103 32.5 c 0,32,33
 55 75.5 55 75.5 55 143.25 c 128,-1,34
 55 211 55 211 108 247.5 c 128,-1,35
 161 284 161 284 253 284 c 0,9,10
EndSplineSet
EndChar
StartChar: b
Encoding: 98 98 13
Width: 614
Flags: W
LayerCount: 2
Fore
SplineSet
93 0 m 5,11,-1
 93 686 l 5,12,-1
 211 686 l 5,13,-1
 211 425 l 5,14,15
 257 499 257 499 348.682 499 c 132,-1,16
 440.364 499 440.364 499 501.682 429.224 c 132,-1,17
 563 359.448 563 359.448 563 245 c 132,-1,18
 563 130.667 563 130.667 498 57 c 4,19,20
 435.353 -14 435.353 -14 341 -14 c 4,21,22
 296 -14 296 -14 258.5 10 c 132,-1,23
 221 34 221 34 199 84 c 5,24,-1
 170 0 l 5,25,-1
 93 0 l 5,11,-1
211 209 m 5,0,1
 212.945 158.441 212.945 158.441 247.5 125 c 4,2,3
 280.567 93 280.567 93 328.283 93 c 132,-1,4
 376 93 376 93 410 134.5 c 132,-1,5
 444 176 444 176 444 244 c 132,-1,6
 444 312 444 312 410.5 352.5 c 132,-1,7
 377 393 377 393 327 393 c 132,-1,8
 277 393 277 393 244 360 c 132,-1,9
 211 327 211 327 211 273 c 6,10,-1
 211 209 l 5,0,1
EndSplineSet
EndChar
StartChar: c
Encoding: 99 99 14
Width: 530
Flags: W
LayerCount: 2
Back
Fore
SplineSet
277.5 499 m 0,0,1
 324 499 324 499 360.5 483.5 c 128,-1,2
 397 468 397 468 422.5 443 c 0,3,4
 471.933 394.536 471.933 394.536 481 322 c 1,5,-1
 362 319 l 1,6,7
 354 351 354 351 332.5 372 c 128,-1,8
 311 393 311 393 283 393 c 128,-1,9
 255 393 255 393 235 384.5 c 128,-1,10
 215 376 215 376 200 357.5 c 0,11,12
 166 315.567 166 315.567 166 241.783 c 128,-1,13
 166 168 166 168 198 130.5 c 128,-1,14
 230 93 230 93 275.5 93 c 128,-1,15
 321 93 321 93 341.5 114.5 c 128,-1,16
 362 136 362 136 362 173 c 1,17,-1
 481 173 l 1,18,19
 481 93 481 93 428.5 40.5 c 0,20,21
 374 -14 374 -14 277 -14 c 0,22,23
 181.353 -14 181.353 -14 116.5 56 c 0,24,25
 47 131.016 47 131.016 47 243 c 0,26,27
 47 360.794 47 360.794 116.5 432.5 c 0,28,29
 180.954 499 180.954 499 277.5 499 c 0,0,1
EndSplineSet
EndChar
StartChar: d
Encoding: 100 100 15
Width: 614
Flags: W
LayerCount: 2
Fore
SplineSet
51 245 m 128,-1,14
 51 359.448 51 359.448 113 430 c 0,15,16
 173.636 499 173.636 499 264.818 499 c 128,-1,17
 356 499 356 499 402 426 c 1,18,-1
 402 686 l 5,19,-1
 521 686 l 1,20,-1
 521 0 l 1,21,-1
 424 0 l 1,22,-1
 410 75 l 1,23,24
 364.511 -14 364.511 -14 272 -14 c 0,25,26
 178.647 -14 178.647 -14 116 57 c 0,27,13
 51 130.667 51 130.667 51 245 c 128,-1,14
170 244 m 128,-1,1
 170 176 170 176 204 134.5 c 128,-1,2
 238 93 238 93 290 93 c 0,3,4
 333 93 333 93 367 127 c 0,5,6
 402 162 402 162 402 215 c 2,7,-1
 402 278 l 1,8,9
 400.077 329.923 400.077 329.923 367 363 c 0,10,11
 337 393 337 393 287 393 c 128,-1,12
 237 393 237 393 203.5 352.5 c 128,-1,0
 170 312 170 312 170 244 c 128,-1,1
EndSplineSet
EndChar
StartChar: e
Encoding: 101 101 16
Width: 514
Flags: W
LayerCount: 2
Fore
SplineSet
31.615234375 243 m 0,8,9
 31.615234375 359.676757812 31.615234375 359.676757812 98.615234375 431 c 0,10,11
 162.494140625 499 162.494140625 499 259.615234375 499 c 0,12,13
 360.80078125 499 360.80078125 499 416.115234375 428.5 c 0,14,15
 441.615234375 396 441.615234375 396 454.115234375 354 c 128,-1,16
 466.615234375 312 466.615234375 312 466.615234375 277 c 128,-1,17
 466.615234375 242 466.615234375 242 462.615234375 214 c 1,18,-1
 148.615234375 214 l 1,19,20
 150.615234375 155 150.615234375 155 177.615234375 118 c 128,-1,21
 204.615234375 81 204.615234375 81 259.615234375 81 c 0,22,23
 332.615234375 81 332.615234375 81 346.615234375 145 c 1,24,-1
 465.615234375 145 l 1,25,26
 453.17578125 72.435546875 453.17578125 72.435546875 398.615234375 30 c 0,27,28
 342.043945312 -14 342.043945312 -14 259.615234375 -14 c 0,29,30
 163.854492188 -14 163.854492188 -14 98.615234375 56.5 c 0,31,32
 31.615234375 128.903320312 31.615234375 128.903320312 31.615234375 243 c 0,8,9
149.615234375 289 m 1,0,-1
 356.615234375 289 l 1,1,2
 356.615234375 367.703125 356.615234375 367.703125 306.115234375 395 c 0,3,4
 287.615234375 405 287.615234375 405 260.615234375 405 c 0,5,6
 210.615234375 405 210.615234375 405 182.615234375 372.5 c 128,-1,7
 154.615234375 340 154.615234375 340 149.615234375 289 c 1,0,-1
EndSplineSet
EndChar
StartChar: f
Encoding: 102 102 17
Width: 366
Flags: W
LayerCount: 2
Fore
SplineSet
40 486 m 5,0,-1
 112 486 l 5,1,-1
 112 543 l 6,2,3
 112 618.341 112 618.341 156.5 658.5 c 4,4,5
 195.838 694 195.838 694 260 694 c 4,6,7
 301 694 301 694 361 682 c 5,8,-1
 338 591 l 5,9,10
 310 601 310 601 287.5 601 c 132,-1,11
 265 601 265 601 248 588.5 c 132,-1,12
 231 576 231 576 231 542 c 6,13,-1
 231 486 l 5,14,-1
 320 486 l 5,15,-1
 320 407 l 5,16,-1
 231 407 l 5,17,-1
 231 0 l 5,18,-1
 112 0 l 5,19,-1
 112 407 l 5,20,-1
 40 407 l 5,21,-1
 40 486 l 5,0,-1
EndSplineSet
EndChar
StartChar: g
Encoding: 103 103 18
Width: 582
Flags: W
LayerCount: 2
Fore
SplineSet
15 -87 m 0,21,22
 15 -42 15 -42 42.5 -15.5 c 128,-1,23
 70 11 70 11 115 18 c 1,24,25
 56 53.8214 56 53.8214 56 107 c 0,26,27
 56 142 56 142 78 165.5 c 128,-1,28
 100 189 100 189 135 199 c 1,29,30
 76 249.259 76 249.259 76 324 c 0,31,32
 76 402.947 76 402.947 137.5 451.5 c 0,33,34
 197.667 499 197.667 499 275.333 499 c 128,-1,35
 353 499 353 499 405 470 c 1,36,37
 410.89 526.934 410.89 526.934 454 562.5 c 0,38,39
 495.818 597 495.818 597 553 597 c 1,40,-1
 547 484 l 1,41,42
 461 484 461 484 458 427 c 1,43,44
 495 381.294 495 381.294 495 333.147 c 128,-1,45
 495 285 495 285 478 252.5 c 128,-1,46
 461 220 461 220 432.5 197.5 c 0,47,48
 372.333 150 372.333 150 286 150 c 0,49,50
 237 150 237 150 197 165 c 1,51,52
 157 153.235 157 153.235 157 117 c 0,53,54
 157 72 157 72 233 72 c 2,55,-1
 396 72 l 2,56,57
 562 72 562 72 562 -44 c 0,58,59
 562 -83 562 -83 542.5 -120.5 c 128,-1,60
 523 -158 523 -158 486 -187 c 0,61,62
 404.345 -251 404.345 -251 280 -251 c 0,63,64
 159.8 -251 159.8 -251 85 -201.5 c 0,65,66
 15 -155.176 15 -155.176 15 -87 c 0,21,22
131 -82.5 m 0,8,9
 131 -116 131 -116 170.5 -136.5 c 128,-1,10
 210 -157 210 -157 264 -157 c 128,-1,11
 318 -157 318 -157 348.5 -148 c 128,-1,12
 379 -139 379 -139 400.5 -124.5 c 0,13,14
 445 -94.4884 445 -94.4884 445 -52 c 0,15,16
 445 -34 445 -34 432.5 -22.5 c 128,-1,17
 420 -11 420 -11 396 -11 c 2,18,-1
 225 -11 l 1,19,20
 131 -15.1778 131 -15.1778 131 -82.5 c 0,8,9
193 325.5 m 128,-1,1
 193 285 193 285 217 259 c 128,-1,2
 241 233 241 233 287 233 c 128,-1,3
 333 233 333 233 355.5 259 c 128,-1,4
 378 285 378 285 378 325.5 c 128,-1,5
 378 366 378 366 355.5 391.5 c 128,-1,6
 333 417 333 417 287 417 c 128,-1,7
 241 417 241 417 217 391.5 c 128,-1,0
 193 366 193 366 193 325.5 c 128,-1,1
EndSplineSet
EndChar
StartChar: h
Encoding: 104 104 19
Width: 623
Flags: W
LayerCount: 2
Fore
SplineSet
93 0 m 1,0,-1
 93 686 l 1,1,-1
 211 686 l 1,2,-1
 211 407 l 1,3,4
 261 499 261 499 357 499 c 128,-1,5
 453 499 453 499 498.5 440 c 128,-1,6
 544 381 544 381 544 284 c 2,7,-1
 544 0 l 1,8,-1
 426 0 l 1,9,-1
 426 284 l 2,10,11
 426 338 426 338 400 365.5 c 128,-1,12
 374 393 374 393 327 393 c 128,-1,13
 280 393 280 393 246.5 351 c 128,-1,14
 213 309 213 309 211 225 c 1,15,-1
 211 0 l 1,16,-1
 93 0 l 1,0,-1
EndSplineSet
EndChar
StartChar: j
Encoding: 106 106 21
Width: 335
Flags: W
LayerCount: 2
Back
Fore
SplineSet
-74 -118 m 1,0,1
 -14 -148 -14 -148 29 -148 c 128,-1,2
 72 -148 72 -148 91 -127.5 c 128,-1,3
 110 -107 110 -107 110 -56 c 2,4,-1
 110 488 l 1,5,-1
 228 488 l 1,6,-1
 228 -58 l 2,7,8
 228 -162 228 -162 184.5 -206.5 c 128,-1,9
 141 -251 141 -251 71.25 -251 c 128,-1,10
 1.5 -251 1.5 -251 -76 -220 c 1,11,-1
 -74 -118 l 1,0,1
95 643 m 132,-1,13
 95 675 95 675 114.5 693.5 c 132,-1,14
 134 712 134 712 168.5 712 c 132,-1,15
 203 712 203 712 222 693.5 c 132,-1,16
 241 675 241 675 241 643 c 132,-1,17
 241 611 241 611 222 592.5 c 132,-1,18
 203 574 203 574 168.5 574 c 132,-1,19
 134 574 134 574 114.5 592.5 c 132,-1,12
 95 611 95 611 95 643 c 132,-1,13
EndSplineSet
EndChar
StartChar: k
Encoding: 107 107 22
Width: 575
Flags: W
LayerCount: 2
Fore
SplineSet
93 0 m 1,0,-1
 93 686 l 1,1,-1
 211 686 l 1,2,-1
 211 315 l 1,3,-1
 403 486 l 1,4,-1
 563 486 l 1,5,-1
 348 306 l 1,6,-1
 575 0 l 1,7,-1
 431 0 l 1,8,-1
 265 237 l 1,9,-1
 211 192 l 1,10,-1
 211 0 l 1,11,-1
 93 0 l 1,0,-1
EndSplineSet
EndChar
StartChar: l
Encoding: 108 108 23
Width: 304
Flags: W
LayerCount: 2
Fore
SplineSet
93 686 m 1,0,-1
 211 686 l 1,1,-1
 211 0 l 1,2,-1
 93 0 l 1,3,-1
 93 686 l 1,0,-1
EndSplineSet
EndChar
StartChar: m
Encoding: 109 109 24
Width: 949
Flags: W
LayerCount: 2
Fore
SplineSet
93 0 m 1,0,-1
 93 486 l 1,1,-1
 196 486 l 1,2,-1
 209 402 l 1,3,4
 256.51 499 256.51 499 363 499 c 0,5,6
 424 499 424 499 464.5 471 c 128,-1,7
 505 443 505 443 525 394 c 1,8,9
 571.875 499 571.875 499 690 499 c 0,10,11
 776.536 499 776.536 499 825 440 c 0,12,13
 871 384 871 384 871 284 c 2,14,-1
 871 0 l 1,15,-1
 752 0 l 1,16,-1
 752 284 l 2,17,18
 752 338 752 338 726 365.5 c 128,-1,19
 700 393 700 393 653 393 c 128,-1,20
 606 393 606 393 576 352 c 128,-1,21
 546 311 546 311 544 228 c 1,22,-1
 544 0 l 1,23,-1
 426 0 l 1,24,-1
 426 284 l 2,25,26
 426 338 426 338 400 365.5 c 128,-1,27
 374 393 374 393 327 393 c 128,-1,28
 280 393 280 393 246.5 351 c 128,-1,29
 213 309 213 309 211 225 c 1,30,-1
 211 0 l 1,31,-1
 93 0 l 1,0,-1
EndSplineSet
EndChar
StartChar: n
Encoding: 110 110 25
Width: 623
Flags: W
LayerCount: 2
Back
Fore
SplineSet
209 402 m 1,0,1
 256.51 499 256.51 499 363 499 c 0,2,3
 453 499 453 499 498.5 440 c 128,-1,4
 544 381 544 381 544 284 c 2,5,-1
 544 0 l 1,6,-1
 426 0 l 1,7,-1
 426 284 l 2,8,9
 426 338 426 338 400 365.5 c 128,-1,10
 374 393 374 393 327 393 c 128,-1,11
 280 393 280 393 246.5 351 c 128,-1,12
 213 309 213 309 211 225 c 1,13,-1
 211 0 l 1,14,-1
 93 0 l 1,15,-1
 93 486 l 1,16,-1
 196 486 l 1,17,-1
 209 402 l 1,0,1
EndSplineSet
EndChar
StartChar: o
Encoding: 111 111 26
Width: 566
Flags: W
LayerCount: 2
Fore
SplineSet
47 242 m 0,8,9
 47 367 47 367 116 436 c 0,10,11
 179 499 179 499 283.5 499 c 0,12,13
 333 499 333 499 376 483.5 c 128,-1,14
 419 468 419 468 450.5 436 c 0,15,16
 519 366.413 519 366.413 519 242 c 0,17,18
 519 119.587 519 119.587 450.5 50 c 0,19,20
 387.5 -14 387.5 -14 284 -14 c 0,21,22
 180 -14 180 -14 116 50 c 0,23,24
 47 119 47 119 47 242 c 0,8,9
166 243 m 128,-1,1
 166 166 166 166 196.5 127.5 c 128,-1,2
 227 89 227 89 280 89 c 128,-1,3
 333 89 333 89 367 127.5 c 128,-1,4
 401 166 401 166 401 243 c 128,-1,5
 401 320 401 320 371 358.5 c 128,-1,6
 341 397 341 397 287.5 397 c 128,-1,7
 234 397 234 397 200 358.5 c 128,-1,0
 166 320 166 320 166 243 c 128,-1,1
EndSplineSet
EndChar
StartChar: p
Encoding: 112 112 27
Width: 610
Flags: W
LayerCount: 2
Back
Fore
SplineSet
319.5 93 m 0,0,1
 341 93 341 93 363.5 102 c 128,-1,2
 386 111 386 111 404 130 c 0,3,4
 444 172.222 444 172.222 444 242.611 c 128,-1,5
 444 313 444 313 409.5 353 c 128,-1,6
 375 393 375 393 325.5 393 c 128,-1,7
 276 393 276 393 244.5 364.5 c 128,-1,8
 213 336 213 336 211 283 c 1,9,-1
 211 196 l 2,10,11
 211 148.6 211 148.6 244 120 c 0,12,13
 275.154 93 275.154 93 319.5 93 c 0,0,1
201 420 m 1,14,15
 247.244 499 247.244 499 341 499 c 0,16,17
 431.121 499 431.121 499 495 431 c 0,18,19
 563 358.613 563 358.613 563 243 c 0,20,21
 563 125.762 563 125.762 494.5 54 c 0,22,23
 429.591 -14 429.591 -14 340.795 -14 c 128,-1,24
 252 -14 252 -14 211 39 c 1,25,-1
 211 -237 l 1,26,-1
 93 -237 l 1,27,-1
 93 486 l 1,28,-1
 190 486 l 1,29,-1
 201 420 l 1,14,15
EndSplineSet
EndChar
StartChar: q
Encoding: 113 113 28
Width: 610
Flags: W
LayerCount: 2
Fore
SplineSet
366 363 m 128,-1,1
 334 393 334 393 284.5 393 c 128,-1,2
 235 393 235 393 200.5 353 c 128,-1,3
 166 313 166 313 166 243 c 0,4,5
 166 172.222 166 172.222 206 130 c 0,6,7
 241.053 93 241.053 93 291 93 c 0,8,9
 332.4 93 332.4 93 363 118.5 c 0,10,11
 396.045 146.038 396.045 146.038 398 191 c 1,12,-1
 398 278 l 2,13,0
 398 333 398 333 366 363 c 128,-1,1
398 63 m 1,14,15
 361.639 -14 361.639 -14 274 -14 c 0,16,17
 180.409 -14 180.409 -14 115.5 54 c 0,18,19
 47 125.762 47 125.762 47 243 c 0,20,21
 47 357.967 47 357.967 114.5 431 c 0,22,23
 177.348 499 177.348 499 268 499 c 0,24,25
 313 499 313 499 351.5 477.5 c 128,-1,26
 390 456 390 456 414 411 c 1,27,-1
 440 486 l 1,28,-1
 517 486 l 1,29,-1
 517 -237 l 1,30,-1
 398 -237 l 1,31,-1
 398 63 l 1,14,15
EndSplineSet
EndChar
StartChar: r
Encoding: 114 114 29
Width: 416
Flags: W
LayerCount: 2
Fore
SplineSet
211 390 m 1,0,1
 254.585 495 254.585 495 343 495 c 0,2,3
 360.333 495 360.333 495 386 488 c 1,4,-1
 384 370 l 1,5,6
 356 376 356 376 329 376 c 0,7,8
 211 376 211 376 211 213 c 2,9,-1
 211 0 l 1,10,-1
 93 0 l 1,11,-1
 93 487 l 1,12,-1
 211 487 l 1,13,-1
 211 390 l 1,0,1
EndSplineSet
EndChar
StartChar: s
Encoding: 115 115 30
Width: 527
Flags: W
LayerCount: 2
Fore
SplineSet
49 148 m 1,0,-1
 159 148 l 1,1,2
 160.917 79 160.917 79 260 79 c 0,3,4
 298 79 298 79 322.5 95.5 c 128,-1,5
 347 112 347 112 347 134 c 128,-1,6
 347 156 347 156 332 168 c 128,-1,7
 317 180 317 180 285 190 c 1,8,-1
 179 228 l 2,9,10
 61 269.404 61 269.404 61 362 c 0,11,12
 61 424 61 424 116.5 461.5 c 128,-1,13
 172 499 172 499 265.5 499 c 128,-1,14
 359 499 359 499 409.5 458 c 128,-1,15
 460 417 460 417 462 355 c 1,16,-1
 351 355 l 1,17,18
 349 379 349 379 328 393 c 128,-1,19
 307 407 307 407 268 407 c 128,-1,20
 229 407 229 407 207.5 391.5 c 128,-1,21
 186 376 186 376 186 356 c 0,22,23
 186 321 186 321 245 304 c 1,24,-1
 360 261 l 1,25,26
 417 242 417 242 447.5 212.5 c 128,-1,27
 478 183 478 183 478 136 c 0,28,29
 478 76.3333 478 76.3333 421 32 c 0,30,31
 361.857 -14 361.857 -14 264.929 -14 c 128,-1,32
 168 -14 168 -14 109 28.5 c 128,-1,33
 50 71 50 71 49 148 c 1,0,-1
EndSplineSet
EndChar
StartChar: t
Encoding: 116 116 31
Width: 395
Flags: W
LayerCount: 2
Fore
SplineSet
32 407 m 1,0,-1
 32 486 l 1,1,-1
 100 486 l 1,2,-1
 100 614 l 1,3,-1
 218 614 l 1,4,-1
 218 486 l 1,5,-1
 350 486 l 1,6,-1
 350 407 l 1,7,-1
 218 407 l 1,8,-1
 218 139 l 2,9,10
 218 79 218 79 275 79 c 0,11,12
 304 79 304 79 350 95 c 1,13,-1
 367 12 l 1,14,15
 300.818 -14 300.818 -14 262.909 -14 c 128,-1,16
 225 -14 225 -14 196.5 -5 c 128,-1,17
 168 4 168 4 146.5 22.5 c 0,18,19
 100 62.5116 100 62.5116 100 135 c 2,20,-1
 100 407 l 1,21,-1
 32 407 l 1,0,-1
EndSplineSet
EndChar
StartChar: u
Encoding: 117 117 32
Width: 627
Flags: W
LayerCount: 2
Fore
SplineSet
416 88 m 1,0,1
 370.469 -9 370.469 -9 268 -9 c 0,2,3
 138.549 -9 138.549 -9 97.5 91.5 c 0,4,5
 83 127 83 127 83 177 c 2,6,-1
 83 487 l 1,7,-1
 201 487 l 1,8,-1
 201 189 l 2,9,10
 201 141 201 141 224 117.5 c 128,-1,11
 247 94 247 94 280.5 94 c 128,-1,12
 314 94 314 94 337 103.5 c 128,-1,13
 360 113 360 113 377 132.5 c 0,14,15
 414.107 175.064 414.107 175.064 416 247 c 1,16,-1
 416 487 l 1,17,-1
 534 487 l 1,18,-1
 534 0 l 1,19,-1
 416 0 l 1,20,-1
 416 88 l 1,0,1
EndSplineSet
EndChar
StartChar: v
Encoding: 118 118 33
Width: 519
Flags: W
LayerCount: 2
Fore
SplineSet
148 486 m 1,0,-1
 259 117 l 1,1,-1
 371 486 l 1,2,-1
 507 486 l 1,3,-1
 326 0 l 1,4,-1
 193 0 l 1,5,-1
 12 486 l 1,6,-1
 148 486 l 1,0,-1
EndSplineSet
EndChar
StartChar: w
Encoding: 119 119 34
Width: 758
Flags: W
LayerCount: 2
Fore
SplineSet
12 486 m 1,0,-1
 136 486 l 1,1,-1
 234 139 l 1,2,-1
 327 459 l 1,3,-1
 434 459 l 1,4,-1
 527 138 l 1,5,-1
 626 486 l 1,6,-1
 744 486 l 1,7,-1
 584 0 l 1,8,-1
 468 0 l 1,9,-1
 378 291 l 1,10,-1
 290 0 l 1,11,-1
 173 0 l 1,12,-1
 12 486 l 1,0,-1
EndSplineSet
EndChar
StartChar: x
Encoding: 120 120 35
Width: 554
Flags: W
LayerCount: 2
Fore
SplineSet
16 0 m 1,0,-1
 205 242 l 1,1,-1
 16 487 l 1,2,-1
 161 487 l 1,3,-1
 280 331 l 1,4,-1
 393 487 l 1,5,-1
 537 487 l 1,6,-1
 349 242 l 1,7,-1
 537 0 l 1,8,-1
 393 0 l 1,9,-1
 273 156 l 1,10,-1
 161 0 l 1,11,-1
 16 0 l 1,0,-1
EndSplineSet
EndChar
StartChar: z
Encoding: 122 122 37
Width: 495
Flags: W
LayerCount: 2
Fore
SplineSet
57 96 m 1,0,-1
 309 390 l 1,1,-1
 57 390 l 1,2,-1
 57 486 l 1,3,-1
 439 486 l 1,4,-1
 439 390 l 1,5,-1
 195 96 l 1,6,-1
 439 96 l 1,7,-1
 439 0 l 1,8,-1
 57 0 l 1,9,-1
 57 96 l 1,0,-1
EndSplineSet
EndChar
StartChar: braceleft
Encoding: 123 123 157
Width: 391
Flags: W
LayerCount: 2
Fore
SplineSet
387 -156 m 1,0,1
 255.791 -156 255.791 -156 189.5 -85.5 c 0,2,3
 129 -21.1587 129 -21.1587 129 96 c 2,4,-1
 129 187 l 2,5,6
 129 229 129 229 122.5 244.5 c 128,-1,7
 116 260 116 260 96 260 c 2,8,-1
 71 260 l 1,9,-1
 71 379 l 1,10,-1
 96 379 l 2,11,12
 116 379 116 379 122.5 394.5 c 128,-1,13
 129 410 129 410 129 452 c 2,14,-1
 129 544 l 2,15,16
 129 723.265 129 723.265 270 776.5 c 0,17,18
 319 795 319 795 387 795 c 1,19,-1
 387 688 l 1,20,21
 313 688 313 688 279.5 652.5 c 128,-1,22
 246 617 246 617 246 542 c 2,23,-1
 246 446 l 2,24,25
 246 398 246 398 227.5 367 c 128,-1,26
 209 336 209 336 180 322 c 1,27,-1
 180 317 l 1,28,29
 209 303 209 303 227.5 272 c 128,-1,30
 246 241 246 241 246 193 c 2,31,-1
 246 97 l 2,32,33
 246 22 246 22 279.5 -13.5 c 128,-1,34
 313 -49 313 -49 387 -49 c 1,35,-1
 387 -156 l 1,0,1
EndSplineSet
EndChar
StartChar: bar
Encoding: 124 124 152
Width: 304
Flags: W
LayerCount: 2
Fore
SplineSet
93 -122 m 1,0,-1
 93 771 l 1,1,-1
 211 771 l 1,2,-1
 211 -122 l 1,3,-1
 93 -122 l 1,0,-1
EndSplineSet
EndChar
StartChar: asciitilde
Encoding: 126 126 159
Width: 570
Flags: W
LayerCount: 2
Fore
SplineSet
57 238 m 1,0,1
 74 303 74 303 104.5 340.5 c 128,-1,2
 135 378 135 378 185 378 c 0,3,4
 219 378 219 378 274 357 c 0,5,6
 360.429 324 360.429 324 384 324 c 0,7,8
 425 324 425 324 449 380 c 1,9,-1
 513 339 l 1,10,11
 473.312 212 473.312 212 375 212 c 0,12,13
 342.067 212 342.067 212 273 240 c 1,14,15
 236 253 236 253 217.5 259 c 128,-1,16
 199 265 199 265 184 265 c 0,17,18
 145.879 265 145.879 265 120 204 c 1,19,-1
 57 238 l 1,0,1
EndSplineSet
EndChar
StartChar: sterling
Encoding: 163 163 95
Width: 602
Flags: W
LayerCount: 2
Fore
SplineSet
22 107 m 1,0,-1
 54 107 l 2,1,2
 91 107 91 107 106 128 c 128,-1,3
 121 149 121 149 121 194 c 2,4,-1
 121 281 l 1,5,-1
 38 281 l 1,6,-1
 38 360 l 1,7,-1
 121 360 l 1,8,-1
 121 444 l 2,9,10
 121 552 121 552 177 607 c 128,-1,11
 233 662 233 662 325 662 c 0,12,13
 493 662 493 662 517 487 c 1,14,-1
 401 487 l 1,15,16
 396 520 396 520 376 537.5 c 128,-1,17
 356 555 356 555 321.5 555 c 128,-1,18
 287 555 287 555 263 528 c 128,-1,19
 239 501 239 501 239 444 c 2,20,-1
 239 360 l 1,21,-1
 410 360 l 1,22,-1
 410 281 l 1,23,-1
 239 281 l 1,24,-1
 239 202 l 2,25,26
 239 137 239 137 203 107 c 1,27,-1
 339 107 l 2,28,29
 389 107 389 107 410.5 125.5 c 128,-1,30
 432 144 432 144 437 184 c 1,31,-1
 566 184 l 1,32,33
 561.812 91.8545 561.812 91.8545 512 48.5 c 0,34,35
 456.277 -1.42109e-014 456.277 -1.42109e-014 340 0 c 2,36,-1
 22 0 l 1,37,-1
 22 107 l 1,0,-1
EndSplineSet
EndChar
StartChar: yen
Encoding: 499 165 338
Width: 549
Flags: W
LayerCount: 2
Fore
SplineSet
10 629 m 1,11,-1
 104 629 l 1,12,-1
 273 340 l 1,13,-1
 446 629 l 1,14,-1
 539 629 l 1,15,-1
 313 258 l 1,16,-1
 313 0 l 1,17,-1
 233 0 l 1,18,-1
 233 258 l 1,19,-1
 10 629 l 1,11,-1
57 329 m 1,4,-1
 57 404 l 1,5,-1
 174 404 l 1,6,-1
 274 332 l 1,7,-1
 358 404 l 1,8,-1
 492 404 l 1,9,-1
 492 329 l 1,10,-1
 57 329 l 1,4,-1
74 180 m 1,0,-1
 74 255 l 1,1,-1
 477 255 l 1,2,-1
 477 180 l 1,3,-1
 74 180 l 1,0,-1
EndSplineSet
EndChar
StartChar: dieresis
Encoding: 168 168 128
Width: 382
Flags: W
LayerCount: 2
Back
Fore
SplineSet
217 836 m 128,-1,1
 217 865 217 865 237 884 c 128,-1,2
 257 903 257 903 287.5 903 c 128,-1,3
 318 903 318 903 338 884 c 128,-1,4
 358 865 358 865 358 836 c 128,-1,5
 358 807 358 807 338 789 c 128,-1,6
 318 771 318 771 287.5 771 c 128,-1,7
 257 771 257 771 237 789 c 128,-1,0
 217 807 217 807 217 836 c 128,-1,1
43.5 788.5 m 128,-1,9
 24 807 24 807 24 835.5 c 128,-1,10
 24 864 24 864 43.5 883 c 128,-1,11
 63 902 63 902 94 902 c 128,-1,12
 125 902 125 902 145 883 c 128,-1,13
 165 864 165 864 165 835.5 c 128,-1,14
 165 807 165 807 145 788.5 c 128,-1,15
 125 770 125 770 94 770 c 128,-1,8
 63 770 63 770 43.5 788.5 c 128,-1,9
EndSplineSet
EndChar
StartChar: guillemotleft
Encoding: 344 171 183
Width: 507
Flags: W
LayerCount: 2
Fore
SplineSet
30 233 m 1,6,-1
 176 429 l 1,7,-1
 285 429 l 1,8,-1
 147 233 l 1,9,-1
 285 37 l 1,10,-1
 176 37 l 1,11,-1
 30 233 l 1,6,-1
222 233 m 1,0,-1
 368 429 l 1,1,-1
 477 429 l 1,2,-1
 339 233 l 1,3,-1
 477 37 l 1,4,-1
 368 37 l 1,5,-1
 222 233 l 1,0,-1
EndSplineSet
EndChar
StartChar: registered
Encoding: 501 174 340
Width: 765
Flags: W
LayerCount: 2
Fore
SplineSet
33.9521484375 340.685546875 m 0
 33.9521484375 484.745117188 33.9521484375 484.745117188 135.223632812 584.591796875 c 0
 236.494140625 684.4375 236.494140625 684.4375 379.12890625 684.4375 c 0
 520.338867188 684.4375 520.338867188 684.4375 622.322265625 583.87890625 c 0
 724.306640625 483.321289062 724.306640625 483.321289062 724.306640625 340.685546875 c 0
 724.306640625 198.05078125 724.306640625 198.05078125 623.03515625 96.779296875 c 0
 521.763671875 -4.4921875 521.763671875 -4.4921875 379.12890625 -4.4921875 c 0
 236.494140625 -4.4921875 236.494140625 -4.4921875 135.223632812 96.779296875 c 0
 33.9521484375 198.05078125 33.9521484375 198.05078125 33.9521484375 340.685546875 c 0
78.7197265625 342.971679688 m 0
 78 219 78 219 163.770507812 128.110351562 c 0
 250 36 250 36 380.869140625 36.3447265625 c 0
 511 37 511 37 595.732421875 126.991210938 c 0
 681 218 681 218 680.780273438 342.971679688 c 0
 681 468 681 468 593.494140625 555.596679688 c 0
 506 643 506 643 380.869140625 642.885742188 c 0
 253 643 253 643 166.005859375 555.596679688 c 0
 79 469 79 469 78.7197265625 342.971679688 c 0
EndSplineSet
Refer: 55 82 N 0.688656 0 0 0.685406 169.298 121.992 2
EndChar
StartChar: macron
Encoding: 175 175 270
Width: 373
Flags: W
LayerCount: 2
Fore
SplineSet
21 800 m 1,0,-1
 21 890 l 1,1,-1
 354 890 l 1,2,-1
 354 800 l 1,3,-1
 21 800 l 1,0,-1
EndSplineSet
EndChar
StartChar: plusminus
Encoding: 177 177 205
Width: 544
Flags: W
LayerCount: 2
Back
Fore
SplineSet
331 685 m 1,0,-1
 331 491 l 1,1,-1
 526 491 l 1,2,-1
 526 388 l 1,3,-1
 331 388 l 1,4,-1
 331 194 l 1,5,-1
 213 194 l 1,6,-1
 213 388 l 1,7,-1
 18 388 l 1,8,-1
 18 491 l 1,9,-1
 213 491 l 1,10,-1
 213 685 l 1,11,-1
 331 685 l 1,0,-1
EndSplineSet
Refer: 8 45 N 1 0 0 1 81 -248 2
EndChar
StartChar: periodcentered
Encoding: 183 183 301
Width: 264
Flags: W
LayerCount: 2
Back
Fore
SplineSet
55.7998046875 277.559570312 m 128,-1,1
 27.2802734375 304.83984375 27.2802734375 304.83984375 27.2802734375 347 c 128,-1,2
 27.2802734375 389.16015625 27.2802734375 389.16015625 55.7998046875 417.6796875 c 128,-1,3
 84.3203125 446.200195312 84.3203125 446.200195312 128.959960938 446.200195312 c 128,-1,4
 173.599609375 446.200195312 173.599609375 446.200195312 203.360351562 417.6796875 c 128,-1,5
 233.120117188 389.16015625 233.120117188 389.16015625 233.120117188 347 c 128,-1,6
 233.120117188 304.83984375 233.120117188 304.83984375 203.360351562 277.559570312 c 128,-1,7
 173.599609375 250.280273438 173.599609375 250.280273438 128.959960938 250.280273438 c 128,-1,0
 84.3203125 250.280273438 84.3203125 250.280273438 55.7998046875 277.559570312 c 128,-1,1
EndSplineSet
EndChar
StartChar: cedilla
Encoding: 327 184 166
Width: 682
VWidth: 2048
Flags: W
LayerCount: 2
Back
SplineSet
307 -105 m 132,-1,1
 307 -100 307 -100 300 -94.5 c 132,-1,2
 293 -89 293 -89 281 -89 c 6,3,-1
 232 -89 l 5,4,-1
 244 0 l 5,5,-1
 324 0 l 5,6,-1
 320 -31 l 5,7,8
 358 -35 358 -35 378 -54 c 132,-1,9
 398 -73 398 -73 398 -102 c 4,10,11
 398 -118 398 -118 390 -133.5 c 132,-1,12
 382 -149 382 -149 366.5 -161.5 c 132,-1,13
 351 -174 351 -174 327 -182 c 132,-1,14
 303 -190 303 -190 270 -190 c 4,15,16
 238 -190 238 -190 206 -179.5 c 132,-1,17
 174 -169 174 -169 144 -144 c 5,18,-1
 181 -81 l 5,19,20
 196 -93 196 -93 208.5 -101 c 132,-1,21
 221 -109 221 -109 233.5 -114 c 132,-1,22
 246 -119 246 -119 258 -120.5 c 132,-1,23
 270 -122 270 -122 282 -122 c 4,24,25
 296 -122 296 -122 301.5 -116 c 132,-1,0
 307 -110 307 -110 307 -105 c 132,-1,1
EndSplineSet
Fore
SplineSet
196.514 -134.107 m 1,0,1
 213.999 -137.224 213.999 -137.224 238.478 -137.224 c 0,2,3
 306.919 -137.224 306.919 -137.224 306.919 -106.501 c 0,4,5
 306.919 -90.918 306.919 -90.918 292.932 -83.3486 c 128,-1,6
 278.943 -75.7793 278.943 -75.7793 245.972 -75.7793 c 0,7,8
 226.987 -75.7793 226.987 -75.7793 219.993 -76.6699 c 1,9,-1
 250.967 -0.0859375 l 1,10,-1
 322.406 -0.0859375 l 1,11,-1
 305.92 -36.5967 l 1,12,13
 352.88 -38.8232 352.88 -38.8232 375.61 -57.0781 c 128,-1,14
 398.341 -75.334 398.341 -75.334 398.341 -104.721 c 0,15,16
 398.341 -146.574 398.341 -146.574 359.374 -167.946 c 128,-1,17
 320.408 -189.318 320.408 -189.318 246.971 -189.318 c 0,18,19
 224.49 -189.318 224.49 -189.318 196.514 -186.646 c 1,20,-1
 196.514 -134.107 l 1,0,1
EndSplineSet
EndChar
StartChar: guillemotright
Encoding: 187 187 184
Width: 507
Flags: W
LayerCount: 2
Fore
SplineSet
139 429 m 1,0,-1
 30 429 l 1,1,-1
 168 233 l 1,2,-1
 30 37 l 1,3,-1
 139 37 l 1,4,-1
 285 233 l 1,5,-1
 139 429 l 1,0,-1
331 429 m 1,6,-1
 222 429 l 1,7,-1
 360 233 l 1,8,-1
 222 37 l 1,9,-1
 331 37 l 1,10,-1
 477 233 l 1,11,-1
 331 429 l 1,6,-1
EndSplineSet
EndChar
StartChar: Agrave
Encoding: 192 192 101
Width: 626
Flags: W
LayerCount: 2
Fore
SplineSet
223 229 m 1,0,-1
 405 229 l 1,1,-1
 315 508 l 1,2,-1
 223 229 l 1,0,-1
205 900 m 1,3,-1
 472 768 l 1,4,-1
 442 694 l 1,5,-1
 163 798 l 1,6,-1
 205 900 l 1,3,-1
243 649 m 1,7,-1
 391 649 l 1,8,-1
 604 0 l 1,9,-1
 479 0 l 1,10,-1
 434 140 l 1,11,-1
 193 140 l 1,12,-1
 147 0 l 1,13,-1
 22 0 l 1,14,-1
 243 649 l 1,7,-1
EndSplineSet
EndChar
StartChar: Aacute
Encoding: 193 193 107
Width: 626
Flags: W
LayerCount: 2
Back
Fore
SplineSet
223 229 m 1,0,-1
 405 229 l 1,1,-1
 315 508 l 1,2,-1
 223 229 l 1,0,-1
471 798 m 1,3,-1
 192 694 l 1,4,-1
 162 768 l 1,5,-1
 429 900 l 1,6,-1
 471 798 l 1,3,-1
243 649 m 1,7,-1
 391 649 l 1,8,-1
 604 0 l 1,9,-1
 479 0 l 1,10,-1
 434 140 l 1,11,-1
 193 140 l 1,12,-1
 147 0 l 1,13,-1
 22 0 l 1,14,-1
 243 649 l 1,7,-1
EndSplineSet
EndChar
StartChar: Acircumflex
Encoding: 299 194 120
Width: 626
Flags: W
LayerCount: 2
Fore
SplineSet
22 0 m 1,9,-1
 243 649 l 1,10,-1
 391 649 l 1,11,-1
 604 0 l 1,12,-1
 479 0 l 1,13,-1
 434 140 l 1,14,-1
 193 140 l 1,15,-1
 147 0 l 1,16,-1
 22 0 l 1,9,-1
107 752 m 1,3,-1
 316 913 l 1,4,-1
 524 752 l 1,5,-1
 449 693 l 1,6,-1
 316 794 l 1,7,-1
 182 693 l 1,8,-1
 107 752 l 1,3,-1
223 229 m 1,0,-1
 405 229 l 1,1,-1
 315 508 l 1,2,-1
 223 229 l 1,0,-1
EndSplineSet
EndChar
StartChar: Atilde
Encoding: 195 195 163
Width: 626
Flags: W
LayerCount: 2
Back
Fore
SplineSet
223 229 m 1,0,-1
 405 229 l 1,1,-1
 315 508 l 1,2,-1
 223 229 l 1,0,-1
386 838 m 0,3,4
 418.269 838 418.269 838 439 887 c 1,5,-1
 489 854 l 1,6,7
 478 800 478 800 449.5 765.5 c 128,-1,8
 421 731 421 731 389 731 c 0,9,10
 371 731 371 731 353.5 738 c 128,-1,11
 336 745 336 745 309.5 758.5 c 0,12,13
 265.333 781 265.333 781 249.167 781 c 0,14,15
 214.138 781 214.138 781 190 731 c 1,16,-1
 143 759 l 1,17,18
 155 820 155 820 183.5 853.5 c 128,-1,19
 212 887 212 887 250 887 c 0,20,21
 276.714 887 276.714 887 312.857 868.5 c 128,-1,22
 349 850 349 850 361.5 844 c 128,-1,23
 374 838 374 838 386 838 c 0,3,4
243 649 m 1,24,-1
 391 649 l 1,25,-1
 604 0 l 1,26,-1
 479 0 l 1,27,-1
 434 140 l 1,28,-1
 193 140 l 1,29,-1
 147 0 l 1,30,-1
 22 0 l 1,31,-1
 243 649 l 1,24,-1
EndSplineSet
EndChar
StartChar: Adieresis
Encoding: 310 196 133
Width: 626
Flags: W
LayerCount: 2
Fore
SplineSet
22 0 m 1,19,-1
 243 649 l 1,20,-1
 391 649 l 1,21,-1
 604 0 l 1,22,-1
 479 0 l 1,23,-1
 434 140 l 1,24,-1
 193 140 l 1,25,-1
 147 0 l 1,26,-1
 22 0 l 1,19,-1
149 814.5 m 128,-1,9
 149 843 149 843 168.5 862 c 128,-1,10
 188 881 188 881 219 881 c 128,-1,11
 250 881 250 881 270 862 c 128,-1,12
 290 843 290 843 290 814.5 c 128,-1,13
 290 786 290 786 270 767.5 c 128,-1,14
 250 749 250 749 219 749 c 128,-1,15
 188 749 188 749 168.5 767.5 c 128,-1,8
 149 786 149 786 149 814.5 c 128,-1,9
223 229 m 1,16,-1
 405 229 l 1,17,-1
 315 508 l 1,18,-1
 223 229 l 1,16,-1
342 815 m 128,-1,1
 342 844 342 844 362 863 c 128,-1,2
 382 882 382 882 412.5 882 c 128,-1,3
 443 882 443 882 463 863 c 128,-1,4
 483 844 483 844 483 815 c 128,-1,5
 483 786 483 786 463 768 c 128,-1,6
 443 750 443 750 412.5 750 c 128,-1,7
 382 750 382 750 362 768 c 128,-1,0
 342 786 342 786 342 815 c 128,-1,1
EndSplineSet
EndChar
StartChar: AE
Encoding: 198 198 297
Width: 856
Flags: W
LayerCount: 2
Back
Fore
SplineSet
361 229 m 1,0,-1
 361 547 l 1,1,-1
 321 547 l 1,2,-1
 223 229 l 1,3,-1
 361 229 l 1,0,-1
361 140 m 1,4,-1
 193 140 l 1,5,-1
 147 0 l 1,6,-1
 22 0 l 1,7,-1
 243 649 l 1,8,-1
 779 649 l 1,9,-1
 779 547 l 1,10,-1
 479 547 l 1,11,-1
 479 376 l 1,12,-1
 760 376 l 1,13,-1
 760 274 l 1,14,-1
 479 274 l 1,15,-1
 479 103 l 1,16,-1
 779 103 l 1,17,-1
 779 0 l 1,18,-1
 361 0 l 1,19,-1
 361 140 l 1,4,-1
EndSplineSet
EndChar
StartChar: Ccedilla
Encoding: 199 199 170
Width: 634
VWidth: 0
LayerCount: 2
Back
Fore
SplineSet
443.341 -112.388 m 0,0,1
 443.341 -154.24 443.341 -154.24 404.374 -175.612 c 128,-1,2
 365.408 -196.984 365.408 -196.984 291.971 -196.984 c 0,3,4
 269.49 -196.984 269.49 -196.984 241.514 -194.312 c 1,5,-1
 241.514 -141.773 l 1,6,7
 258.999 -144.891 258.999 -144.891 283.478 -144.891 c 0,8,9
 351.919 -144.891 351.919 -144.891 351.919 -114.168 c 0,10,11
 351.919 -98.585 351.919 -98.585 337.932 -91.0156 c 128,-1,12
 323.943 -83.4463 323.943 -83.4463 290.972 -83.4463 c 0,13,14
 271.987 -83.4463 271.987 -83.4463 264.993 -84.3369 c 1,15,-1
 294.141 -12.2668 l 1,16,17
 189.179 -1.51046 189.179 -1.51046 124 76 c 0,18,19
 47 167.568 47 167.568 47 326 c 0,20,21
 47 486.4 47 486.4 126.5 576.5 c 0,22,23
 201.941 662 201.941 662 326.5 662 c 0,24,25
 386 662 386 662 430 647.5 c 128,-1,26
 474 633 474 633 506 607 c 0,27,28
 569.264 555.598 569.264 555.598 588 464 c 1,29,-1
 462 441 l 1,30,31
 446 492 446 492 412.5 523.5 c 128,-1,32
 379 555 379 555 329 555 c 0,33,34
 261.368 555 261.368 555 219 497.5 c 0,35,36
 174 436.429 174 436.429 174 326.714 c 128,-1,37
 174 217 174 217 214 155.5 c 128,-1,38
 254 94 254 94 323 94 c 128,-1,39
 392 94 392 94 427 127.5 c 128,-1,40
 462 161 462 161 462 214 c 1,41,-1
 589 214 l 1,42,43
 589 105 589 105 519.5 45.5 c 0,44,45
 460.759 -4.78893 460.759 -4.78893 365.229 -12.5741 c 1,46,-1
 350.92 -44.2637 l 1,47,48
 397.88 -46.4902 397.88 -46.4902 420.61 -64.7451 c 128,-1,49
 443.341 -83.001 443.341 -83.001 443.341 -112.388 c 0,0,1
EndSplineSet
EndChar
StartChar: Egrave
Encoding: 281 200 102
Width: 588
Flags: W
LayerCount: 2
Fore
SplineSet
92 0 m 1,4,-1
 92 649 l 1,5,-1
 510 649 l 1,6,-1
 510 547 l 1,7,-1
 210 547 l 1,8,-1
 210 376 l 1,9,-1
 491 376 l 1,10,-1
 491 274 l 1,11,-1
 210 274 l 1,12,-1
 210 103 l 1,13,-1
 510 103 l 1,14,-1
 510 0 l 1,15,-1
 92 0 l 1,4,-1
148 798 m 1,0,-1
 190 900 l 1,1,-1
 457 768 l 1,2,-1
 427 694 l 1,3,-1
 148 798 l 1,0,-1
EndSplineSet
EndChar
StartChar: Ecircumflex
Encoding: 202 202 121
Width: 588
Flags: W
LayerCount: 2
Fore
SplineSet
520 752 m 1,0,-1
 445 693 l 1,1,-1
 312 794 l 1,2,-1
 178 693 l 1,3,-1
 103 752 l 1,4,-1
 312 913 l 1,5,-1
 520 752 l 1,0,-1
102 649 m 1,6,-1
 520 649 l 1,7,-1
 520 547 l 1,8,-1
 220 547 l 1,9,-1
 220 376 l 1,10,-1
 501 376 l 1,11,-1
 501 274 l 1,12,-1
 220 274 l 1,13,-1
 220 103 l 1,14,-1
 520 103 l 1,15,-1
 520 0 l 1,16,-1
 102 0 l 1,17,-1
 102 649 l 1,6,-1
EndSplineSet
EndChar
StartChar: Edieresis
Encoding: 311 203 134
Width: 588
Flags: W
LayerCount: 2
Fore
SplineSet
92 0 m 1,16,-1
 92 649 l 1,17,-1
 510 649 l 1,18,-1
 510 547 l 1,19,-1
 210 547 l 1,20,-1
 210 376 l 1,21,-1
 491 376 l 1,22,-1
 491 274 l 1,23,-1
 210 274 l 1,24,-1
 210 103 l 1,25,-1
 510 103 l 1,26,-1
 510 0 l 1,27,-1
 92 0 l 1,16,-1
135 814.5 m 128,-1,9
 135 843 135 843 154.5 862 c 128,-1,10
 174 881 174 881 205 881 c 128,-1,11
 236 881 236 881 256 862 c 128,-1,12
 276 843 276 843 276 814.5 c 128,-1,13
 276 786 276 786 256 767.5 c 128,-1,14
 236 749 236 749 205 749 c 128,-1,15
 174 749 174 749 154.5 767.5 c 128,-1,8
 135 786 135 786 135 814.5 c 128,-1,9
328 815 m 128,-1,1
 328 844 328 844 348 863 c 128,-1,2
 368 882 368 882 398.5 882 c 128,-1,3
 429 882 429 882 449 863 c 128,-1,4
 469 844 469 844 469 815 c 128,-1,5
 469 786 469 786 449 768 c 128,-1,6
 429 750 429 750 398.5 750 c 128,-1,7
 368 750 368 750 348 768 c 128,-1,0
 328 786 328 786 328 815 c 128,-1,1
EndSplineSet
EndChar
StartChar: Igrave
Encoding: 204 204 109
Width: 304
Flags: W
LayerCount: 2
Fore
SplineSet
41 900 m 1,0,-1
 308 768 l 1,1,-1
 278 694 l 1,2,-1
 -1 798 l 1,3,-1
 41 900 l 1,0,-1
93 649 m 1,4,-1
 211 649 l 1,5,-1
 211 0 l 1,6,-1
 93 0 l 1,7,-1
 93 649 l 1,4,-1
EndSplineSet
EndChar
StartChar: Icircumflex
Encoding: 206 206 122
Width: 304
Flags: W
LayerCount: 2
Fore
SplineSet
361 752 m 1,0,-1
 286 693 l 1,1,-1
 153 794 l 1,2,-1
 19 693 l 1,3,-1
 -56 752 l 1,4,-1
 153 913 l 1,5,-1
 361 752 l 1,0,-1
93 649 m 1,6,-1
 211 649 l 1,7,-1
 211 0 l 1,8,-1
 93 0 l 1,9,-1
 93 649 l 1,6,-1
EndSplineSet
EndChar
StartChar: Idieresis
Encoding: 207 207 135
Width: 304
Flags: W
LayerCount: 2
Fore
SplineSet
179 815 m 128,-1,1
 179 844 179 844 199 863 c 128,-1,2
 219 882 219 882 249.5 882 c 128,-1,3
 280 882 280 882 300 863 c 128,-1,4
 320 844 320 844 320 815 c 128,-1,5
 320 786 320 786 300 768 c 128,-1,6
 280 750 280 750 249.5 750 c 128,-1,7
 219 750 219 750 199 768 c 128,-1,0
 179 786 179 786 179 815 c 128,-1,1
5.5 767.5 m 128,-1,9
 -14 786 -14 786 -14 814.5 c 128,-1,10
 -14 843 -14 843 5.5 862 c 128,-1,11
 25 881 25 881 56 881 c 128,-1,12
 87 881 87 881 107 862 c 128,-1,13
 127 843 127 843 127 814.5 c 128,-1,14
 127 786 127 786 107 767.5 c 128,-1,15
 87 749 87 749 56 749 c 128,-1,8
 25 749 25 749 5.5 767.5 c 128,-1,9
93 649 m 1,16,-1
 211 649 l 1,17,-1
 211 0 l 1,18,-1
 93 0 l 1,19,-1
 93 649 l 1,16,-1
EndSplineSet
EndChar
StartChar: Eth
Encoding: 208 208 302
Width: 686
VWidth: 0
Flags: W
LayerCount: 2
Back
Fore
SplineSet
22 288 m 257,0,-1
 343 288 l 257,1,-1
 343 358 l 257,2,-1
 22 358 l 257,3,-1
 22 288 l 257,0,-1
92 649 m 257,4,-1
 92 0 l 257,5,-1
 303 0 l 258,6,7
 452 0 452 0 543 88.5 c 128,-1,8
 634 177 634 177 634 324 c 0,9,10
 634 472 634 472 543 560.5 c 128,-1,11
 452 649 452 649 303 649 c 2,12,-1
 92 649 l 257,4,-1
211 542 m 257,13,-1
 303 542 l 258,14,15
 396 542 396 542 451 481.5 c 128,-1,16
 506 421 506 421 506 324 c 0,17,18
 506 228 506 228 451 167.5 c 128,-1,19
 396 107 396 107 303 107 c 2,20,-1
 211 107 l 257,21,-1
 211 542 l 257,13,-1
EndSplineSet
EndChar
StartChar: Ntilde
Encoding: 325 209 164
Width: 720
Flags: W
LayerCount: 2
Fore
SplineSet
91 0 m 1,21,-1
 209 0 l 1,22,-1
 209 476 l 1,23,-1
 504 0 l 1,24,-1
 624 0 l 1,25,-1
 624 649 l 1,26,-1
 506 649 l 1,27,-1
 506 189 l 1,28,-1
 220 649 l 1,29,-1
 91 649 l 1,30,-1
 91 0 l 1,21,-1
186 759 m 1,0,1
 198 820 198 820 226.5 853.5 c 128,-1,2
 255 887 255 887 293 887 c 0,3,4
 319.714 887 319.714 887 355.857 868.5 c 128,-1,5
 392 850 392 850 404.5 844 c 128,-1,6
 417 838 417 838 429 838 c 0,7,8
 461.269 838 461.269 838 482 887 c 1,9,-1
 532 854 l 1,10,11
 521 800 521 800 492.5 765.5 c 128,-1,12
 464 731 464 731 432 731 c 0,13,14
 414 731 414 731 396.5 738 c 128,-1,15
 379 745 379 745 352.5 758.5 c 0,16,17
 308.333 781 308.333 781 292.167 781 c 0,18,19
 257.138 781 257.138 781 233 731 c 1,20,-1
 186 759 l 1,0,1
EndSplineSet
EndChar
StartChar: Ograve
Encoding: 210 210 111
Width: 683
Flags: W
LayerCount: 2
Back
Fore
SplineSet
228 900 m 1,0,-1
 495 768 l 1,1,-1
 465 694 l 1,2,-1
 186 798 l 1,3,-1
 228 900 l 1,0,-1
467.5 495.5 m 128,-1,5
 421 556 421 556 342 556 c 128,-1,6
 263 556 263 556 216 495.5 c 128,-1,7
 169 435 169 435 169 323.5 c 128,-1,8
 169 212 169 212 216 152.5 c 128,-1,9
 263 93 263 93 342 93 c 128,-1,10
 421 93 421 93 467.5 152.5 c 128,-1,11
 514 212 514 212 514 323.5 c 128,-1,4
 514 435 514 435 467.5 495.5 c 128,-1,5
341.5 662 m 0,12,13
 407 662 407 662 461 640.5 c 128,-1,14
 515 619 515 619 554 577 c 0,15,16
 636 488.692 636 488.692 636 325 c 0,17,18
 636 159.859 636 159.859 554 70.5 c 0,19,20
 476.459 -14 476.459 -14 341 -14 c 0,21,22
 207.459 -14 207.459 -14 129 71.5 c 0,23,24
 47 160.859 47 160.859 47 325 c 0,25,26
 47 490.692 47 490.692 129 579 c 0,27,28
 206.071 662 206.071 662 341.5 662 c 0,12,13
EndSplineSet
EndChar
StartChar: Ocircumflex
Encoding: 212 212 123
Width: 683
Flags: W
LayerCount: 2
Fore
SplineSet
549 752 m 1,0,-1
 474 693 l 1,1,-1
 341 794 l 1,2,-1
 207 693 l 1,3,-1
 132 752 l 1,4,-1
 341 913 l 1,5,-1
 549 752 l 1,0,-1
467.5 495.5 m 128,-1,7
 421 556 421 556 342 556 c 128,-1,8
 263 556 263 556 216 495.5 c 128,-1,9
 169 435 169 435 169 323.5 c 128,-1,10
 169 212 169 212 216 152.5 c 128,-1,11
 263 93 263 93 342 93 c 128,-1,12
 421 93 421 93 467.5 152.5 c 128,-1,13
 514 212 514 212 514 323.5 c 128,-1,6
 514 435 514 435 467.5 495.5 c 128,-1,7
341.5 662 m 0,14,15
 407 662 407 662 461 640.5 c 128,-1,16
 515 619 515 619 554 577 c 0,17,18
 636 488.692 636 488.692 636 325 c 0,19,20
 636 159.859 636 159.859 554 70.5 c 0,21,22
 476.459 -14 476.459 -14 341 -14 c 0,23,24
 207.459 -14 207.459 -14 129 71.5 c 0,25,26
 47 160.859 47 160.859 47 325 c 0,27,28
 47 490.692 47 490.692 129 579 c 0,29,30
 206.071 662 206.071 662 341.5 662 c 0,14,15
EndSplineSet
EndChar
StartChar: Otilde
Encoding: 213 213 165
Width: 683
Flags: W
LayerCount: 2
Back
Fore
SplineSet
411 838 m 0,0,1
 443.269 838 443.269 838 464 887 c 1,2,-1
 514 854 l 1,3,4
 503 800 503 800 474.5 765.5 c 128,-1,5
 446 731 446 731 414 731 c 0,6,7
 396 731 396 731 378.5 738 c 128,-1,8
 361 745 361 745 334.5 758.5 c 0,9,10
 290.333 781 290.333 781 274.167 781 c 0,11,12
 239.138 781 239.138 781 215 731 c 1,13,-1
 168 759 l 1,14,15
 180 820 180 820 208.5 853.5 c 128,-1,16
 237 887 237 887 275 887 c 0,17,18
 301.714 887 301.714 887 337.857 868.5 c 128,-1,19
 374 850 374 850 386.5 844 c 128,-1,20
 399 838 399 838 411 838 c 0,0,1
216 495.5 m 128,-1,22
 263 556 263 556 342 556 c 128,-1,23
 421 556 421 556 467.5 495.5 c 128,-1,24
 514 435 514 435 514 323.5 c 128,-1,25
 514 212 514 212 467.5 152.5 c 128,-1,26
 421 93 421 93 342 93 c 128,-1,27
 263 93 263 93 216 152.5 c 128,-1,28
 169 212 169 212 169 323.5 c 128,-1,21
 169 435 169 435 216 495.5 c 128,-1,22
341.5 662 m 0,29,30
 276 662 276 662 222 641.5 c 128,-1,31
 168 621 168 621 129 579 c 0,32,33
 47 490.692 47 490.692 47 325 c 0,34,35
 47 160.859 47 160.859 129 71.5 c 0,36,37
 207.459 -14 207.459 -14 341 -14 c 0,38,39
 476.459 -14 476.459 -14 554 70.5 c 0,40,41
 636 159.859 636 159.859 636 325 c 0,42,43
 636 488.692 636 488.692 554 577 c 0,44,45
 475.071 662 475.071 662 341.5 662 c 0,29,30
EndSplineSet
EndChar
StartChar: Odieresis
Encoding: 214 214 136
Width: 683
Flags: W
LayerCount: 2
Fore
SplineSet
47 325 m 0,24,25
 47 490.692 47 490.692 129 579 c 0,26,27
 206.071 662 206.071 662 341.5 662 c 0,28,29
 407 662 407 662 461 640.5 c 128,-1,30
 515 619 515 619 554 577 c 0,31,32
 636 488.692 636 488.692 636 325 c 0,33,34
 636 159.859 636 159.859 554 70.5 c 0,35,36
 476.459 -14 476.459 -14 341 -14 c 0,37,38
 207.459 -14 207.459 -14 129 71.5 c 0,39,40
 47 160.859 47 160.859 47 325 c 0,24,25
169 323.5 m 128,-1,17
 169 212 169 212 216 152.5 c 128,-1,18
 263 93 263 93 342 93 c 128,-1,19
 421 93 421 93 467.5 152.5 c 128,-1,20
 514 212 514 212 514 323.5 c 128,-1,21
 514 435 514 435 467.5 495.5 c 128,-1,22
 421 556 421 556 342 556 c 128,-1,23
 263 556 263 556 216 495.5 c 128,-1,16
 169 435 169 435 169 323.5 c 128,-1,17
174 814.5 m 128,-1,9
 174 843 174 843 193.5 862 c 128,-1,10
 213 881 213 881 244 881 c 128,-1,11
 275 881 275 881 295 862 c 128,-1,12
 315 843 315 843 315 814.5 c 128,-1,13
 315 786 315 786 295 767.5 c 128,-1,14
 275 749 275 749 244 749 c 128,-1,15
 213 749 213 749 193.5 767.5 c 128,-1,8
 174 786 174 786 174 814.5 c 128,-1,9
367 815 m 128,-1,1
 367 844 367 844 387 863 c 128,-1,2
 407 882 407 882 437.5 882 c 128,-1,3
 468 882 468 882 488 863 c 128,-1,4
 508 844 508 844 508 815 c 128,-1,5
 508 786 508 786 488 768 c 128,-1,6
 468 750 468 750 437.5 750 c 128,-1,7
 407 750 407 750 387 768 c 128,-1,0
 367 786 367 786 367 815 c 128,-1,1
EndSplineSet
EndChar
StartChar: multiply
Encoding: 215 215 196
Width: 554
Flags: W
LayerCount: 2
Fore
SplineSet
537 460 m 1,0,-1
 459 538 l 1,1,-1
 276.5 355.5 l 1,2,-1
 94 538 l 1,3,-1
 16 460 l 1,4,-1
 198.5 277.5 l 1,5,-1
 16 95 l 1,6,-1
 94 17 l 1,7,-1
 276.5 199.5 l 1,8,-1
 459 17 l 1,9,-1
 537 95 l 1,10,-1
 354.5 277.5 l 1,11,-1
 537 460 l 1,0,-1
EndSplineSet
EndChar
StartChar: Oslash
Encoding: 216 216 296
Width: 683
Flags: W
LayerCount: 2
Fore
SplineSet
-10.6494140625 54.943359375 m 1,0,-1
 618.435546875 667.6015625 l 1,1,-1
 688.581054688 594.888671875 l 1,2,-1
 59.49609375 -17.76953125 l 1,3,-1
 -10.6494140625 54.943359375 l 1,0,-1
47 325 m 0,12,13
 47 490.692 47 490.692 129 579 c 0,14,15
 206.071 662 206.071 662 341.5 662 c 0,16,17
 407 662 407 662 461 640.5 c 128,-1,18
 515 619 515 619 554 577 c 0,19,20
 636 488.692 636 488.692 636 325 c 0,21,22
 636 159.859 636 159.859 554 70.5 c 0,23,24
 476.459 -14 476.459 -14 341 -14 c 0,25,26
 207.459 -14 207.459 -14 129 71.5 c 0,27,28
 47 160.859 47 160.859 47 325 c 0,12,13
169 323.5 m 128,-1,5
 169 212 169 212 216 152.5 c 128,-1,6
 263 93 263 93 342 93 c 128,-1,7
 421 93 421 93 467.5 152.5 c 128,-1,8
 514 212 514 212 514 323.5 c 128,-1,9
 514 435 514 435 467.5 495.5 c 128,-1,10
 421 556 421 556 342 556 c 128,-1,11
 263 556 263 556 216 495.5 c 128,-1,4
 169 435 169 435 169 323.5 c 128,-1,5
EndSplineSet
EndChar
StartChar: Ugrave
Encoding: 217 217 113
Width: 690
Flags: W
LayerCount: 2
Back
Fore
SplineSet
233 900 m 1,0,-1
 500 768 l 1,1,-1
 470 694 l 1,2,-1
 191 798 l 1,3,-1
 233 900 l 1,0,-1
201 649 m 1,4,-1
 201 245 l 2,5,6
 201 165 201 165 241.5 130 c 128,-1,7
 282 95 282 95 346 95 c 128,-1,8
 410 95 410 95 450.5 130 c 128,-1,9
 491 165 491 165 491 245 c 2,10,-1
 491 649 l 1,11,-1
 609 649 l 1,12,-1
 609 245 l 2,13,14
 609 121 609 121 540 53.5 c 128,-1,15
 471 -14 471 -14 346 -14 c 128,-1,16
 221 -14 221 -14 152 53.5 c 128,-1,17
 83 121 83 121 83 245 c 2,18,-1
 83 649 l 1,19,-1
 201 649 l 1,4,-1
EndSplineSet
EndChar
StartChar: Ucircumflex
Encoding: 219 219 124
Width: 690
Flags: W
LayerCount: 2
Back
Fore
SplineSet
554 752 m 1,0,-1
 479 693 l 1,1,-1
 346 794 l 1,2,-1
 212 693 l 1,3,-1
 137 752 l 1,4,-1
 346 913 l 1,5,-1
 554 752 l 1,0,-1
201 649 m 1,6,-1
 201 245 l 2,7,8
 201 165 201 165 241.5 130 c 128,-1,9
 282 95 282 95 346 95 c 128,-1,10
 410 95 410 95 450.5 130 c 128,-1,11
 491 165 491 165 491 245 c 2,12,-1
 491 649 l 1,13,-1
 609 649 l 1,14,-1
 609 245 l 2,15,16
 609 121 609 121 540 53.5 c 128,-1,17
 471 -14 471 -14 346 -14 c 128,-1,18
 221 -14 221 -14 152 53.5 c 128,-1,19
 83 121 83 121 83 245 c 2,20,-1
 83 649 l 1,21,-1
 201 649 l 1,6,-1
EndSplineSet
EndChar
StartChar: Udieresis
Encoding: 220 220 137
Width: 690
Flags: W
LayerCount: 2
Back
Fore
SplineSet
373 815 m 128,-1,1
 373 844 373 844 393 863 c 128,-1,2
 413 882 413 882 443.5 882 c 128,-1,3
 474 882 474 882 494 863 c 128,-1,4
 514 844 514 844 514 815 c 128,-1,5
 514 786 514 786 494 768 c 128,-1,6
 474 750 474 750 443.5 750 c 128,-1,7
 413 750 413 750 393 768 c 128,-1,0
 373 786 373 786 373 815 c 128,-1,1
199.5 767.5 m 128,-1,9
 180 786 180 786 180 814.5 c 128,-1,10
 180 843 180 843 199.5 862 c 128,-1,11
 219 881 219 881 250 881 c 128,-1,12
 281 881 281 881 301 862 c 128,-1,13
 321 843 321 843 321 814.5 c 128,-1,14
 321 786 321 786 301 767.5 c 128,-1,15
 281 749 281 749 250 749 c 128,-1,8
 219 749 219 749 199.5 767.5 c 128,-1,9
201 649 m 1,16,-1
 201 245 l 2,17,18
 201 165 201 165 241.5 130 c 128,-1,19
 282 95 282 95 346 95 c 128,-1,20
 410 95 410 95 450.5 130 c 128,-1,21
 491 165 491 165 491 245 c 2,22,-1
 491 649 l 1,23,-1
 609 649 l 1,24,-1
 609 245 l 2,25,26
 609 121 609 121 540 53.5 c 128,-1,27
 471 -14 471 -14 346 -14 c 128,-1,28
 221 -14 221 -14 152 53.5 c 128,-1,29
 83 121 83 121 83 245 c 2,30,-1
 83 649 l 1,31,-1
 201 649 l 1,16,-1
EndSplineSet
EndChar
StartChar: Thorn
Encoding: 222 222 303
Width: 581
VWidth: 0
Flags: W
LayerCount: 2
Back
Fore
SplineSet
209 228 m 257,0,-1
 209 436 l 257,1,-1
 319 436 l 258,2,3
 372 436 372 436 401 407 c 128,-1,4
 430 378 430 378 430 331 c 0,5,6
 430 285 430 285 401 256.5 c 128,-1,7
 372 228 372 228 319 228 c 2,8,-1
 209 228 l 257,0,-1
209 0 m 257,9,-1
 209 125 l 257,10,-1
 319 125 l 258,11,12
 429 125 429 125 490.5 179 c 128,-1,13
 552 233 552 233 552 331 c 0,14,15
 552 430 552 430 490.5 484 c 128,-1,16
 429 538 429 538 319 538 c 2,17,-1
 209 538 l 257,18,-1
 209 649 l 257,19,-1
 90 649 l 257,20,-1
 90 0 l 257,21,-1
 209 0 l 257,9,-1
EndSplineSet
EndChar
StartChar: germandbls
Encoding: 358 223 197
Width: 651
VWidth: 0
Flags: W
LayerCount: 2
Fore
SplineSet
85 0 m 257,0,-1
 203 0 l 257,1,-1
 203 485 l 258,2,3
 203 553 203 553 230.5 583.5 c 128,-1,4
 258 614 258 614 315 614 c 0,5,6
 359 614 359 614 382.5 590 c 128,-1,7
 406 566 406 566 406 530 c 128,-1,8
 406 494 406 494 360.5 442 c 128,-1,9
 315 390 315 390 315 354 c 0,10,11
 315 329 315 329 331 308 c 128,-1,12
 347 287 347 287 370 271 c 128,-1,13
 393 255 393 255 416 239 c 128,-1,14
 439 223 439 223 455 201.5 c 128,-1,15
 471 180 471 180 471 155 c 0,16,17
 471 119 471 119 449 99 c 128,-1,18
 427 79 427 79 389 79 c 0,19,20
 342 79 342 79 286 106 c 1,21,-1
 286 13 l 257,22,23
 343 -14 343 -14 412 -14 c 0,24,25
 491 -14 491 -14 546 34.5 c 128,-1,26
 601 83 601 83 601 162 c 0,27,28
 601 210 601 210 576 249.5 c 128,-1,29
 551 289 551 289 521 309.5 c 128,-1,30
 491 330 491 330 466 352 c 128,-1,31
 441 374 441 374 441 391 c 0,32,33
 441 406 441 406 455 423.5 c 128,-1,34
 469 441 469 441 485.5 455.5 c 128,-1,35
 502 470 502 470 516 495.5 c 128,-1,36
 530 521 530 521 530 549 c 0,37,38
 530 618 530 618 472 659 c 128,-1,39
 414 700 414 700 319 700 c 256,40,41
 85 700 85 700 85 484 c 2,42,-1
 85 0 l 257,0,-1
EndSplineSet
EndChar
StartChar: agrave
Encoding: 224 224 98
Width: 585
Flags: W
LayerCount: 2
Back
Fore
SplineSet
387 190 m 1,0,1
 327.571 206 327.571 206 277 206 c 0,2,3
 181 206 181 206 181 142 c 0,4,5
 181 115 181 115 203 95.5 c 128,-1,6
 225 76 225 76 273.5 76 c 128,-1,7
 322 76 322 76 353.5 108.5 c 128,-1,8
 385 141 385 141 387 190 c 1,0,1
185 764 m 1,9,-1
 452 632 l 1,10,-1
 422 558 l 1,11,-1
 143 662 l 1,12,-1
 185 764 l 1,9,-1
253 284 m 0,13,14
 311 284 311 284 387 265 c 1,15,-1
 387 313 l 2,16,17
 387 364 387 364 366.5 388.5 c 128,-1,18
 346 413 346 413 299.5 413 c 128,-1,19
 253 413 253 413 228 394.5 c 128,-1,20
 203 376 203 376 203 342 c 1,21,-1
 74 342 l 1,22,23
 74 425 74 425 132.5 462 c 128,-1,24
 191 499 191 499 296 499 c 0,25,26
 446.25 499 446.25 499 490 394 c 0,27,28
 505 358 505 358 505 309 c 2,29,-1
 505 0 l 1,30,-1
 402 0 l 1,31,-1
 393 65 l 1,32,33
 345.6 -14 345.6 -14 249 -14 c 0,34,35
 154.907 -14 154.907 -14 103 32.5 c 0,36,37
 55 75.5 55 75.5 55 143.25 c 128,-1,38
 55 211 55 211 108 247.5 c 128,-1,39
 161 284 161 284 253 284 c 0,13,14
EndSplineSet
EndChar
StartChar: aacute
Encoding: 283 225 104
Width: 585
Flags: W
LayerCount: 2
Fore
SplineSet
55 143.25 m 128,-1,14
 55 211 55 211 108 247.5 c 128,-1,15
 161 284 161 284 253 284 c 0,16,17
 311 284 311 284 387 265 c 1,18,-1
 387 313 l 2,19,20
 387 364 387 364 366.5 388.5 c 128,-1,21
 346 413 346 413 299.5 413 c 128,-1,22
 253 413 253 413 228 394.5 c 128,-1,23
 203 376 203 376 203 342 c 1,24,-1
 74 342 l 1,25,26
 74 425 74 425 132.5 462 c 128,-1,27
 191 499 191 499 296 499 c 0,28,29
 446.25 499 446.25 499 490 394 c 0,30,31
 505 358 505 358 505 309 c 2,32,-1
 505 0 l 1,33,-1
 402 0 l 1,34,-1
 393 65 l 1,35,36
 345.6 -14 345.6 -14 249 -14 c 0,37,38
 154.907 -14 154.907 -14 103 32.5 c 0,39,13
 55 75.5 55 75.5 55 143.25 c 128,-1,14
142 632 m 1,9,-1
 409 764 l 1,10,-1
 451 662 l 1,11,-1
 172 558 l 1,12,-1
 142 632 l 1,9,-1
181 142 m 0,0,1
 181 115 181 115 203 95.5 c 128,-1,2
 225 76 225 76 273.5 76 c 128,-1,3
 322 76 322 76 353.5 108.5 c 128,-1,4
 385 141 385 141 387 190 c 1,5,6
 327.571 206 327.571 206 277 206 c 0,7,8
 181 206 181 206 181 142 c 0,0,1
EndSplineSet
EndChar
StartChar: acircumflex
Encoding: 226 226 116
Width: 585
Flags: W
LayerCount: 2
Fore
SplineSet
387 190 m 1,0,1
 327.571 206 327.571 206 277 206 c 0,2,3
 181 206 181 206 181 142 c 0,4,5
 181 115 181 115 203 95.5 c 128,-1,6
 225 76 225 76 273.5 76 c 128,-1,7
 322 76 322 76 353.5 108.5 c 128,-1,8
 385 141 385 141 387 190 c 1,0,1
506 616 m 1,9,-1
 431 557 l 1,10,-1
 298 658 l 1,11,-1
 164 557 l 1,12,-1
 89 616 l 1,13,-1
 298 777 l 1,14,-1
 506 616 l 1,9,-1
253 284 m 0,15,16
 311 284 311 284 387 265 c 1,17,-1
 387 313 l 2,18,19
 387 364 387 364 366.5 388.5 c 128,-1,20
 346 413 346 413 299.5 413 c 128,-1,21
 253 413 253 413 228 394.5 c 128,-1,22
 203 376 203 376 203 342 c 1,23,-1
 74 342 l 1,24,25
 74 425 74 425 132.5 462 c 128,-1,26
 191 499 191 499 296 499 c 0,27,28
 446.25 499 446.25 499 490 394 c 0,29,30
 505 358 505 358 505 309 c 2,31,-1
 505 0 l 1,32,-1
 402 0 l 1,33,-1
 393 65 l 1,34,35
 345.6 -14 345.6 -14 249 -14 c 0,36,37
 154.907 -14 154.907 -14 103 32.5 c 0,38,39
 55 75.5 55 75.5 55 143.25 c 128,-1,40
 55 211 55 211 108 247.5 c 128,-1,41
 161 284 161 284 253 284 c 0,15,16
EndSplineSet
EndChar
StartChar: atilde
Encoding: 227 227 160
Width: 585
Flags: W
LayerCount: 2
Fore
SplineSet
387 190 m 1,0,1
 327.571 206 327.571 206 277 206 c 0,2,3
 181 206 181 206 181 142 c 0,4,5
 181 115 181 115 203 95.5 c 128,-1,6
 225 76 225 76 273.5 76 c 128,-1,7
 322 76 322 76 353.5 108.5 c 128,-1,8
 385 141 385 141 387 190 c 1,0,1
368 702 m 0,9,10
 400.269 702 400.269 702 421 751 c 1,11,-1
 471 718 l 1,12,13
 460 664 460 664 431.5 629.5 c 128,-1,14
 403 595 403 595 371 595 c 0,15,16
 353 595 353 595 335.5 602 c 128,-1,17
 318 609 318 609 291.5 622.5 c 0,18,19
 247.333 645 247.333 645 231.167 645 c 0,20,21
 196.138 645 196.138 645 172 595 c 1,22,-1
 125 623 l 1,23,24
 137 684 137 684 165.5 717.5 c 128,-1,25
 194 751 194 751 232 751 c 0,26,27
 258.714 751 258.714 751 294.857 732.5 c 128,-1,28
 331 714 331 714 343.5 708 c 128,-1,29
 356 702 356 702 368 702 c 0,9,10
253 284 m 0,30,31
 311 284 311 284 387 265 c 1,32,-1
 387 313 l 2,33,34
 387 364 387 364 366.5 388.5 c 128,-1,35
 346 413 346 413 299.5 413 c 128,-1,36
 253 413 253 413 228 394.5 c 128,-1,37
 203 376 203 376 203 342 c 1,38,-1
 74 342 l 1,39,40
 74 425 74 425 132.5 462 c 128,-1,41
 191 499 191 499 296 499 c 0,42,43
 446.25 499 446.25 499 490 394 c 0,44,45
 505 358 505 358 505 309 c 2,46,-1
 505 0 l 1,47,-1
 402 0 l 1,48,-1
 393 65 l 1,49,50
 345.6 -14 345.6 -14 249 -14 c 0,51,52
 154.907 -14 154.907 -14 103 32.5 c 0,53,54
 55 75.5 55 75.5 55 143.25 c 128,-1,55
 55 211 55 211 108 247.5 c 128,-1,56
 161 284 161 284 253 284 c 0,30,31
EndSplineSet
EndChar
StartChar: adieresis
Encoding: 228 228 129
Width: 585
Flags: W
LayerCount: 2
Fore
SplineSet
55 143.25 m 128,-1,26
 55 211 55 211 108 247.5 c 128,-1,27
 161 284 161 284 253 284 c 0,28,29
 311 284 311 284 387 265 c 1,30,-1
 387 313 l 2,31,32
 387 364 387 364 366.5 388.5 c 128,-1,33
 346 413 346 413 299.5 413 c 128,-1,34
 253 413 253 413 228 394.5 c 128,-1,35
 203 376 203 376 203 342 c 1,36,-1
 74 342 l 1,37,38
 74 425 74 425 132.5 462 c 128,-1,39
 191 499 191 499 296 499 c 0,40,41
 446.25 499 446.25 499 490 394 c 0,42,43
 505 358 505 358 505 309 c 2,44,-1
 505 0 l 1,45,-1
 402 0 l 1,46,-1
 393 65 l 1,47,48
 345.6 -14 345.6 -14 249 -14 c 0,49,50
 154.907 -14 154.907 -14 103 32.5 c 0,51,25
 55 75.5 55 75.5 55 143.25 c 128,-1,26
131 678.5 m 128,-1,9
 131 707 131 707 150.5 726 c 128,-1,10
 170 745 170 745 201 745 c 128,-1,11
 232 745 232 745 252 726 c 128,-1,12
 272 707 272 707 272 678.5 c 128,-1,13
 272 650 272 650 252 631.5 c 128,-1,14
 232 613 232 613 201 613 c 128,-1,15
 170 613 170 613 150.5 631.5 c 128,-1,8
 131 650 131 650 131 678.5 c 128,-1,9
181 142 m 0,16,17
 181 115 181 115 203 95.5 c 128,-1,18
 225 76 225 76 273.5 76 c 128,-1,19
 322 76 322 76 353.5 108.5 c 128,-1,20
 385 141 385 141 387 190 c 1,21,22
 327.571 206 327.571 206 277 206 c 0,23,24
 181 206 181 206 181 142 c 0,16,17
324 679 m 128,-1,1
 324 708 324 708 344 727 c 128,-1,2
 364 746 364 746 394.5 746 c 128,-1,3
 425 746 425 746 445 727 c 128,-1,4
 465 708 465 708 465 679 c 128,-1,5
 465 650 465 650 445 632 c 128,-1,6
 425 614 425 614 394.5 614 c 128,-1,7
 364 614 364 614 344 632 c 128,-1,0
 324 650 324 650 324 679 c 128,-1,1
EndSplineSet
EndChar
StartChar: ae
Encoding: 230 230 168
Width: 876
VWidth: 0
Flags: W
LayerCount: 2
Back
Fore
SplineSet
510 220 m 257,0,-1
 824 220 l 257,1,2
 828 243 828 243 828 270 c 0,3,4
 828 367 828 367 773.5 433 c 128,-1,5
 719 499 719 499 621 499 c 0,6,7
 520 499 520 499 460 423 c 1,8,9
 404 499 404 499 296 499 c 0,10,11
 74 499 74 499 74 342 c 1,12,-1
 203 342 l 257,13,14
 203 375 203 375 228 394 c 128,-1,15
 253 413 253 413 296 413 c 0,16,17
 345 413 345 413 366 389 c 128,-1,18
 387 365 387 365 387 313 c 2,19,-1
 387 284 l 257,20,-1
 269 284 l 258,21,22
 165 284 165 284 110 247.5 c 128,-1,23
 55 211 55 211 55 142 c 0,24,25
 55 74 55 74 107 30 c 128,-1,26
 159 -14 159 -14 263 -14 c 0,27,28
 384 -14 384 -14 452 80 c 1,29,30
 513 -14 513 -14 621 -14 c 0,31,32
 704 -14 704 -14 760 30 c 128,-1,33
 816 74 816 74 827 145 c 1,34,-1
 708 145 l 257,35,36
 695 81 695 81 621 81 c 0,37,38
 566 81 566 81 538 118.5 c 128,-1,39
 510 156 510 156 510 220 c 257,0,-1
387 220 m 257,40,-1
 387 181 l 258,41,42
 387 140 387 140 355.5 110.5 c 128,-1,43
 324 81 324 81 273 81 c 0,44,45
 227 81 227 81 204 97.5 c 128,-1,46
 181 114 181 114 181 142 c 0,47,48
 181 220 181 220 325 220 c 2,49,-1
 387 220 l 257,40,-1
622 405 m 256,50,51
 672 405 672 405 695 370 c 128,-1,52
 718 335 718 335 718 284 c 1,53,-1
 510 284 l 257,54,55
 514 338 514 338 543.5 371.5 c 128,-1,56
 573 405 573 405 622 405 c 256,50,51
EndSplineSet
EndChar
StartChar: ccedilla
Encoding: 231 231 167
Width: 530
VWidth: 0
LayerCount: 2
Fore
SplineSet
391.341 -112.388 m 0,0,1
 391.341 -154.24 391.341 -154.24 352.374 -175.612 c 128,-1,2
 313.408 -196.984 313.408 -196.984 239.971 -196.984 c 0,3,4
 217.49 -196.984 217.49 -196.984 189.514 -194.312 c 1,5,-1
 189.514 -141.773 l 1,6,7
 206.999 -144.891 206.999 -144.891 231.478 -144.891 c 0,8,9
 299.919 -144.891 299.919 -144.891 299.919 -114.168 c 0,10,11
 299.919 -98.585 299.919 -98.585 285.932 -91.0156 c 128,-1,12
 271.943 -83.4463 271.943 -83.4463 238.972 -83.4463 c 0,13,14
 219.987 -83.4463 219.987 -83.4463 212.993 -84.3369 c 1,15,-1
 242.423 -11.5694 l 1,16,17
 169.268 -0.956153 169.268 -0.956153 116.5 56 c 0,18,19
 47 131.016 47 131.016 47 243 c 0,20,21
 47 360.794 47 360.794 116.5 432.5 c 0,22,23
 180.954 499 180.954 499 277.5 499 c 0,24,25
 324 499 324 499 360.5 483.5 c 128,-1,26
 397 468 397 468 422.5 443 c 0,27,28
 471.933 394.536 471.933 394.536 481 322 c 1,29,-1
 362 319 l 1,30,31
 354 351 354 351 332.5 372 c 128,-1,32
 311 393 311 393 283 393 c 128,-1,33
 255 393 255 393 235 384.5 c 128,-1,34
 215 376 215 376 200 357.5 c 0,35,36
 166 315.567 166 315.567 166 241.783 c 128,-1,37
 166 168 166 168 198 130.5 c 128,-1,38
 230 93 230 93 275.5 93 c 128,-1,39
 321 93 321 93 341.5 114.5 c 128,-1,40
 362 136 362 136 362 173 c 1,41,-1
 481 173 l 1,42,43
 481 93 481 93 428.5 40.5 c 0,44,45
 384.727 -3.27266 384.727 -3.27266 313.539 -11.8885 c 1,46,-1
 298.92 -44.2637 l 1,47,48
 345.88 -46.4902 345.88 -46.4902 368.61 -64.7451 c 128,-1,49
 391.341 -83.001 391.341 -83.001 391.341 -112.388 c 0,0,1
EndSplineSet
EndChar
StartChar: egrave
Encoding: 232 232 99
Width: 530
Flags: W
LayerCount: 2
Fore
SplineSet
276 405 m 0,0,1
 226 405 226 405 198 372.5 c 128,-1,2
 170 340 170 340 165 289 c 1,3,-1
 372 289 l 1,4,5
 372 367.703 372 367.703 321.5 395 c 0,6,7
 303 405 303 405 276 405 c 0,0,1
154 774 m 1,8,-1
 421 642 l 1,9,-1
 391 568 l 1,10,-1
 112 672 l 1,11,-1
 154 774 l 1,8,-1
469.5 354 m 128,-1,13
 482 312 482 312 482 277 c 128,-1,14
 482 242 482 242 478 214 c 1,15,-1
 164 214 l 1,16,17
 166 155 166 155 193 118 c 128,-1,18
 220 81 220 81 275 81 c 0,19,20
 348 81 348 81 362 145 c 1,21,-1
 481 145 l 1,22,23
 468.56 72.4359 468.56 72.4359 414 30 c 0,24,25
 357.429 -14 357.429 -14 275 -14 c 0,26,27
 179.239 -14 179.239 -14 114 56.5 c 0,28,29
 47 128.903 47 128.903 47 243 c 0,30,31
 47 359.677 47 359.677 114 431 c 0,32,33
 177.879 499 177.879 499 275 499 c 0,34,35
 376.185 499 376.185 499 431.5 428.5 c 0,36,12
 457 396 457 396 469.5 354 c 128,-1,13
EndSplineSet
EndChar
StartChar: ecircumflex
Encoding: 234 234 117
Width: 530
Flags: W
LayerCount: 2
Back
Fore
SplineSet
283 405 m 0,0,1
 233 405 233 405 205 372.5 c 128,-1,2
 177 340 177 340 172 289 c 1,3,-1
 379 289 l 1,4,5
 379 367.703 379 367.703 328.5 395 c 0,6,7
 310 405 310 405 283 405 c 0,0,1
480 626 m 1,8,-1
 405 567 l 1,9,-1
 272 668 l 1,10,-1
 138 567 l 1,11,-1
 63 626 l 1,12,-1
 272 787 l 1,13,-1
 480 626 l 1,8,-1
476.5 354 m 128,-1,15
 489 312 489 312 489 277 c 128,-1,16
 489 242 489 242 485 214 c 1,17,-1
 171 214 l 1,18,19
 173 155 173 155 200 118 c 128,-1,20
 227 81 227 81 282 81 c 0,21,22
 355 81 355 81 369 145 c 1,23,-1
 488 145 l 1,24,25
 475.56 72.4359 475.56 72.4359 421 30 c 0,26,27
 364.429 -14 364.429 -14 282 -14 c 0,28,29
 186.239 -14 186.239 -14 121 56.5 c 0,30,31
 54 128.903 54 128.903 54 243 c 0,32,33
 54 359.677 54 359.677 121 431 c 0,34,35
 184.879 499 184.879 499 282 499 c 0,36,37
 383.185 499 383.185 499 438.5 428.5 c 0,38,14
 464 396 464 396 476.5 354 c 128,-1,15
EndSplineSet
EndChar
StartChar: edieresis
Encoding: 235 235 130
Width: 530
Flags: W
LayerCount: 2
Back
Fore
SplineSet
292 679 m 128,-1,1
 292 708 292 708 312 727 c 128,-1,2
 332 746 332 746 362.5 746 c 128,-1,3
 393 746 393 746 413 727 c 128,-1,4
 433 708 433 708 433 679 c 128,-1,5
 433 650 433 650 413 632 c 128,-1,6
 393 614 393 614 362.5 614 c 128,-1,7
 332 614 332 614 312 632 c 128,-1,0
 292 650 292 650 292 679 c 128,-1,1
118.5 631.5 m 128,-1,9
 99 650 99 650 99 678.5 c 128,-1,10
 99 707 99 707 118.5 726 c 128,-1,11
 138 745 138 745 169 745 c 128,-1,12
 200 745 200 745 220 726 c 128,-1,13
 240 707 240 707 240 678.5 c 128,-1,14
 240 650 240 650 220 631.5 c 128,-1,15
 200 613 200 613 169 613 c 128,-1,8
 138 613 138 613 118.5 631.5 c 128,-1,9
276 405 m 0,16,17
 226 405 226 405 198 372.5 c 128,-1,18
 170 340 170 340 165 289 c 1,19,-1
 372 289 l 1,20,21
 372 367.703 372 367.703 321.5 395 c 0,22,23
 303 405 303 405 276 405 c 0,16,17
469.5 354 m 128,-1,25
 482 312 482 312 482 277 c 128,-1,26
 482 242 482 242 478 214 c 1,27,-1
 164 214 l 1,28,29
 166 155 166 155 193 118 c 128,-1,30
 220 81 220 81 275 81 c 0,31,32
 348 81 348 81 362 145 c 1,33,-1
 481 145 l 1,34,35
 468.56 72.4359 468.56 72.4359 414 30 c 0,36,37
 357.429 -14 357.429 -14 275 -14 c 0,38,39
 179.239 -14 179.239 -14 114 56.5 c 0,40,41
 47 128.903 47 128.903 47 243 c 0,42,43
 47 359.677 47 359.677 114 431 c 0,44,45
 177.879 499 177.879 499 275 499 c 0,46,47
 376.185 499 376.185 499 431.5 428.5 c 0,48,24
 457 396 457 396 469.5 354 c 128,-1,25
EndSplineSet
EndChar
StartChar: igrave
Encoding: 236 236 139
Width: 328
Flags: W
LayerCount: 2
Fore
SplineSet
50 764 m 1,0,-1
 317 632 l 1,1,-1
 287 558 l 1,2,-1
 8 662 l 1,3,-1
 50 764 l 1,0,-1
103 487 m 1,4,-1
 221 487 l 1,5,-1
 221 0 l 1,6,-1
 103 0 l 1,7,-1
 103 487 l 1,4,-1
EndSplineSet
EndChar
StartChar: icircumflex
Encoding: 238 238 141
Width: 328
Flags: W
LayerCount: 2
Back
Fore
SplineSet
370 616 m 1,0,-1
 295 557 l 1,1,-1
 162 658 l 1,2,-1
 28 557 l 1,3,-1
 -47 616 l 1,4,-1
 162 777 l 1,5,-1
 370 616 l 1,0,-1
103 487 m 1,6,-1
 221 487 l 1,7,-1
 221 0 l 1,8,-1
 103 0 l 1,9,-1
 103 487 l 1,6,-1
EndSplineSet
EndChar
StartChar: idieresis
Encoding: 319 239 142
Width: 328
Flags: W
LayerCount: 2
Fore
SplineSet
-5 678.5 m 128,-1,9
 -5 707 -5 707 14.5 726 c 128,-1,10
 34 745 34 745 65 745 c 128,-1,11
 96 745 96 745 116 726 c 128,-1,12
 136 707 136 707 136 678.5 c 128,-1,13
 136 650 136 650 116 631.5 c 128,-1,14
 96 613 96 613 65 613 c 128,-1,15
 34 613 34 613 14.5 631.5 c 128,-1,8
 -5 650 -5 650 -5 678.5 c 128,-1,9
103 0 m 1,16,-1
 103 487 l 1,17,-1
 221 487 l 1,18,-1
 221 0 l 1,19,-1
 103 0 l 1,16,-1
188 679 m 128,-1,1
 188 708 188 708 208 727 c 128,-1,2
 228 746 228 746 258.5 746 c 128,-1,3
 289 746 289 746 309 727 c 128,-1,4
 329 708 329 708 329 679 c 128,-1,5
 329 650 329 650 309 632 c 128,-1,6
 289 614 289 614 258.5 614 c 128,-1,7
 228 614 228 614 208 632 c 128,-1,0
 188 650 188 650 188 679 c 128,-1,1
EndSplineSet
EndChar
StartChar: eth
Encoding: 240 240 304
Width: 573
VWidth: 0
Flags: W
LayerCount: 2
Fore
SplineSet
51 237 m 128,-1,1
 51 114 51 114 117 50 c 128,-1,2
 183 -14 183 -14 288 -14 c 0,3,4
 391 -14 391 -14 454.5 68 c 128,-1,5
 518 150 518 150 518 311 c 0,6,7
 518 612 518 612 289 830 c 1,8,-1
 182 769 l 257,9,10
 284 676 284 676 341 588 c 128,-1,11
 398 500 398 500 411 398 c 1,12,13
 360 499 360 499 256 499 c 256,14,15
 173 499 173 499 112 429.5 c 128,-1,0
 51 360 51 360 51 237 c 128,-1,1
170 237 m 0,16,17
 170 313 170 313 199 355 c 128,-1,18
 228 397 228 397 276 397 c 128,-1,19
 324 397 324 397 358 356.5 c 128,-1,20
 392 316 392 316 396 235 c 1,21,22
 380 76 380 76 284 76 c 256,23,24
 231 76 231 76 200.5 119 c 128,-1,25
 170 162 170 162 170 237 c 0,16,17
180 624 m 257,26,-1
 227 558 l 257,27,-1
 514 723 l 257,28,-1
 466 789 l 257,29,-1
 180 624 l 257,26,-1
EndSplineSet
EndChar
StartChar: ntilde
Encoding: 241 241 161
Width: 623
Flags: W
LayerCount: 2
Fore
SplineSet
384 702 m 0,0,1
 416.269 702 416.269 702 437 751 c 1,2,-1
 487 718 l 1,3,4
 476 664 476 664 447.5 629.5 c 128,-1,5
 419 595 419 595 387 595 c 0,6,7
 369 595 369 595 351.5 602 c 128,-1,8
 334 609 334 609 307.5 622.5 c 0,9,10
 263.333 645 263.333 645 247.167 645 c 0,11,12
 212.138 645 212.138 645 188 595 c 1,13,-1
 141 623 l 1,14,15
 153 684 153 684 181.5 717.5 c 128,-1,16
 210 751 210 751 248 751 c 0,17,18
 274.714 751 274.714 751 310.857 732.5 c 128,-1,19
 347 714 347 714 359.5 708 c 128,-1,20
 372 702 372 702 384 702 c 0,0,1
363 499 m 0,21,22
 256.51 499 256.51 499 209 402 c 1,23,-1
 196 486 l 1,24,-1
 93 486 l 1,25,-1
 93 0 l 1,26,-1
 211 0 l 1,27,-1
 211 225 l 1,28,29
 213 309 213 309 246.5 351 c 128,-1,30
 280 393 280 393 327 393 c 128,-1,31
 374 393 374 393 400 365.5 c 128,-1,32
 426 338 426 338 426 284 c 2,33,-1
 426 0 l 1,34,-1
 544 0 l 1,35,-1
 544 284 l 2,36,37
 544 381 544 381 498.5 440 c 128,-1,38
 453 499 453 499 363 499 c 0,21,22
EndSplineSet
EndChar
StartChar: ocircumflex
Encoding: 297 244 118
Width: 566
Flags: W
LayerCount: 2
Fore
SplineSet
47 242 m 0,14,15
 47 367 47 367 116 436 c 0,16,17
 179 499 179 499 283.5 499 c 0,18,19
 333 499 333 499 376 483.5 c 128,-1,20
 419 468 419 468 450.5 436 c 0,21,22
 519 366.413 519 366.413 519 242 c 0,23,24
 519 119.587 519 119.587 450.5 50 c 0,25,26
 387.5 -14 387.5 -14 284 -14 c 0,27,28
 180 -14 180 -14 116 50 c 0,29,30
 47 119 47 119 47 242 c 0,14,15
75 616 m 1,0,-1
 284 777 l 1,1,-1
 492 616 l 1,2,-1
 417 557 l 1,3,-1
 284 658 l 1,4,-1
 150 557 l 1,5,-1
 75 616 l 1,0,-1
166 243 m 128,-1,7
 166 166 166 166 196.5 127.5 c 128,-1,8
 227 89 227 89 280 89 c 128,-1,9
 333 89 333 89 367 127.5 c 128,-1,10
 401 166 401 166 401 243 c 128,-1,11
 401 320 401 320 371 358.5 c 128,-1,12
 341 397 341 397 287.5 397 c 128,-1,13
 234 397 234 397 200 358.5 c 128,-1,6
 166 320 166 320 166 243 c 128,-1,7
EndSplineSet
EndChar
StartChar: otilde
Encoding: 245 245 162
Width: 566
Flags: W
LayerCount: 2
Fore
SplineSet
47 242 m 0,29,30
 47 119 47 119 116 50 c 0,31,32
 180 -14 180 -14 284 -14 c 0,33,34
 387.5 -14 387.5 -14 450.5 50 c 0,35,36
 519 119.587 519 119.587 519 242 c 0,37,38
 519 366.413 519 366.413 450.5 436 c 0,39,40
 388.484 499 388.484 499 283.5 499 c 0,41,42
 234 499 234 499 191 483.5 c 128,-1,43
 148 468 148 468 116 436 c 0,44,45
 47 367 47 367 47 242 c 0,29,30
110 623 m 1,0,1
 122 684 122 684 150.5 717.5 c 128,-1,2
 179 751 179 751 217 751 c 0,3,4
 243.714 751 243.714 751 279.857 732.5 c 128,-1,5
 316 714 316 714 328.5 708 c 128,-1,6
 341 702 341 702 353 702 c 0,7,8
 385.269 702 385.269 702 406 751 c 1,9,-1
 456 718 l 1,10,11
 445 664 445 664 416.5 629.5 c 128,-1,12
 388 595 388 595 356 595 c 0,13,14
 338 595 338 595 320.5 602 c 128,-1,15
 303 609 303 609 276.5 622.5 c 0,16,17
 232.333 645 232.333 645 216.167 645 c 0,18,19
 181.138 645 181.138 645 157 595 c 1,20,-1
 110 623 l 1,0,1
166 243 m 128,-1,22
 166 320 166 320 200 358.5 c 128,-1,23
 234 397 234 397 287.5 397 c 128,-1,24
 341 397 341 397 371 358.5 c 128,-1,25
 401 320 401 320 401 243 c 128,-1,26
 401 166 401 166 367 127.5 c 128,-1,27
 333 89 333 89 280 89 c 128,-1,28
 227 89 227 89 196.5 127.5 c 128,-1,21
 166 166 166 166 166 243 c 128,-1,22
EndSplineSet
EndChar
StartChar: odieresis
Encoding: 308 246 131
Width: 566
Flags: W
LayerCount: 2
Fore
SplineSet
47 242 m 0,24,25
 47 367 47 367 116 436 c 0,26,27
 179 499 179 499 283.5 499 c 0,28,29
 333 499 333 499 376 483.5 c 128,-1,30
 419 468 419 468 450.5 436 c 0,31,32
 519 366.413 519 366.413 519 242 c 0,33,34
 519 119.587 519 119.587 450.5 50 c 0,35,36
 387.5 -14 387.5 -14 284 -14 c 0,37,38
 180 -14 180 -14 116 50 c 0,39,40
 47 119 47 119 47 242 c 0,24,25
117 678.5 m 128,-1,9
 117 707 117 707 136.5 726 c 128,-1,10
 156 745 156 745 187 745 c 128,-1,11
 218 745 218 745 238 726 c 128,-1,12
 258 707 258 707 258 678.5 c 128,-1,13
 258 650 258 650 238 631.5 c 128,-1,14
 218 613 218 613 187 613 c 128,-1,15
 156 613 156 613 136.5 631.5 c 128,-1,8
 117 650 117 650 117 678.5 c 128,-1,9
166 243 m 128,-1,17
 166 166 166 166 196.5 127.5 c 128,-1,18
 227 89 227 89 280 89 c 128,-1,19
 333 89 333 89 367 127.5 c 128,-1,20
 401 166 401 166 401 243 c 128,-1,21
 401 320 401 320 371 358.5 c 128,-1,22
 341 397 341 397 287.5 397 c 128,-1,23
 234 397 234 397 200 358.5 c 128,-1,16
 166 320 166 320 166 243 c 128,-1,17
310 679 m 128,-1,1
 310 708 310 708 330 727 c 128,-1,2
 350 746 350 746 380.5 746 c 128,-1,3
 411 746 411 746 431 727 c 128,-1,4
 451 708 451 708 451 679 c 128,-1,5
 451 650 451 650 431 632 c 128,-1,6
 411 614 411 614 380.5 614 c 128,-1,7
 350 614 350 614 330 632 c 128,-1,0
 310 650 310 650 310 679 c 128,-1,1
EndSplineSet
EndChar
StartChar: oslash
Encoding: 248 248 200
Width: 566
Flags: W
LayerCount: 2
Fore
SplineSet
7.3505859375 42.943359375 m 5,0,-1
 492.435546875 511.6015625 l 5,1,-1
 562.581054688 438.888671875 l 5,2,-1
 77.49609375 -29.76953125 l 5,3,-1
 7.3505859375 42.943359375 l 5,0,-1
47 242 m 0,12,13
 47 367 47 367 116 436 c 0,14,15
 179 499 179 499 283.5 499 c 0,16,17
 333 499 333 499 376 483.5 c 128,-1,18
 419 468 419 468 450.5 436 c 0,19,20
 519 366.413 519 366.413 519 242 c 0,21,22
 519 119.587 519 119.587 450.5 50 c 0,23,24
 387.5 -14 387.5 -14 284 -14 c 0,25,26
 180 -14 180 -14 116 50 c 0,27,28
 47 119 47 119 47 242 c 0,12,13
166 243 m 128,-1,5
 166 166 166 166 196.5 127.5 c 128,-1,6
 227 89 227 89 280 89 c 128,-1,7
 333 89 333 89 367 127.5 c 128,-1,8
 401 166 401 166 401 243 c 128,-1,9
 401 320 401 320 371 358.5 c 128,-1,10
 341 397 341 397 287.5 397 c 128,-1,11
 234 397 234 397 200 358.5 c 128,-1,4
 166 320 166 320 166 243 c 128,-1,5
EndSplineSet
EndChar
StartChar: ugrave
Encoding: 249 249 103
Width: 627
Flags: W
LayerCount: 2
Fore
SplineSet
83 177 m 2,4,-1
 83 487 l 1,5,-1
 201 487 l 1,6,-1
 201 189 l 2,7,8
 201 141 201 141 224 117.5 c 128,-1,9
 247 94 247 94 280.5 94 c 128,-1,10
 314 94 314 94 337 103.5 c 128,-1,11
 360 113 360 113 377 132.5 c 0,12,13
 414.107 175.064 414.107 175.064 416 247 c 1,14,-1
 416 487 l 1,15,-1
 534 487 l 1,16,-1
 534 0 l 1,17,-1
 416 0 l 1,18,-1
 416 88 l 1,19,20
 370.469 -9 370.469 -9 268 -9 c 0,21,22
 138.549 -9 138.549 -9 97.5 91.5 c 0,23,24
 83 127 83 127 83 177 c 2,4,-1
159 682 m 1,0,-1
 201 784 l 1,1,-1
 468 652 l 1,2,-1
 438 578 l 1,3,-1
 159 682 l 1,0,-1
EndSplineSet
EndChar
StartChar: ucircumflex
Encoding: 251 251 119
Width: 627
Flags: W
LayerCount: 2
Fore
SplineSet
83 177 m 2,6,-1
 83 487 l 1,7,-1
 201 487 l 1,8,-1
 201 189 l 2,9,10
 201 141 201 141 224 117.5 c 128,-1,11
 247 94 247 94 280.5 94 c 128,-1,12
 314 94 314 94 337 103.5 c 128,-1,13
 360 113 360 113 377 132.5 c 0,14,15
 414.107 175.064 414.107 175.064 416 247 c 1,16,-1
 416 487 l 1,17,-1
 534 487 l 1,18,-1
 534 0 l 1,19,-1
 416 0 l 1,20,-1
 416 88 l 1,21,22
 370.469 -9 370.469 -9 268 -9 c 0,23,24
 138.549 -9 138.549 -9 97.5 91.5 c 0,25,26
 83 127 83 127 83 177 c 2,6,-1
104 636 m 1,0,-1
 313 797 l 1,1,-1
 521 636 l 1,2,-1
 446 577 l 1,3,-1
 313 678 l 1,4,-1
 179 577 l 1,5,-1
 104 636 l 1,0,-1
EndSplineSet
EndChar
StartChar: udieresis
Encoding: 309 252 132
Width: 627
Flags: W
LayerCount: 2
Fore
SplineSet
83 177 m 2,16,-1
 83 487 l 1,17,-1
 201 487 l 1,18,-1
 201 189 l 2,19,20
 201 141 201 141 224 117.5 c 128,-1,21
 247 94 247 94 280.5 94 c 128,-1,22
 314 94 314 94 337 103.5 c 128,-1,23
 360 113 360 113 377 132.5 c 0,24,25
 414.107 175.064 414.107 175.064 416 247 c 1,26,-1
 416 487 l 1,27,-1
 534 487 l 1,28,-1
 534 0 l 1,29,-1
 416 0 l 1,30,-1
 416 88 l 1,31,32
 370.469 -9 370.469 -9 268 -9 c 0,33,34
 138.549 -9 138.549 -9 97.5 91.5 c 0,35,36
 83 127 83 127 83 177 c 2,16,-1
146 678.5 m 128,-1,9
 146 707 146 707 165.5 726 c 128,-1,10
 185 745 185 745 216 745 c 128,-1,11
 247 745 247 745 267 726 c 128,-1,12
 287 707 287 707 287 678.5 c 128,-1,13
 287 650 287 650 267 631.5 c 128,-1,14
 247 613 247 613 216 613 c 128,-1,15
 185 613 185 613 165.5 631.5 c 128,-1,8
 146 650 146 650 146 678.5 c 128,-1,9
339 679 m 128,-1,1
 339 708 339 708 359 727 c 128,-1,2
 379 746 379 746 409.5 746 c 128,-1,3
 440 746 440 746 460 727 c 128,-1,4
 480 708 480 708 480 679 c 128,-1,5
 480 650 480 650 460 632 c 128,-1,6
 440 614 440 614 409.5 614 c 128,-1,7
 379 614 379 614 359 632 c 128,-1,0
 339 650 339 650 339 679 c 128,-1,1
EndSplineSet
EndChar
StartChar: thorn
Encoding: 254 254 306
Width: 610
VWidth: 0
Flags: W
LayerCount: 2
Back
Fore
SplineSet
336 -14 m 256,0,1
 430 -14 430 -14 496.5 56 c 128,-1,2
 563 126 563 126 563 243 c 0,3,4
 563 359 563 359 497.5 429 c 128,-1,5
 432 499 432 499 341 499 c 0,6,7
 248 499 248 499 201 420 c 1,8,-1
 201 649 l 257,9,-1
 93 649 l 257,10,-1
 93 -237 l 257,11,-1
 211 -237 l 257,12,-1
 211 39 l 257,13,14
 252 -14 252 -14 336 -14 c 256,0,1
319 93 m 256,15,16
 275 93 275 93 243 121 c 128,-1,17
 211 149 211 149 211 196 c 2,18,-1
 211 283 l 258,19,20
 211 334 211 334 243 363.5 c 128,-1,21
 275 393 275 393 321 393 c 0,22,23
 375 393 375 393 409.5 352.5 c 128,-1,24
 444 312 444 312 444 243 c 0,25,26
 444 172 444 172 406 132.5 c 128,-1,27
 368 93 368 93 319 93 c 256,15,16
EndSplineSet
EndChar
StartChar: dotlessi
Encoding: 305 305 138
Width: 304
Flags: W
LayerCount: 2
Fore
SplineSet
93 487 m 1,0,-1
 211 487 l 1,1,-1
 211 0 l 1,2,-1
 93 0 l 1,3,-1
 93 487 l 1,0,-1
EndSplineSet
EndChar
StartChar: kgreenlandic
Encoding: 312 312 495
Width: 610
Flags: W
HStem: 0 21G<50 129 368.901 481> 458 20G<50 129 336.062 470>
VStem: 50 79<0 201 285 478>
LayerCount: 2
Fore
SplineSet
93 0 m 1,0,-1
 93 456 l 1,1,-1
 211 486 l 1,2,-1
 211 315 l 1,3,-1
 403 486 l 1,4,-1
 563 486 l 1,5,-1
 348 306 l 1,6,-1
 575 0 l 1,7,-1
 431 0 l 1,8,-1
 265 237 l 1,9,-1
 211 192 l 1,10,-1
 211 0 l 1,11,-1
 93 0 l 1,0,-1
EndSplineSet
EndChar
StartChar: Lslash
Encoding: 321 321 333
Width: 498
Flags: W
LayerCount: 2
Fore
SplineSet
28.4150390625 268.696289062 m 1,0,-1
 312.885742188 475.8515625 l 1,1,-1
 350 419 l 1,2,-1
 65.529296875 211.844726562 l 1,3,-1
 28.4150390625 268.696289062 l 1,0,-1
131 0 m 1,4,-1
 131 629 l 1,5,-1
 210 629 l 1,6,-1
 210 69 l 1,7,-1
 490 69 l 1,8,-1
 490 0 l 1,9,-1
 131 0 l 1,4,-1
EndSplineSet
EndChar
StartChar: lslash
Encoding: 322 322 334
Width: 354
Flags: W
LayerCount: 2
Fore
SplineSet
32.8857421875 276.8515625 m 1,0,-1
 284.885742188 460.8515625 l 1,1,-1
 322 404 l 1,2,-1
 70 220 l 1,3,-1
 32.8857421875 276.8515625 l 1,0,-1
133 0 m 1,4,-1
 133 681 l 1,5,-1
 212 681 l 1,6,-1
 212 0 l 1,7,-1
 133 0 l 1,4,-1
EndSplineSet
EndChar
StartChar: oe
Encoding: 330 339 169
Width: 882
Flags: W
LayerCount: 2
Fore
SplineSet
47 242 m 0,8,9
 47 367 47 367 116 436 c 0,10,11
 179 499 179 499 283.5 499 c 0,12,13
 333 499 333 499 376 483.5 c 128,-1,14
 419 468 419 468 450.5 436 c 0,15,16
 456.009 430.404 456.009 430.404 461.074 424.453 c 1,17,18
 463.969 427.773 463.969 427.773 467 431 c 0,19,20
 530.879 499 530.879 499 628 499 c 0,21,22
 729.185 499 729.185 499 784.5 428.5 c 0,23,24
 810 396 810 396 822.5 354 c 128,-1,25
 835 312 835 312 835 277 c 128,-1,26
 835 242 835 242 831 214 c 1,27,-1
 518.057 214 l 1,28,29
 517.773 209.89 517.773 209.89 517.403 205.846 c 0,30,31
 520.891 152.409 520.891 152.409 546 118 c 0,32,33
 573 81 573 81 628 81 c 0,34,35
 701 81 701 81 715 145 c 1,36,-1
 834 145 l 1,37,38
 821.561 72.4355 821.561 72.4355 767 30 c 0,39,40
 710.429 -14 710.429 -14 628 -14 c 0,41,42
 532.239 -14 532.239 -14 467 56.5 c 0,43,44
 464.327 59.3883 464.327 59.3883 461.761 62.3429 c 1,45,46
 456.383 55.9766 456.383 55.9766 450.5 50 c 0,47,48
 387.5 -14 387.5 -14 284 -14 c 0,49,50
 180 -14 180 -14 116 50 c 0,51,52
 47 119 47 119 47 242 c 0,8,9
166 243 m 128,-1,54
 166 166 166 166 196.5 127.5 c 128,-1,55
 227 89 227 89 280 89 c 128,-1,56
 333 89 333 89 367 127.5 c 0,57,58
 396.734 161.169 396.734 161.169 400.465 224.284 c 1,59,60
 400 233.497 400 233.497 400 243 c 0,61,62
 399.99 252.925 399.99 252.925 400.465 262.521 c 0,63,64
 397.058 325.046 397.058 325.046 371 358.5 c 0,65,66
 341 397 341 397 287.5 397 c 128,-1,67
 234 397 234 397 200 358.5 c 128,-1,53
 166 320 166 320 166 243 c 128,-1,54
518 289 m 1,0,-1
 725 289 l 1,1,2
 725 367.703 725 367.703 674.5 395 c 0,3,4
 656 405 656 405 629 405 c 0,5,6
 579 405 579 405 551 372.5 c 128,-1,7
 523 340 523 340 518 289 c 1,0,-1
EndSplineSet
EndChar
StartChar: uni0237
Encoding: 497 567 336
Width: 314
Flags: W
LayerCount: 2
Fore
SplineSet
-86 -209 m 1,0,-1
 -82 -140 l 1,1,2
 -18.8824 -177 -18.8824 -177 33 -177 c 0,3,4
 121 -177 121 -177 121 -67 c 2,5,-1
 121 480 l 1,6,-1
 200 480 l 1,7,-1
 200 -67 l 2,8,9
 200 -203.857 200 -203.857 110 -236 c 0,10,11
 82 -246 82 -246 48 -246 c 0,12,13
 -14.0556 -246 -14.0556 -246 -86 -209 c 1,0,-1
EndSplineSet
EndChar
StartChar: uni0243
Encoding: 579 579 181
Width: 648
Flags: W
LayerCount: 2
Fore
SplineSet
93 649 m 1,0,-1
 355 649 l 2,1,2
 463.404 649 463.404 649 522.5 598.5 c 0,3,4
 578 551.073 578 551.073 578 477 c 0,5,6
 578 422 578 422 547.5 383 c 128,-1,7
 517 344 517 344 462 328 c 1,8,9
 517 317 517 317 553 278.5 c 128,-1,10
 589 240 589 240 589 180 c 0,11,12
 589 60.1333 589 60.1333 470 16.5 c 0,13,14
 425 0 425 0 356 0 c 2,15,-1
 93 0 l 1,16,-1
 93 150 l 1,17,-1
 16 150 l 1,18,-1
 16 219 l 1,19,-1
 93 219 l 1,20,-1
 93 649 l 1,0,-1
353 103 m 2,21,22
 410 103 410 103 435.5 126 c 128,-1,23
 461 149 461 149 461 187 c 128,-1,24
 461 225 461 225 434.5 248.5 c 128,-1,25
 408 272 408 272 353 272 c 2,26,-1
 211 272 l 1,27,-1
 211 219 l 1,28,-1
 309 219 l 1,29,-1
 309 150 l 1,30,-1
 211 150 l 1,31,-1
 211 103 l 1,32,-1
 353 103 l 2,21,22
211 375 m 1,33,-1
 350 375 l 2,34,35
 403 375 403 375 430 398 c 128,-1,36
 457 421 457 421 457 460.5 c 128,-1,37
 457 500 457 500 430.5 523.5 c 128,-1,38
 404 547 404 547 351 547 c 2,39,-1
 211 547 l 1,40,-1
 211 375 l 1,33,-1
EndSplineSet
EndChar
StartChar: apostrophe
Encoding: 700 700 65
Width: 237
Flags: W
LayerCount: 2
Fore
SplineSet
36 458 m 1,0,1
 69 475 69 475 94.5 496 c 128,-1,2
 120 517 120 517 128 545 c 1,3,4
 100 550 100 550 80.5 567.5 c 128,-1,5
 61 585 61 585 61 614.5 c 128,-1,6
 61 644 61 644 84 665 c 128,-1,7
 107 686 107 686 147 686 c 128,-1,8
 187 686 187 686 212 655 c 128,-1,9
 237 624 237 624 237 579 c 0,10,11
 237 505.714 237 505.714 171 446 c 0,12,13
 150 427 150 427 124 414 c 1,14,-1
 36 458 l 1,0,1
EndSplineSet
EndChar
StartChar: circumflex
Encoding: 294 710 115
Width: 465
Flags: W
LayerCount: 2
Fore
SplineSet
24 752 m 1,0,-1
 233 913 l 1,1,-1
 441 752 l 1,2,-1
 366 693 l 1,3,-1
 233 794 l 1,4,-1
 99 693 l 1,5,-1
 24 752 l 1,0,-1
EndSplineSet
EndChar
StartChar: caron
Encoding: 337 711 176
Width: 465
Flags: W
LayerCount: 2
Fore
SplineSet
24 854.033 m 1,0,-1
 233 693.033 l 1,1,-1
 441 854.033 l 1,2,-1
 366 913.033 l 1,3,-1
 233 812.033 l 1,4,-1
 99 913.033 l 1,5,-1
 24 854.033 l 1,0,-1
EndSplineSet
EndChar
StartChar: breve
Encoding: 728 728 307
Width: 333
Flags: W
LayerCount: 2
Fore
SplineSet
14 732 m 1,0,-1
 92 732 l 1,1,2
 100 666 100 666 166 666 c 0,3,4
 206 666 206 666 224 683 c 128,-1,5
 242 700 242 700 245 732 c 1,6,-1
 322 732 l 1,7,8
 311 592 311 592 170 592 c 0,9,10
 134 592 134 592 101 604 c 128,-1,11
 68 616 68 616 41.5 648 c 128,-1,12
 15 680 15 680 14 732 c 1,0,-1
EndSplineSet
EndChar
StartChar: ring
Encoding: 730 730 171
Width: 422
VWidth: 0
Flags: W
LayerCount: 2
Fore
SplineSet
39.043 678.906 m 128,-1,13
 39.043 730.176 39.043 730.176 75.4199 766.553 c 128,-1,14
 111.797 802.93 111.797 802.93 163.066 802.93 c 128,-1,15
 214.336 802.93 214.336 802.93 250.713 766.553 c 128,-1,16
 287.09 730.176 287.09 730.176 287.09 678.906 c 128,-1,17
 287.09 627.637 287.09 627.637 251.201 591.26 c 128,-1,18
 215.312 554.883 215.312 554.883 163.066 554.883 c 128,-1,19
 110.82 554.883 110.82 554.883 74.9316 591.26 c 128,-1,12
 39.043 627.637 39.043 627.637 39.043 678.906 c 128,-1,13
102.031 678.906 m 0,0,1
 102.031 651.562 102.031 651.562 120.098 633.984 c 128,-1,2
 138.164 616.406 138.164 616.406 163.066 616.406 c 0,3,4
 188.945 616.406 188.945 616.406 207.012 634.473 c 128,-1,5
 225.078 652.539 225.078 652.539 225.078 678.906 c 0,6,7
 225.078 703.809 225.078 703.809 207.256 721.875 c 128,-1,8
 189.434 739.941 189.434 739.941 163.066 739.941 c 0,9,10
 138.164 739.941 138.164 739.941 120.098 722.363 c 128,-1,11
 102.031 704.785 102.031 704.785 102.031 678.906 c 0,0,1
EndSplineSet
EndChar
StartChar: ogonek
Encoding: 731 731 337
Width: 614
VWidth: 2000
Flags: W
LayerCount: 2
Fore
SplineSet
216 -96.5 m 0,0,1
 216 -56 216 -56 261.578125 -12.8271484375 c 0,2,3
 275 -0 275 -0 291.256835938 9.8203125 c 1,4,-1
 334.255859375 2.892578125 l 1,5,6
 279 -32 279 -32 279.104492188 -79.169921875 c 0,7,8
 279 -99 279 -99 290.5 -110.5 c 0,9,10
 318.6 -138.6 318.6 -138.6 369 -105 c 1,11,-1
 385.666992188 -151.641601562 l 1,12,13
 356 -179 356 -179 309.5 -179 c 0,14,15
 216 -179 216 -179 216 -96.5 c 0,0,1
EndSplineSet
EndChar
StartChar: tilde
Encoding: 304 732 125
Width: 394
Flags: W
LayerCount: 2
Fore
SplineSet
23 759 m 1,0,1
 35 820 35 820 63.5 853.5 c 128,-1,2
 92 887 92 887 130 887 c 0,3,4
 156.714 887 156.714 887 192.857 868.5 c 128,-1,5
 229 850 229 850 241.5 844 c 128,-1,6
 254 838 254 838 266 838 c 0,7,8
 298.269 838 298.269 838 319 887 c 1,9,-1
 369 854 l 1,10,11
 358 800 358 800 329.5 765.5 c 128,-1,12
 301 731 301 731 269 731 c 0,13,14
 251 731 251 731 233.5 738 c 128,-1,15
 216 745 216 745 189.5 758.5 c 0,16,17
 145.333 781 145.333 781 129.167 781 c 0,18,19
 94.1379 781 94.1379 781 70 731 c 1,20,-1
 23 759 l 1,0,1
EndSplineSet
EndChar
StartChar: hungarumlaut
<<<<<<< HEAD
Encoding: 538 733 377
Width: 422
Flags: W
LayerCount: 2
Fore
SplineSet
36 655 m 1,4,-1
 153 899 l 1,5,-1
 219 860 l 1,6,-1
 84 627 l 1,7,-1
 36 655 l 1,4,-1
203 655 m 1,0,-1
 320 899 l 1,1,-1
 386 860 l 1,2,-1
 251 627 l 1,3,-1
 203 655 l 1,0,-1
EndSplineSet
=======
Encoding: 733 733 326
Width: 356
Flags: W
LayerCount: 2
Fore
Refer: 97 180 N 0.704326 0.459048 -0.475842 0.679467 500.438 189.89 2
Refer: 97 180 N 0.704326 0.459048 -0.475842 0.679467 348.438 189.89 2
>>>>>>> refs/remotes/ms-studio/master
EndChar
StartChar: uni0307
Encoding: 775 775 497
Width: 0
Flags: W
LayerCount: 2
Fore
SplineSet
-361 628 m 132,-1,1
 -361 662 -361 662 -338 685 c 132,-1,2
 -315 708 -315 708 -279 708 c 132,-1,3
 -243 708 -243 708 -219 685 c 132,-1,4
 -195 662 -195 662 -195 628 c 132,-1,5
 -195 594 -195 594 -219 572 c 132,-1,6
 -243 550 -243 550 -279 550 c 132,-1,7
 -315 550 -315 550 -338 572 c 132,-1,0
 -361 594 -361 594 -361 628 c 132,-1,1
EndSplineSet
EndChar
StartChar: afii10018
Encoding: 177 1041 383
Width: 648
Flags: W
HStem: 0 103<211 432.875> 272 103<211 429.12> 547 102<211 502>
VStem: 93 118<103 272 375 547> 461 128<130.411 243.412>
LayerCount: 2
Fore
SplineSet
353 103 m 2,0,1
 410 103 410 103 435.5 126 c 128,-1,2
 461 149 461 149 461 187 c 128,-1,3
 461 225 461 225 434.5 248.5 c 128,-1,4
 408 272 408 272 353 272 c 2,5,-1
 211 272 l 1,6,-1
 211 103 l 1,7,-1
 353 103 l 2,0,1
93 0 m 1,8,-1
 93 649 l 1,9,-1
 502 649 l 5,10,-1
 502 547 l 1,11,-1
 211 547 l 1,12,-1
 211 375 l 1,13,-1
 350 375 l 2,14,15
 490.81815675 375 490.81815675 375 553 308.5 c 0,16,17
 569.714297672 290.624760509 569.714297672 290.624760509 579.357148836 252.187349737 c 128,-1,18
 589 213.749938965 589 213.749938965 589 180 c 0,19,20
 589 60 589 60 470 16 c 0,21,22
 425 -5.00222085975e-012 425 -5.00222085975e-012 356 0 c 2,23,-1
 211 0 l 1,24,-1
 93 0 l 1,8,-1
EndSplineSet
EndChar
StartChar: afii10020
Encoding: 1043 1043 385
Width: 547
Flags: W
HStem: 0 21G<93 211> 547 102<211 502>
VStem: 93 118<0 547>
LayerCount: 2
Fore
SplineSet
93 649 m 1,0,-1
 502 649 l 1,1,-1
 502 547 l 5,2,-1
 211 547 l 1,3,-1
 211 0 l 1,4,-1
 93 0 l 1,5,-1
 93 649 l 1,0,-1
EndSplineSet
EndChar
StartChar: afii10024
Encoding: 182 1046 388
Width: 1092
Flags: W
HStem: 0 21G<33 202.8 470 589 856.2 1026> 629 20G<52 233.176 470 589 825.824 1007>
VStem: 470 119<0 221 382 649>
LayerCount: 2
Fore
SplineSet
470 382 m 1,0,-1
 470 649 l 1,1,-1
 589 649 l 1,2,-1
 589 382 l 1,3,-1
 845 649 l 1,4,-1
 1007 649 l 1,5,-1
 721 357 l 1,6,-1
 1026 0 l 1,7,-1
 873 0 l 1,8,-1
 642 275 l 1,9,-1
 589 221 l 1,10,-1
 589 0 l 1,11,-1
 470 0 l 1,12,-1
 470 221 l 1,13,-1
 417 275 l 1,14,-1
 186 0 l 1,15,-1
 33 0 l 1,16,-1
 338 357 l 1,17,-1
 52 649 l 1,18,-1
 214 649 l 1,19,-1
 470 382 l 1,0,-1
EndSplineSet
EndChar
StartChar: afii10025
Encoding: 183 1047 389
Width: 622
Flags: W
HStem: -14 109<223.121 399.982> 283 93<226 384.902> 555 107<223.06 389.958>
VStem: 44 126<144.781 204> 421 127<409.632 524.029> 443 128<134.508 249.731>
LayerCount: 2
Fore
SplineSet
309 555 m 0,0,1
 200 555 200 555 182 472 c 1,2,-1
 58 472 l 1,3,4
 68 568 68 568 136 617 c 0,5,6
 200 662 200 662 304 662 c 0,7,8
 411 662 411 662 478 612 c 0,9,10
 548 561 548 561 548 481 c 0,11,12
 548 431 548 431 521 394.5 c 0,13,14
 494 358 494 358 441 340 c 1,15,16
 500 320 500 320 535.5 280.5 c 0,17,18
 571 241 571 241 571 190 c 0,19,20
 571 139 571 139 552.5 103 c 0,21,22
 534 67 534 67 500 41 c 0,23,24
 428 -14 428 -14 313 -14 c 0,25,26
 203 -14 203 -14 128 42 c 0,27,28
 44 103 44 103 44 204 c 1,29,-1
 170 204 l 1,30,31
 173 153 173 153 211.5 124 c 0,32,33
 250 95.0000000005 250 95.0000000005 312 95 c 0,34,35
 374 95 374 95 408.5 122.5 c 0,36,37
 443 150 443 150 443 192.5 c 0,38,39
 443 235 443 235 411.5 259 c 0,40,41
 380 283 380 283 312 283 c 2,42,-1
 226 283 l 1,43,-1
 226 376 l 1,44,-1
 300 376 l 2,45,46
 357 376 357 376 389 400.5 c 0,47,48
 421 425 421 425 421 465 c 0,49,50
 421 505 421 505 393.5 530 c 0,51,52
 366 555 366 555 309 555 c 0,0,1
EndSplineSet
EndChar
StartChar: afii10026
Encoding: 184 1048 390
Width: 706
Flags: W
HStem: 0 21G<93 269.901 494 612> 629 20G<93 211 435.099 612>
VStem: 93 118<127 649> 494 118<0 522>
LayerCount: 2
Fore
SplineSet
211 649 m 1,0,-1
 211 183 l 1,1,-1
 201 103 l 1,2,-1
 444 649 l 1,3,-1
 504 649 l 1,4,-1
 612 649 l 1,5,-1
 612 0 l 1,6,-1
 494 0 l 1,7,-1
 494 466 l 1,8,-1
 504 546 l 1,9,-1
 261 0 l 1,10,-1
 201 0 l 1,11,-1
 93 0 l 1,12,-1
 93 649 l 1,13,-1
 211 649 l 1,0,-1
EndSplineSet
EndChar
StartChar: afii10029
Encoding: 187 1051 393
Width: 675
Flags: W
HStem: -11 69<23.026 113.347> 0 21G<471 554> 561 68<253 471>
VStem: 173 80<199.65 561> 471 83<0 561>
LayerCount: 2
Back
SplineSet
717 104 m 1,0,-1
 717 -140 l 1,1,-1
 599 -140 l 1,2,-1
 599 0 l 1,3,-1
 136 0 l 1,4,-1
 136 -140 l 1,5,-1
 18 -140 l 1,6,-1
 18 104 l 1,7,-1
 82 104 l 0,8,9
 115 104 115 104 162 224 c 0,10,11
 203 328 203 328 204.766601562 452 c 0,12,-1
 214 649 l 5,13,-1
 625 649 l 1,14,-1
 625 104 l 1,15,-1
 717 104 l 1,0,-1
224 104 m 1,16,-1
 500 104 l 1,17,-1
 500 547 l 1,18,-1
 317 547 l 1,19,-1
 309.069335938 410 l 2,20,21
 303.606911792 317.720452165 303.606911792 317.720452165 282.819856958 242 c 0,22,23
 261.48295968 164.276651377 261.48295968 164.276651377 224 104 c 1,16,-1
EndSplineSet
Fore
SplineSet
23 0 m 1,0,-1
 23 104 l 1,1,2
 51 94 51 94 71.61328125 94 c 0,3,4
 100 94 100 94 142 176.5 c 0,5,6
 196.977196165 283.955428868 196.977196165 283.955428868 205 456 c 2,7,-1
 214 649 l 1,8,-1
 625 649 l 1,9,-1
 625 0 l 1,10,-1
 500 0 l 1,11,-1
 500 547 l 1,12,-1
 317 547 l 1,13,-1
 306 374 l 2,14,15
 296 212 296 212 217.176757812 97 c 0,16,17
 144 -11 144 -11 67 -11 c 0,18,19
 51 -11 51 -11 23 0 c 1,0,-1
EndSplineSet
EndChar
StartChar: afii10033
Encoding: 1055 1055 397
Width: 706
Flags: W
HStem: 0 21G<93 211 494 612> 545 104<211 494>
VStem: 93 118<0 545> 494 118<0 545>
LayerCount: 2
Fore
SplineSet
612 649 m 5,0,-1
 612 0 l 1,1,-1
 494 0 l 1,2,-1
 494 545 l 1,3,-1
 211 545 l 1,4,-1
 211 0 l 1,5,-1
 93 0 l 1,6,-1
 93 649 l 1,7,-1
 612 649 l 5,0,-1
EndSplineSet
EndChar
StartChar: afii10037
Encoding: 1059 1059 401
Width: 612
Flags: W
HStem: 0 103<108.832 242.264>
LayerCount: 2
Fore
SplineSet
276 178 m 1,0,1
 245.444444444 103 245.444444444 103 191.722222222 103 c 128,-1,2
 138 103 138 103 86 136 c 1,3,-1
 86 32 l 1,4,5
 152 0 152 0 216 0 c 128,-1,6
 280 0 280 0 317 33.5 c 128,-1,7
 354 67 354 67 392 163 c 2,8,-1
 588 649 l 1,9,-1
 449 649 l 1,10,-1
 330 279 l 1,11,-1
 156 649 l 1,12,-1
 16 649 l 1,13,-1
 276 178 l 1,0,1
EndSplineSet
EndChar
StartChar: afii10038
Encoding: 196 1060 402
Width: 751
Flags: W
HStem: 0 21G<336 415> 54.0996 57.6006<225.23 336 415 525.77> 518.1 56.8008<225.23 336 415 525.77> 609 20G<336 415>
VStem: 50 82<205.22 422.202> 336 79<0 54.29 111.988 517.802 574.71 629> 619 82<205.22 422.202>
LayerCount: 2
Fore
SplineSet
50 313.700195312 m 128,-1,11
 50 441.299810716 50 441.299810716 125.5 508.099609375 c 128,-1,12
 201.000487638 574.899839479 201.000487638 574.899839479 323 574.900390625 c 0,13,14
 329.569170773 574.900390625 329.569170773 574.900390625 336 574.709960938 c 1,15,-1
 336 629 l 1,16,-1
 415 629 l 1,17,-1
 415 574.709960938 l 1,18,19
 421.430829227 574.900390624 421.430829227 574.900390624 428 574.900390625 c 0,20,21
 550 574.900390625 550 574.900390625 625.5 508.099609375 c 128,-1,22
 701 441.299810716 701 441.299810716 701 313.700195312 c 128,-1,23
 701 186.099809128 701 186.099809128 626 120.099609375 c 128,-1,24
 551 54.099609375 551 54.099609375 428 54.099609375 c 0,25,26
 421.430827787 54.099609375 421.430827787 54.099609375 415 54.2900390625 c 1,27,-1
 415 0 l 1,28,-1
 336 0 l 1,29,-1
 336 54.2900390625 l 1,30,31
 329.569172135 54.0996094637 329.569172135 54.0996094637 323 54.099609375 c 0,32,33
 200 54.099609375 200 54.099609375 125 120.099609375 c 128,-1,10
 49.9999009344 186.099696552 49.9999009344 186.099696552 50 313.700195312 c 128,-1,11
132 313.299804688 m 128,-1,1
 132 214.100191156 132 214.100191156 183.5 162.900390625 c 128,-1,2
 235.000197386 111.700393856 235.000197386 111.700393856 323 111.700195312 c 0,3,4
 329.604194824 111.700195312 329.604194824 111.700195312 336 111.98828125 c 1,5,-1
 336 517.801757812 l 1,6,7
 329.604194339 518.099609416 329.604194339 518.099609416 323 518.099609375 c 0,8,9
 234.999999999 518.099609375 234.999999999 518.099609375 183.5 465.299804688 c 128,-1,0
 131.999902373 412.499899909 131.999902373 412.499899909 132 313.299804688 c 128,-1,1
415 111.98828125 m 1,34,35
 421.395805177 111.700195314 421.395805177 111.700195314 428 111.700195312 c 0,36,37
 516 111.700195312 516 111.700195312 567.5 162.900390625 c 128,-1,38
 619 214.100191158 619 214.100191158 619 313.299804688 c 128,-1,39
 619 412.499804686 619 412.499804686 567.5 465.299804688 c 128,-1,40
 516 518.099609375 516 518.099609375 428 518.099609375 c 0,41,42
 421.395805703 518.099609375 421.395805703 518.099609375 415 517.801757812 c 1,43,-1
 415 111.98828125 l 1,34,35
EndSplineSet
EndChar
StartChar: afii10040
Encoding: 198 1062 404
Width: 689
Flags: W
HStem: 0 112<211 442> 629 20G<93 211 442 560>
VStem: 93 118<112 649> 442 118<112 649> 521 118<-140 0>
LayerCount: 2
Fore
SplineSet
93 0 m 1,0,-1
 93 649 l 1,1,-1
 211 649 l 1,2,-1
 211 112 l 1,3,-1
 462 112 l 1,4,-1
 462 649 l 1,5,-1
 580 649 l 1,6,-1
 580 112 l 1,7,-1
 659 112 l 1,8,-1
 659 -140 l 1,9,-1
 541 -140 l 1,10,-1
 541 0 l 1,11,-1
 93 0 l 1,0,-1
EndSplineSet
EndChar
StartChar: afii10041
Encoding: 199 1063 405
Width: 654
Flags: W
HStem: 0 21G<486 565> 179 72<234.627 441.02> 609 20G<87 166 486 565>
VStem: 87 79<319.119 629> 486 79<0 227.17 288.109 629>
LayerCount: 2
Fore
SplineSet
87 417 m 2,0,-1
 87 649 l 1,1,-1
 195 649 l 1,2,-1
 195 447 l 2,3,4
 195 359 195 359 224.5 320 c 128,-1,5
 254 281 254 281 326 281 c 0,6,7
 424 281 424 281 457 307 c 1,8,-1
 457 649 l 1,9,-1
 565 649 l 1,10,-1
 565 0 l 1,11,-1
 457 0 l 1,12,-1
 457 206.169921875 l 1,13,14
 419 179 419 179 325.5 179 c 0,15,16
 216 179 216 179 151.5 239 c 128,-1,17
 87 299 87 299 87 417 c 2,0,-1
EndSplineSet
EndChar
StartChar: afii10043
Encoding: 1065 1065 407
Width: 954
Flags: W
HStem: 0 102<211 403 521 723> 629 20G<93 211 403 521 723 841>
VStem: 93 118<102 649> 403 118<102 649> 723 118<102 649>
LayerCount: 2
Fore
SplineSet
93 0 m 1,0,-1
 93 649 l 1,1,-1
 211 649 l 1,2,-1
 211 102 l 1,3,-1
 403 102 l 1,4,-1
 403 649 l 1,5,-1
 521 649 l 1,6,-1
 521 102 l 1,7,-1
 723 102 l 1,8,-1
 723 649 l 1,9,-1
 841 649 l 1,10,-1
 841 102 l 1,11,-1
 920 102 l 1,12,-1
 920 -140 l 1,13,-1
 802 -140 l 1,14,-1
 802 0 l 1,15,-1
 93 0 l 1,0,-1
EndSplineSet
EndChar
StartChar: afii10044
Encoding: 202 1066 408
Width: 659
Flags: W
HStem: 0 68<250 455.525> 318 68<250 458.087> 561 68<26 171>
VStem: 171 79<68 318 386 561> 506 81<118.024 271.002>
LayerCount: 2
Fore
SplineSet
26 561 m 1,0,-1
 26 629 l 1,1,-1
 250 629 l 1,2,-1
 250 386 l 1,3,-1
 374 386 l 2,4,5
 477.999511718 386 477.999511718 386 532.5 334.5 c 128,-1,6
 586.999511718 283.000488282 586.999511718 283.000488282 587 194 c 128,-1,7
 587 105.000488282 587 105.000488282 532.5 52.5 c 128,-1,8
 478.000488282 0 478.000488282 0 374 0 c 2,9,-1
 250 0 l 1,10,-1
 171 0 l 1,11,-1
 171 561 l 1,12,-1
 26 561 l 1,0,-1
250 68 m 1,13,-1
 374 68 l 2,14,15
 438.999511718 68 438.999511718 68 472.5 102.5 c 128,-1,16
 505.999511718 137 505.999511718 137 506 194.5 c 128,-1,17
 506 251.999511718 506 251.999511718 472.5 285 c 128,-1,18
 439.000488282 318 439.000488282 318 374 318 c 2,19,-1
 250 318 l 1,20,-1
 250 68 l 1,13,-1
EndSplineSet
EndChar
StartChar: afii10046
Encoding: 204 1068 410
Width: 602
Flags: W
LayerCount: 2
Fore
SplineSet
90 649 m 1,0,-1
 209 649 l 1,1,-1
 209 413 l 1,2,-1
 319 413 l 2,3,4
 429 413 429 413 490.5 359.5 c 128,-1,5
 552 306 552 306 552 206.5 c 128,-1,6
 552 107 552 107 490.5 53.5 c 128,-1,7
 429 0 429 0 319 0 c 2,8,-1
 90 0 l 1,9,-1
 90 649 l 1,0,-1
209 310 m 5,10,-1
 209 102 l 5,11,-1
 319 102 l 6,12,13
 374 102 374 102 402 131.5 c 132,-1,14
 430 161 430 161 430 206.5 c 132,-1,15
 430 252 430 252 402 281 c 132,-1,16
 374 310 374 310 319 310 c 6,17,-1
 209 310 l 5,10,-1
EndSplineSet
EndChar
StartChar: afii10047
Encoding: 1069 1069 411
Width: 613
Flags: W
HStem: -11 71<181.581 359.785> 273 68<217 456.021> 569 71<193.775 354.796>
VStem: 28 85<125.223 204> 456.021 86.9789<176.778 273 341 454.375>
LayerCount: 2
Fore
SplineSet
566 326 m 0,0,1
 566 168 566 168 489 76 c 0,2,3
 413 -14 413 -14 284 -14 c 0,4,5
 163 -14 163 -14 93.5 45.5 c 128,-1,6
 24 105 24 105 24 214 c 1,7,-1
 151 214 l 1,8,9
 151 161 151 161 186 127.5 c 128,-1,10
 221 94 221 94 290 94 c 128,-1,11
 359 94 359 94 399 155.5 c 0,12,13
 424.389648438 194.537109375 424.389648438 194.537109375 433.6640625 253 c 1,14,-1
 217 253 l 1,15,-1
 217 361 l 1,16,-1
 437.809570312 361 l 1,17,18
 431.680664062 446.002929688 431.680664062 446.002929688 394 497.5 c 0,19,20
 352 555 352 555 284 555 c 0,21,22
 234 555 234 555 200.5 523.5 c 128,-1,23
 167 492 167 492 151 441 c 1,24,-1
 25 464 l 1,25,26
 44 556 44 556 107 607 c 0,27,28
 175 662 175 662 286.5 662 c 0,29,30
 411 662 411 662 486.5 576.5 c 0,31,32
 566 486 566 486 566 326 c 0,0,1
EndSplineSet
EndChar
StartChar: afii10048
Encoding: 1070 1070 412
Width: 912
Flags: W
HStem: -11 72<423.962 602.16> 0 21G<101 180> 284 68<180 241.703> 569 71<425.007 600.834> 609 20G<101 180>
VStem: 101 79<0 284 352 629> 241.703 81.2967<176.525 284 352 449.082> 704 82<177.9 449.128>
LayerCount: 2
Fore
SplineSet
93 0 m 1,0,-1
 93 649 l 1,1,-1
 211 649 l 1,2,-1
 211 378 l 1,3,-1
 282.262695312 378 l 1,4,5
 294 506 294 506 362 579 c 0,6,7
 439 662 439 662 564.5 662 c 0,8,9
 630 662 630 662 684 640.5 c 128,-1,10
 738 619 738 619 777 577 c 0,11,12
 859 489 859 489 859 325 c 0,13,14
 859 160 859 160 777 70.5 c 0,15,16
 699 -14 699 -14 564 -14 c 0,17,18
 440 -14 440 -14 362 71.5 c 0,19,20
 293 147 293 147 282.049804688 275 c 1,21,-1
 211 275 l 1,22,-1
 211 0 l 1,23,-1
 93 0 l 1,0,-1
402 323.5 m 128,-1,25
 402 212 402 212 449 152.5 c 128,-1,26
 496 93 496 93 570 93 c 128,-1,27
 644 93 644 93 690.5 152.5 c 128,-1,28
 737 212 737 212 737 323.5 c 128,-1,29
 737 435 737 435 690.5 495.5 c 128,-1,30
 644 556 644 556 570 556 c 128,-1,31
 496 556 496 556 449 495.5 c 128,-1,24
 402 435 402 435 402 323.5 c 128,-1,25
EndSplineSet
EndChar
StartChar: afii10066
Encoding: 1073 1073 415
Width: 523
Flags: W
HStem: -11 70<191.238 331.922> 420 70<188.634 332.076> 661 20G<356.779 380.8>
VStem: 50 79<121.963 361.356 407 503.086> 402 81<142.703 338.019>
LayerCount: 2
Back
SplineSet
50 220 m 2,0,-1
 50 346 l 2,1,2
 50 475 50 475 107 544 c 0,3,4
 178 629 178 629 276 633 c 0,5,6
 374 636 374 636 374 681 c 1,7,-1
 429 681 l 0,8,9
 429 557 429 557 266.5 540.5 c 0,10,11
 185 532 185 532 141 480 c 0,12,13
 109 441 109 441 109 392 c 2,14,-1
 109 362 l 1,15,16
 172 457 172 457 274 457 c 128,-1,17
 376 457 376 457 429.5 391.5 c 128,-1,18
 483 326 483 326 483 240.5 c 0,19,20
 483 126 483 126 431.5 57.5 c 128,-1,21
 380 -11 380 -11 275 -11 c 0,22,23
 164 -11 164 -11 107 57.5 c 128,-1,24
 50 126 50 126 50 220 c 2,0,-1
129 224 m 2,25,26
 129 162 129 162 159.5 107.5 c 128,-1,27
 190 53 190 53 269 53 c 0,28,29
 341 53 341 53 371.5 94.5 c 128,-1,30
 402 136 402 136 402 215 c 128,-1,31
 402 294 402 294 369.5 342 c 128,-1,32
 337 390 337 390 264 390 c 0,33,34
 205 390 205 390 167 350 c 128,-1,35
 129 310 129 310 129 249 c 2,36,-1
 129 224 l 2,25,26
EndSplineSet
Fore
SplineSet
50 231 m 2,0,-1
 50 356 l 2,1,2
 50 452 50 452 74.5 510 c 0,3,4
 133 651 133 651 299 651 c 0,5,6
 378 651 378 651 378 682 c 0,7,-1
 378 686 l 1,8,-1
 451 686 l 1,9,-1
 451 682 l 0,10,11
 451 548 451 548 296 542 c 0,12,13
 205 538 205 538 150 464 c 0,14,15
 129 435 129 435 129 399 c 2,16,-1
 129 373 l 1,17,18
 177 459 177 459 284 459.5 c 0,19,20
 372 460 372 460 426.5 400 c 0,21,22
 483 338 483 338 483 240.5 c 0,23,24
 483 125 483 125 428 57 c 128,-1,25
 373 -11 373 -11 268 -11 c 128,-1,26
 163 -11 163 -11 108 56.5 c 0,27,28
 50 128 50 128 50 231 c 2,0,-1
159 204 m 2,29,30
 159 148 159 148 185.5 115.5 c 128,-1,31
 212 83 212 83 265.5 83 c 128,-1,32
 319 83 319 83 346.5 124.5 c 128,-1,33
 374 166 374 166 374 229.5 c 0,34,35
 374 291 374 291 344.5 331.01953125 c 0,36,37
 317 369 317 369 264 369 c 0,38,39
 204 369 204 369 177 323.5 c 0,40,41
 159 293 159 293 159 241 c 2,42,-1
 159 204 l 2,29,30
EndSplineSet
EndChar
StartChar: afii10067
Encoding: 210 1074 416
Width: 523
Flags: W
HStem: 0 59<129 372.25> 229 56<129 317.831> 422 68<129 349.149>
VStem: 50 79<59 229 285 422> 357 88<322.019 409.518> 402 81<87.3598 198.512>
LayerCount: 2
Fore
SplineSet
50 0 m 1,10,-1
 50 479 l 5,11,-1
 266 479 l 2,12,13
 328 479 328 479 372 447.5 c 0,14,15
 415 416 415 416 415 360 c 0,16,17
 415 320 415 320 399.5 292.5 c 128,-1,18
 384 265 384 265 354 258 c 1,19,20
 411 243 411 243 432 215 c 128,-1,21
 453 187 453 187 453 130.5 c 0,22,23
 453 60 453 60 406.5 30 c 0,24,25
 358 0 358 0 266 0 c 2,26,-1
 50 0 l 1,10,-1
129 59 m 1,27,-1
 258 59 l 2,28,29
 315 59 315 59 342.5 72 c 0,30,31
 372 85 372 85 372 130 c 0,32,33
 372 180 372 180 342 199 c 0,34,35
 313 218 313 218 258 218 c 2,36,-1
 129 218 l 1,37,-1
 129 59 l 1,27,-1
129 274 m 1,0,-1
 240 274 l 2,1,2
 295 274 295 274 311 289.5 c 128,-1,3
 327 305 327 305 327 346 c 0,4,5
 327 380 327 380 306 394.413085938 c 0,6,7
 282.5 411 282.5 411 240 411 c 2,8,-1
 129 411 l 1,9,-1
 129 274 l 1,0,-1
EndSplineSet
EndChar
StartChar: afii10069
Encoding: 212 1076 418
Width: 546
Flags: W
HStem: -82 150<50 119.298 496 552> 0 68<194.885 407> 411 68<227 407>
VStem: 50 79<-82 0> 141 86<96.5265 411> 407 89<68 411> 473 79<-82 0>
LayerCount: 2
Fore
SplineSet
50 68 m 1,0,-1
 106.36851496 68 l 1,1,2
 128.157098997 90.4418432536 128.157098997 90.4418432536 134.578549499 153.993870667 c 128,-1,3
 141 217.545898081 141 217.545898081 141 334 c 2,4,-1
 141 479 l 5,5,-1
 496 479 l 1,6,-1
 496 68 l 1,7,-1
 552 68 l 1,8,-1
 552 -82 l 1,9,-1
 473 -82 l 1,10,-1
 473 0 l 1,11,-1
 129 0 l 1,12,-1
 129 -82 l 1,13,-1
 50 -82 l 1,14,-1
 50 68 l 1,0,-1
194.885260201 68 m 1,15,-1
 407 68 l 1,16,-1
 407 411 l 1,17,-1
 227 411 l 1,18,-1
 227 298 l 2,19,20
 227 138.319768454 227 138.319768454 194.885260201 68 c 1,15,-1
EndSplineSet
EndChar
StartChar: afii10072
Encoding: 1078 1078 420
Width: 886
Flags: W
LayerCount: 2
Fore
SplineSet
502 315 m 5,0,-1
 694 486 l 5,1,-1
 854 486 l 5,2,-1
 639 306 l 5,3,-1
 866 0 l 5,4,-1
 722 0 l 5,5,-1
 556 237 l 5,6,-1
 502 192 l 5,7,-1
 502 0 l 5,8,-1
 384 0 l 5,9,-1
 384 192 l 5,10,-1
 330 237 l 5,11,-1
 164 0 l 5,12,-1
 20 0 l 5,13,-1
 247 306 l 5,14,-1
 32 486 l 5,15,-1
 192 486 l 5,16,-1
 384 315 l 5,17,-1
 384 486 l 5,18,-1
 502 486 l 5,19,-1
 502 315 l 5,0,-1
EndSplineSet
EndChar
StartChar: afii10073
Encoding: 1079 1079 421
Width: 480
Flags: W
HStem: -11 70<140.943 298.539> 234 54<152 272.567> 429.75 67.5996<127.568 277.802>
VStem: 297.725 87.2754<312.352 409.419> 342.725 80.2754<97.4289 195.725>
LayerCount: 2
Fore
SplineSet
225 499 m 128,-1,1
 288 499 288 499 343 468 c 0,2,3
 402 435 402 435 402 362 c 3,4,5
 402 302 402 302 342 272 c 1,6,7
 440 243 440 243 440 150 c 3,8,9
 440 68 440 68 381 27 c 128,-1,10
 322 -14 322 -14 248 -14 c 3,11,12
 156 -14 156 -14 93.5 30 c 128,-1,13
 31 74 31 74 30 141 c 1,14,-1
 157 141 l 1,15,16
 165 115 165 115 181 102 c 0,17,18
 198 89 198 89 240 89 c 3,19,20
 273 89 273 89 289 102.5 c 0,21,22
 310 119 310 119 310 148 c 0,23,24
 310 195 310 195 273.5 213.5 c 0,25,26
 258 221 258 221 222 221 c 2,27,-1
 199 221 l 1,28,-1
 199 300 l 1,29,-1
 222 300 l 0,30,31
 244 300 244 300 255 312.5 c 0,32,33
 264 322 264 322 264 350 c 0,34,35
 264 372 264 372 248.5 384.5 c 128,-1,36
 233 397 233 397 210.5 397 c 128,-1,37
 188 397 188 397 174 381.048828125 c 0,38,39
 165 371 165 371 164 332 c 1,40,-1
 46 332 l 0,41,42
 47 423 47 423 112 466.095703125 c 0,43,0
 162 499 162 499 225 499 c 128,-1,1
EndSplineSet
EndChar
StartChar: afii10074
Encoding: 1080 1080 422
Width: 561
Flags: W
HStem: 0 21G<50 143.46 390 469> 459 20G<50 129 375.54 469>
VStem: 50 79<118 479> 390 79<0 361>
LayerCount: 2
Fore
SplineSet
50 0 m 1,0,-1
 50 479 l 1,1,-1
 168 479 l 1,2,-1
 168 158 l 1,3,-1
 393 479 l 1,4,-1
 511 479 l 1,5,-1
 511 0 l 1,6,-1
 393 0 l 1,7,-1
 393 321 l 5,8,-1
 168 0 l 1,9,-1
 50 0 l 1,0,-1
EndSplineSet
EndChar
StartChar: afii10077
Encoding: 1083 1083 425
Width: 546
Flags: W
HStem: -11 81<21.0269 114.835> 0 21G<407 496> 411 68<227 407>
VStem: 141 86<102.55 411> 407 89<0 411>
LayerCount: 2
Fore
SplineSet
25 2 m 1,0,-1
 25 97 l 1,1,2
 42 85 42 85 59 85 c 0,3,4
 97 85 97 85 105.5 140 c 128,-1,5
 114 195 114 195 114 334 c 2,6,-1
 114 479 l 1,7,-1
 501 479 l 1,8,-1
 501 0 l 1,9,-1
 383 0 l 1,10,-1
 383 383 l 1,11,-1
 232 383 l 1,12,-1
 232 298 l 2,13,14
 232 228 232 228 226.5 178 c 128,-1,15
 221 128 221 128 205.5 82 c 128,-1,16
 190 36 190 36 158.5 12.5 c 128,-1,17
 127 -11 127 -11 80 -11 c 0,18,19
 57 -11 57 -11 25 2 c 1,0,-1
EndSplineSet
EndChar
StartChar: afii10078
Encoding: 1084 1084 426
Width: 714
Flags: W
HStem: 0 21G<50 139 275.709 379.342 517 606> 458 20G<50 199.403 455.597 606>
VStem: 50 89<0 395> 517 89<0 395>
LayerCount: 2
Fore
SplineSet
50 0 m 1,0,-1
 50 478 l 1,1,-1
 221 478 l 1,2,-1
 356.5 161.952148438 l 1,3,-1
 492 478 l 1,4,-1
 664 478 l 1,5,-1
 664 0 l 1,6,-1
 546 0 l 1,7,-1
 546 295 l 1,8,-1
 411 0 l 1,9,-1
 302 0 l 1,10,-1
 168 295 l 1,11,-1
 168 0 l 1,12,-1
 50 0 l 1,0,-1
EndSplineSet
EndChar
StartChar: afii10079
Encoding: 221 1085 427
Width: 551
Flags: W
HStem: 0 21G<50 168 383 501> 221 79<168 383>
VStem: 50 118<0 221 300 479> 383 118<0 221 300 479>
LayerCount: 2
Fore
SplineSet
50 0 m 5,0,-1
 50 479 l 5,1,-1
 168 479 l 5,2,-1
 168 300 l 5,3,-1
 383 300 l 5,4,-1
 383 479 l 5,5,-1
 501 479 l 5,6,-1
 501 0 l 5,7,-1
 383 0 l 5,8,-1
 383 221 l 5,9,-1
 168 221 l 5,10,-1
 168 0 l 5,11,-1
 50 0 l 5,0,-1
EndSplineSet
EndChar
StartChar: afii10081
Encoding: 223 1087 429
Width: 529
Flags: W
HStem: 0 21G<50 168 361 479> 411 68<168 361>
VStem: 50 118<0 411> 361 118<0 411>
LayerCount: 2
Fore
SplineSet
50 0 m 1,0,-1
 50 479 l 1,1,-1
 479 479 l 1,2,-1
 479 0 l 1,3,-1
 361 0 l 1,4,-1
 361 411 l 1,5,-1
 168 411 l 1,6,-1
 168 0 l 1,7,-1
 50 0 l 1,0,-1
EndSplineSet
EndChar
StartChar: afii10084
Encoding: 1090 1090 432
Width: 491
Flags: W
HStem: 0 21G<192 310> 401 78<20 192 310 482>
VStem: 192 118<0 401>
LayerCount: 2
Fore
SplineSet
20 401 m 5,0,-1
 20 479 l 1,1,-1
 482 479 l 1,2,-1
 482 401 l 5,3,-1
 310 401 l 5,4,-1
 310 0 l 1,5,-1
 192 0 l 1,6,-1
 192 401 l 5,7,-1
 20 401 l 5,0,-1
EndSplineSet
EndChar
StartChar: afii10088
Encoding: 1094 1094 436
Width: 605
Flags: W
LayerCount: 2
Fore
SplineSet
560 -82 m 1,0,-1
 448 -82 l 1,1,-1
 448 0 l 1,2,-1
 50 0 l 1,3,-1
 50 479 l 1,4,-1
 168 479 l 1,5,-1
 168 96 l 1,6,-1
 383 96 l 1,7,-1
 383 479 l 1,8,-1
 501 479 l 1,9,-1
 501 96 l 1,10,-1
 560 96 l 1,11,-1
 560 -82 l 1,0,-1
EndSplineSet
EndChar
StartChar: afii10091
Encoding: 1097 1097 439
Width: 927
Flags: WO
HStem: 0 68<128 382 460 721> 459 20G<50 128 382 460 721 800>
VStem: 50 78<68 479> 382 78<68 479> 721 79<68 479> 765 72<-82 0>
LayerCount: 2
Fore
SplineSet
893 94 m 1,0,-1
 841 94 l 1,1,-1
 841 479 l 1,2,-1
 721 479 l 1,3,-1
 721 94 l 1,4,-1
 501 94 l 1,5,-1
 501 479 l 1,6,-1
 382 479 l 1,7,-1
 383 96 l 1,8,-1
 168 96 l 1,9,-1
 168 479 l 1,10,-1
 50 479 l 1,11,-1
 50 0 l 1,12,-1
 782 0 l 1,13,-1
 782 -82 l 1,14,-1
 894 -82 l 1,15,-1
 893 94 l 1,0,-1
EndSplineSet
EndChar
StartChar: afii10095
Encoding: 1101 1101 443
Width: 540
Flags: W
LayerCount: 2
Fore
SplineSet
246 400 m 0,0,1
 167 400 167 400 139 310 c 1,2,-1
 40 319 l 1,3,-1
 43 330 l 1,4,5
 59 402 59 402 114 446 c 128,-1,6
 169 490 169 490 269.5 490 c 128,-1,7
 370 490 370 490 431 417.5 c 128,-1,8
 492 345 492 345 492 240 c 128,-1,9
 492 135 492 135 428.5 62 c 128,-1,10
 365 -11 365 -11 261 -11 c 128,-1,11
 157 -11 157 -11 99.5 38 c 128,-1,12
 42 87 42 87 41 181 c 1,13,-1
 142 181 l 1,14,15
 142 135 142 135 169 107 c 128,-1,16
 196 79 196 79 253.5 79 c 128,-1,17
 311 79 311 79 345 113 c 0,18,19
 378 147 378 147 387 196 c 1,20,-1
 196 196 l 1,21,-1
 196 284 l 1,22,-1
 388 284 l 1,23,24
 379 334 379 334 344 367 c 0,25,26
 308 400 308 400 246 400 c 0,0,1
EndSplineSet
EndChar
StartChar: endash
Encoding: 259 8211 9
Width: 525
Flags: W
LayerCount: 2
Fore
SplineSet
55 250 m 1,0,-1
 55 353 l 1,1,-1
 470 353 l 1,2,-1
 470 250 l 1,3,-1
 55 250 l 1,0,-1
EndSplineSet
EndChar
StartChar: emdash
Encoding: 8212 8212 10
Width: 768
Flags: W
LayerCount: 2
Back
Fore
SplineSet
55 353 m 1,0,-1
 714 353 l 1,1,-1
 714 250 l 1,2,-1
 55 250 l 1,3,-1
 55 353 l 1,0,-1
EndSplineSet
EndChar
StartChar: quoteleft
Encoding: 262 8216 66
Width: 271
Flags: W
LayerCount: 2
Fore
SplineSet
36 522.392 m 128,-1,1
 36 568.892 36 568.892 68.5 613.892 c 128,-1,2
 101 658.892 101 658.892 155 685.892 c 1,3,-1
 238 639.892 l 1,4,5
 160.713 603.521 160.713 603.521 145 552.892 c 1,6,7
 173 547.892 173 547.892 192.5 530.892 c 128,-1,8
 212 513.892 212 513.892 212 484.392 c 128,-1,9
 212 454.892 212 454.892 189.5 433.892 c 128,-1,10
 167 412.892 167 412.892 127 412.892 c 128,-1,11
 87 412.892 87 412.892 61.5 444.392 c 128,-1,0
 36 475.892 36 475.892 36 522.392 c 128,-1,1
EndSplineSet
EndChar
StartChar: quoteright
Encoding: 263 8217 67
Width: 271
Flags: W
LayerCount: 2
Fore
SplineSet
29 457.899 m 1,0,1
 106.106 496.452 106.106 496.452 122 545.899 c 1,2,3
 93 550.899 93 550.899 73.5 567.899 c 128,-1,4
 54 584.899 54 584.899 54 614.899 c 128,-1,5
 54 644.899 54 644.899 77 665.399 c 128,-1,6
 100 685.899 100 685.899 139.5 685.899 c 128,-1,7
 179 685.899 179 685.899 204.5 654.399 c 128,-1,8
 230 622.899 230 622.899 230 576.399 c 128,-1,9
 230 529.899 230 529.899 197.5 484.899 c 128,-1,10
 165 439.899 165 439.899 111 412.899 c 1,11,-1
 29 457.899 l 1,0,1
EndSplineSet
EndChar
StartChar: guilsinglright
Encoding: 8250 8250 199
Width: 315
Flags: W
LayerCount: 2
Fore
SplineSet
139 429 m 1,0,-1
 30 429 l 1,1,-1
 168 233 l 1,2,-1
 30 37 l 1,3,-1
 139 37 l 1,4,-1
 285 233 l 1,5,-1
 139 429 l 1,0,-1
EndSplineSet
EndChar
StartChar: uni203D
Encoding: 8253 8253 195
Width: 517
Flags: W
LayerCount: 2
Fore
SplineSet
24 469.994 m 1,0,1
 29 556.997 29 556.997 88 609.5 c 128,-1,2
 147 662 147 662 253.643 662 c 128,-1,3
 360.286 662 360.286 662 422.643 610.212 c 128,-1,4
 485 558.424 485 558.424 485 481 c 0,5,6
 485 428 485 428 459 392.5 c 128,-1,7
 433 357 433 357 377 329 c 0,8,9
 329.571 305.286 329.571 305.286 315.286 288.143 c 128,-1,10
 301 271 301 271 297 256.5 c 128,-1,11
 293 242 293 242 293 223 c 2,12,-1
 293 194 l 1,13,-1
 290.001 194 l 1,14,-1
 175 194 l 1,15,-1
 164.999 469.994 l 1,16,-1
 300.999 469.994 l 1,17,-1
 298.299 402.226 l 1,18,19
 325.13 417.699 325.13 417.699 338.5 433.5 c 0,20,21
 355 453 355 453 355 483.5 c 128,-1,22
 355 514 355 514 330 534.5 c 128,-1,23
 305 555 305 555 256 555 c 128,-1,24
 207 555 207 555 179 531.5 c 128,-1,25
 151 507.997 151 507.997 147 469.994 c 1,26,-1
 24 469.994 l 1,0,1
155 65 m 128,-1,28
 155 99 155 99 177.5 121 c 128,-1,29
 200 143 200 143 236.5 143 c 128,-1,30
 273 143 273 143 297 121 c 128,-1,31
 321 99 321 99 321 65 c 128,-1,32
 321 31 321 31 297 8.5 c 128,-1,33
 273 -14 273 -14 236.5 -14 c 128,-1,34
 200 -14 200 -14 177.5 8.5 c 128,-1,27
 155 31 155 31 155 65 c 128,-1,28
EndSplineSet
EndChar
StartChar: rupeesymbol
Encoding: 320 8360 143
Width: 604
Flags: W
LayerCount: 2
Fore
SplineSet
83 246 m 1,0,-1
 83 313 l 1,1,-1
 160 313 l 1,2,3
 233 315 233 315 270.5 345 c 128,-1,4
 308 375 308 375 316 422 c 1,5,-1
 83 422 l 1,6,-1
 83 489 l 1,7,-1
 312 489 l 1,8,9
 301 531 301 531 262 557 c 128,-1,10
 223 583 223 583 152 583 c 2,11,-1
 83 583 l 1,12,-1
 83 649 l 1,13,-1
 547 649 l 1,14,-1
 547 583 l 1,15,-1
 365 583 l 1,16,17
 425 547 425 547 440 489 c 1,18,-1
 547 489 l 1,19,-1
 547 422 l 1,20,-1
 443 422 l 1,21,22
 436 358 436 358 389 312.5 c 128,-1,23
 342 267 342 267 243 252 c 1,24,-1
 504 0 l 1,25,-1
 338 0 l 1,26,-1
 83 246 l 1,0,-1
EndSplineSet
EndChar
StartChar: Euro
Encoding: 343 8364 182
Width: 686
Flags: W
LayerCount: 2
Fore
SplineSet
25 206 m 1,0,-1
 52 287 l 1,1,-1
 105.231 287 l 1,2,3
 104 305.965 104 305.965 104 326 c 0,4,5
 104 330.528 104 330.528 104.063 335 c 1,6,-1
 29 335 l 1,7,-1
 54 414 l 1,8,-1
 110.832 414 l 1,9,10
 127.305 512.813 127.305 512.813 183.5 576.5 c 0,11,12
 258.941 662 258.941 662 377.5 662 c 0,13,14
 437 662 437 662 478 647.5 c 128,-1,15
 519 633 519 633 551 607 c 0,16,17
 614.264 555.598 614.264 555.598 633 464 c 1,18,-1
 507 441 l 1,19,20
 491 492 491 492 457.5 523.5 c 128,-1,21
 424 555 424 555 380 555 c 0,22,23
 318.368 555 318.368 555 276 497.5 c 0,24,25
 250.839 463.353 250.839 463.353 239.747 414 c 1,26,-1
 489 414 l 1,27,-1
 464 335 l 1,28,-1
 231.065 335 l 1,29,30
 231 330.892 231 330.892 231 326.714 c 0,31,32
 231 305.997 231 305.997 232.426 287 c 1,33,-1
 452 287 l 1,34,-1
 425 206 l 1,35,-1
 247.393 206 l 1,36,37
 256.607 177.629 256.607 177.629 271 155.5 c 0,38,39
 311 94 311 94 374 94 c 128,-1,40
 437 94 437 94 472 127.5 c 128,-1,41
 507 161 507 161 507 214 c 1,42,-1
 634 214 l 1,43,44
 634 105 634 105 564.5 45.5 c 128,-1,45
 495 -14 495 -14 380 -14 c 0,46,47
 256.682 -14 256.682 -14 181 76 c 0,48,49
 135.96 129.561 135.96 129.561 117.265 206 c 1,50,-1
 25 206 l 1,0,-1
EndSplineSet
EndChar
StartChar: minus
Encoding: 8722 8722 71
Width: 506
Flags: W
LayerCount: 2
Fore
SplineSet
427 353 m 1,0,-1
 427 250 l 1,1,-1
 79 250 l 1,2,-1
 79 353 l 1,3,-1
 427 353 l 1,0,-1
EndSplineSet
EndChar
StartChar: afii10021.loclBGR
Encoding: 545 -1 448
Width: 737
Flags: W
HStem: -140 244<18 112.414 624.867 717> 0 104<236.394 500.425> 629 20G<291.19 452.564>
VStem: 18 118<-140 0> 599 118<-140 0>
LayerCount: 2
Fore
SplineSet
717 104 m 1,0,-1
 717 -140 l 1,1,-1
 599 -140 l 1,2,-1
 599 0 l 1,3,-1
 136 0 l 1,4,-1
 136 -140 l 1,5,-1
 18 -140 l 1,6,-1
 18 104 l 1,7,-1
 112.4140625 104 l 1,8,-1
 298 649 l 1,9,-1
 446 649 l 1,10,-1
 624.8671875 104 l 1,11,-1
 717 104 l 1,0,-1
236.393554688 104 m 1,12,-1
 500.424804688 104 l 1,13,-1
 370 508 l 1,14,-1
 236.393554688 104 l 1,12,-1
EndSplineSet
EndChar
StartChar: afii10029.loclBGR
Encoding: 1114131 -1 454
Width: 607
Flags: W
LayerCount: 2
Fore
SplineSet
587 0 m 5,0,-1
 462 0 l 5,1,-1
 304 501 l 5,2,-1
 144 0 l 5,3,-1
 20 0 l 5,4,-1
 243 649 l 5,5,-1
 367 649 l 5,6,-1
 587 0 l 5,0,-1
EndSplineSet
EndChar
StartChar: afii10067.loclBGR
Encoding: 1114133 -1 456
Width: 533
VWidth: 0
Flags: W
HStem: -11 101<183.564 322.349> 338 102.375<175.568 300.325> 596.175 91.1748<184.705 318.928>
VStem: 50 106.3<116.879 317.874 407.575 568.155> 334.2 110.8<473.538 577.51> 374.7 108.3<148.507 296.701>
LayerCount: 2
Fore
SplineSet
334.200195312 544.375 m 0,0,1
 334.200195312 567.229104578 334.200195312 567.229104578 309.266738944 581.701954633 c 128,-1,2
 284.333282575 596.174804688 284.333282575 596.174804688 255.799804688 596.174804688 c 0,3,4
 151.799804688 596.174804688 151.799804688 596.174804688 151.799804688 488.375 c 2,5,-1
 151.799804688 407.575195312 l 1,6,7
 168.873148588 420.26625228 168.873148588 420.26625228 194.969887221 430.32062614 c 128,-1,8
 221.066625854 440.375 221.066625854 440.375 243.799804688 440.375 c 0,9,10
 274.152832031 440.375 274.152832031 440.375 301.169921875 459.346679688 c 0,11,12
 305.974112 465.510927927 305.974112 465.510927927 313.728130211 474.369899294 c 128,-1,13
 321.482148421 483.228870661 321.482148421 483.228870661 323.734846351 486.600655394 c 128,-1,14
 325.987544281 489.972440127 325.987544281 489.972440127 329.33644271 498.140164919 c 128,-1,15
 332.68534114 506.307889711 332.68534114 506.307889711 333.442768226 516.697874144 c 128,-1,16
 334.200195312 527.087858577 334.200195312 527.087858577 334.200195312 544.375 c 0,0,1
257.400390625 687.349609375 m 0,17,18
 288.178228547 687.349609375 288.178228547 687.349609375 319.672623662 679.374299849 c 128,-1,19
 351.167018777 671.398990324 351.167018777 671.398990324 379.950743647 655.762785112 c 128,-1,20
 408.734468516 640.1265799 408.734468516 640.1265799 426.867234258 612.532014693 c 128,-1,21
 445 584.937449487 445 584.937449487 445 550 c 0,22,23
 445 504.185932395 445 504.185932395 425.067345562 473.838585514 c 128,-1,24
 405.134691125 443.491238633 405.134691125 443.491238633 366.553710938 415.127929688 c 1,25,26
 418.891595759 392.027023592 418.891595759 392.027023592 450.94579788 345.371750896 c 128,-1,27
 483 298.7164782 483 298.7164782 483 240.5 c 0,28,29
 483 135 483 135 424 62 c 128,-1,30
 365 -11 365 -11 270 -11 c 0,31,32
 149 -11 149 -11 99.5 37.5 c 128,-1,33
 50 86 50 86 50 160 c 2,34,-1
 50 484 l 2,35,36
 50 541.948690639 50 541.948690639 67.3534383752 583.376849847 c 128,-1,37
 84.7068767505 624.805009056 84.7068767505 624.805009056 115.439759256 646.558864874 c 128,-1,38
 146.172641762 668.312720691 146.172641762 668.312720691 180.861220358 677.831165033 c 128,-1,39
 215.549798953 687.349609375 215.549798953 687.349609375 257.400390625 687.349609375 c 0,17,18
156.299804688 303.666015625 m 1,40,-1
 156.299804688 172 l 2,41,42
 156.299804688 90 156.299804688 90 264.299804688 90 c 0,43,44
 314.094197273 90 314.094197273 90 344.397196293 132.886173362 c 128,-1,45
 374.700195312 175.772346723 374.700195312 175.772346723 374.700195312 234.799804688 c 0,46,47
 374.700195312 277.956546194 374.700195312 277.956546194 343.897986881 307.978273097 c 128,-1,48
 313.09577845 338 313.09577845 338 265.900390625 338 c 0,49,50
 236.929920256 338 236.929920256 338 206.276917901 329.002238907 c 128,-1,51
 175.623915547 320.004477813 175.623915547 320.004477813 156.299804688 303.666015625 c 1,40,-1
EndSplineSet
EndChar
StartChar: afii10068.loclBGR
Encoding: 554 -1 457
Width: 527
Flags: W
HStem: -14 93<198.332 347.562> 407 92<194.968 322.938>
VStem: 49 131<97.8506 170.019> 341 125<320.979 391.375> 368 110<99.636 148>
LayerCount: 2
Fore
SplineSet
368 148 m 1,0,-1
 478 148 l 1,1,2
 476.5 71.5 476.5 71.5 418 28 c 0,3,4
 359.5 -14 359.5 -14 262 -14 c 0,5,6
 164 -14 164 -14 106 32 c 0,7,8
 49 76 49 76 49 136 c 0,9,10
 49 184 49 184 80 212 c 0,11,12
 109 241 109 241 167 261 c 2,13,-1
 282 304 l 1,14,15
 341 321 341 321 341 356 c 0,16,17
 341 375.5 341 375.5 320 392 c 0,18,19
 298 407 298 407 259 407 c 0,20,21
 221 407 221 407 199 393 c 0,22,23
 178 379 178 379 176 355 c 1,24,-1
 65 355 l 1,25,26
 67 417 67 417 118 458 c 0,27,28
 168 499 168 499 262 499 c 0,29,30
 354 499 354 499 410 462 c 0,31,32
 466 424 466 424 466 362 c 0,33,34
 466 268 466 268 348 228 c 2,35,-1
 242 190 l 2,36,37
 209 179 209 179 195 168 c 0,38,39
 180 156 180 156 180 134 c 0,40,41
 180 111 180 111 204 96 c 0,42,43
 228 79 228 79 267 79 c 0,44,45
 366 79 366 79 368 148 c 1,0,-1
EndSplineSet
EndChar
StartChar: afii10069.loclBGR
Encoding: 555 -1 458
Width: 567
Flags: W
HStem: -200 59<203.476 359.01> -11 70<194.934 337.471> 420 70<191.035 335.817> 458 20G<413.641 472>
VStem: 40 81<140.39 339.642> 87 87<-109.966 -56> 394 78<-105.873 76 114.317 359.614> 418 54<445.882 478>
LayerCount: 2
Fore
SplineSet
166 243 m 0,0,1
 166 172 166 172 206 130 c 0,2,3
 241 93 241 93 291 93 c 3,4,5
 332 93 332 93 363 118 c 0,6,7
 398 148 398 148 398 191 c 2,8,-1
 398 278 l 2,9,10
 398 333 398 333 366 363 c 128,-1,11
 334 393 334 393 284.5 393 c 128,-1,12
 235 393 235 393 200.5 353 c 128,-1,13
 166 313 166 313 166 243 c 0,0,1
47 243 m 0,14,15
 46 358 46 358 114 431 c 0,16,17
 176 499 176 499 268 499 c 0,18,19
 313 499 313 499 351.5 477.5 c 128,-1,20
 390 456 390 456 414 411 c 1,21,-1
 440 486 l 1,22,-1
 517 486 l 1,23,-1
 517 2 l 2,24,25
 517 -100 517 -100 453.5 -150 c 0,26,27
 390.021855313 -198 390.021855313 -198 298.5 -198 c 3,28,29
 210.413213632 -198 210.413213632 -198 151 -158 c 0,30,31
 87 -118 87 -118 87 -56 c 1,32,-1
 197 -56 l 1,33,34
 197 -80 197 -80 220 -93.0608519954 c 0,35,36
 245 -107 245 -107 298 -107 c 0,37,38
 350 -107 350 -107 374 -75.5 c 128,-1,39
 398 -44 398 -44 398 2 c 2,40,-1
 398 63 l 1,41,42
 362 -14 362 -14 274 -14 c 0,43,44
 180 -14 180 -14 116 54 c 0,45,46
 48 126 48 126 47 243 c 0,14,15
EndSplineSet
EndChar
StartChar: afii10072.loclBGR
Encoding: 1114136 -1 459
Width: 866
Flags: W
HStem: 0 21G<10 168.008 374 492 697.992 856> 466 20G<22 204.456 661.544 844> 666 20G<374 492>
VStem: 374 118<0 192 315 686>
LayerCount: 2
Fore
SplineSet
320 237 m 1,0,-1
 154 0 l 1,1,-1
 10 0 l 1,2,-1
 237 306 l 1,3,-1
 22 486 l 1,4,-1
 182 486 l 1,5,-1
 374 315 l 1,6,-1
 374 686 l 1,7,-1
 492 686 l 1,8,-1
 492 315 l 1,9,-1
 684 486 l 1,10,-1
 844 486 l 1,11,-1
 629 306 l 1,12,-1
 856 0 l 1,13,-1
 712 0 l 1,14,-1
 546 237 l 1,15,-1
 492 192 l 1,16,-1
 492 0 l 1,17,-1
 374 0 l 1,18,-1
 374 192 l 1,19,-1
 320 237 l 1,0,-1
EndSplineSet
EndChar
StartChar: afii10073.loclBGR
Encoding: 557 -1 460
Width: 548
VWidth: 0
Flags: WO
HStem: -201 100.5<143.153 288.401> 143.5 104.275<165.405 282.008> 409.175 88.1748<160.137 279.582>
VStem: 304.604 108.4<269.555 383.424> 339.405 111.6<-45.3284 103.07>
LayerCount: 2
Back
SplineSet
232.5 490 m 3,0,1
 297 490 297 490 353 460 c 0,2,3
 406 431 406 431 406 377 c 3,4,5
 406 344 406 344 392.380859375 320 c 0,6,7
 381 299 381 299 336 272 c 1,8,9
 397 247 397 247 419 219.5 c 0,10,11
 444 185.422851562 444 185.422851562 444 128 c 0,12,13
 443 66 443 66 385 27 c 0,14,15
 329 -11 329 -11 252 -11 c 3,16,17
 150 -11 150 -11 95 31.5 c 128,-1,18
 40 74 40 74 39 141 c 1,19,-1
 115 141 l 1,20,21
 115 108 115 108 138 84 c 0,22,23
 168 51 168 51 246 51 c 3,24,25
 297 51 297 51 331 78 c 0,26,27
 364 104 364 104 364 136 c 0,28,29
 364 165 364 165 351.5 185 c 128,-1,30
 339 205 339 205 317.5 215.5 c 128,-1,31
 296 226 296 226 274 230 c 128,-1,32
 252 234 252 234 226 234 c 2,33,-1
 173 234 l 1,34,-1
 173 288 l 1,35,-1
 226 288 l 2,36,37
 277 288 277 288 300 311.423828125 c 0,38,39
 319 331 319 331 319 366 c 0,40,41
 319 388 319 388 293 407.5 c 128,-1,42
 267 427 267 427 231.5 427 c 131,-1,43
 196 427 196 427 176.5 414 c 0,44,45
 138 388 138 388 138 362 c 0,46,-1
 55 362 l 0,47,48
 56 428 56 428 125 467.095703125 c 0,49,50
 165 490 165 490 232.5 490 c 3,0,1
EndSplineSet
Fore
SplineSet
47 334 m 0,0,1
 47 404 47 404 107 456 c 0,2,3
 157 499 157 499 263 499 c 0,4,5
 357 499 357 499 409 466 c 0,6,7
 473 424 473 424 473 348 c 0,8,9
 473 307 473 307 449 263.5 c 0,10,11
 436 240 436 240 387 216 c 1,12,13
 449 198 449 198 483 143 c 0,14,15
 516 89 516 89 516 24 c 0,16,17
 516 -87 516 -87 459 -143.5 c 128,-1,18
 402 -200 402 -200 274 -200 c 3,19,20
 173 -200 173 -200 120 -161 c 0,21,22
 50 -109 50 -109 51 -55 c 1,23,-1
 161 -55 l 1,24,25
 161 -73 161 -73 205 -97 c 0,26,27
 223 -107 223 -107 275 -107 c 0,28,29
 340 -107 340 -107 375 -65 c 0,30,31
 403 -32 403 -32 404 29 c 0,32,33
 404 77 404 77 355 116 c 0,34,35
 321 142 321 142 231 143 c 0,36,-1
 185 143 l 1,37,-1
 185 237 l 1,38,-1
 230 237 l 2,39,40
 317 237 317 237 343 272 c 0,41,42
 360 295 360 295 360 330 c 128,-1,43
 360 365 360 365 337 384 c 0,44,45
 310 406 310 406 258 407 c 0,46,47
 194 407 194 407 171 385 c 0,48,49
 141 357 141 357 141 334 c 0,50,-1
 47 334 l 0,0,1
EndSplineSet
EndChar
StartChar: afii10077.loclBGR
Encoding: 1114141 -1 464
Width: 517
Flags: W
LayerCount: 2
Fore
SplineSet
507 0 m 1,0,-1
 371 0 l 1,1,-1
 260 369 l 1,2,-1
 148 0 l 1,3,-1
 12 0 l 1,4,-1
 193 486 l 1,5,-1
 326 486 l 1,6,-1
 507 0 l 1,0,-1
EndSplineSet
EndChar
StartChar: afii10086.loclBGR
Encoding: 565 -1 468
Width: 781
VWidth: 0
Flags: W
HStem: -11 104.5<188.878 321.461 458.583 592.124> 385.5 104.5<184.828 319.446 463.052 596.169>
VStem: 35 103.6<147.061 335.903> 326 128<-200 6.32812 103.855 372.022 472.672 681> 642.4 103.6<147.058 335.9>
LayerCount: 2
Fore
SplineSet
642.400390625 239.5 m 0,0,1
 642.400390625 305.90896786 642.400390625 305.90896786 614.430771927 345.70448393 c 128,-1,2
 586.461153228 385.5 586.461153228 385.5 529.200195312 385.5 c 0,3,4
 484.083467881 385.5 484.083467881 385.5 454 356 c 1,5,-1
 454 119 l 1,6,7
 480.609445695 93.5 480.609445695 93.5 526 93.5 c 0,8,9
 583.603264955 93.5 583.603264955 93.5 613.00182779 133.574074934 c 128,-1,10
 642.400390625 173.648149867 642.400390625 173.648149867 642.400390625 239.5 c 0,0,1
35 239 m 128,-1,12
 35 353 35 353 93.5 421.5 c 128,-1,13
 152 490 152 490 258 490 c 0,14,15
 295.752064517 490 295.752064517 490 326 472.671875 c 1,16,-1
 326 681 l 1,17,-1
 454 681 l 1,18,-1
 454 472.671875 l 1,19,20
 484.692758065 490 484.692758065 490 523 490 c 0,21,22
 629 490 629 490 687.5 421.5 c 128,-1,23
 746 353 746 353 746 239 c 128,-1,24
 746 125 746 125 687 57 c 128,-1,25
 628 -11 628 -11 523 -11 c 0,26,27
 484.692758065 -11 484.692758065 -11 454 6.328125 c 1,28,-1
 454 -200 l 1,29,-1
 326 -200 l 1,30,-1
 326 6.328125 l 1,31,32
 295.752064515 -11 295.752064515 -11 258 -11 c 0,33,34
 153 -11 153 -11 94 57 c 128,-1,11
 35 125 35 125 35 239 c 128,-1,12
138.599609375 239.5 m 0,35,36
 138.599609375 173.623867642 138.599609375 173.623867642 167.99080969 133.561933821 c 128,-1,37
 197.382010005 93.5 197.382010005 93.5 255 93.5 c 0,38,39
 299.390554305 93.5 299.390554305 93.5 326 119 c 1,40,-1
 326 358 l 1,41,42
 297.956089264 385.5 297.956089264 385.5 251.799804688 385.5 c 0,43,44
 194.55267397 385.5 194.55267397 385.5 166.576141672 345.692301126 c 128,-1,45
 138.599609375 305.884602251 138.599609375 305.884602251 138.599609375 239.5 c 0,35,36
EndSplineSet
EndChar
StartChar: afii10088.loclBGR
Encoding: 565 -1 468
Width: 525
Flags: W
HStem: -10 69<166.848 315.168> 458 20G<50 129 389 468>
VStem: 50 79<97.285 478> 389 79<70.6399 94 141.155 478> 433 72<-82 -1>
LayerCount: 2
Fore
SplineSet
50 174 m 2,0,-1
 50 478 l 1,1,-1
 129 478 l 1,2,-1
 129 180 l 2,3,4
 129 58.9995117188 129 58.9995117188 241 59 c 0,5,6
 305.999511718 59 305.999511718 59 346.5 109 c 128,-1,7
 387 158.999511718 387 158.999511718 389 237 c 2,8,-1
 389 478 l 1,9,-1
 468 478 l 1,10,-1
 468 107 l 2,11,12
 468 89 468 89 478.5 78 c 128,-1,13
 489 67 489 67 505 67 c 1,14,-1
 505 -82 l 1,15,-1
 433 -82 l 1,16,-1
 433 -1 l 1,17,18
 420 -1 420 -1 404.5 26.5 c 128,-1,19
 389 54 389 54 389 94 c 1,20,21
 339.999511718 -9.99951171875 339.999511718 -9.99951171875 230 -10 c 0,22,23
 149 -10 149 -10 99.5 35 c 128,-1,24
 50 80 50 80 50 174 c 2,0,-1
EndSplineSet
EndChar
StartChar: afii10091.loclBGR
Encoding: 569 -1 472
Width: 857
Flags: W
HStem: -12 70<175.783 320.052 508.152 651.996> 458 20G<50 128 382 460 721 800>
VStem: 50 78<107.869 478> 382 78<129.88 478> 721 79<71.1842 92 135.713 478> 765 72<-82 -1>
LayerCount: 2
Fore
SplineSet
50 197 m 2,0,-1
 50 478 l 1,1,-1
 128 478 l 1,2,-1
 128 197 l 2,3,4
 128 128 128 128 160.5 93 c 128,-1,5
 193.000488282 58.0004882812 193.000488282 58.0004882812 254 58 c 128,-1,6
 315.000488282 58 315.000488282 58 348.5 108 c 128,-1,7
 381.999511718 157.999511718 381.999511718 157.999511718 382 246 c 2,8,-1
 382 478 l 1,9,-1
 460 478 l 1,10,-1
 460 197 l 2,11,12
 460 128 460 128 492.5 93 c 128,-1,13
 525.000488282 58.0004882812 525.000488282 58.0004882812 585 58 c 128,-1,14
 645 58 645 58 682 107 c 128,-1,15
 719.000488282 156.000488282 719.000488282 156.000488282 721 243 c 2,16,-1
 721 478 l 1,17,-1
 800 478 l 1,18,-1
 800 107 l 2,19,20
 800 89 800 89 810.5 78 c 128,-1,21
 821 67 821 67 837 67 c 1,22,-1
 837 -82 l 1,23,-1
 765 -82 l 1,24,-1
 765 -1 l 1,25,26
 752 -1 752 -1 737.5 25.5 c 128,-1,27
 723 52 723 52 723 92 c 1,28,29
 676.000488282 -11.9995117188 676.000488282 -11.9995117188 562 -12 c 0,30,31
 500.000488282 -12 500.000488282 -12 458 18.5 c 128,-1,32
 416 48.9995117188 416 48.9995117188 397 103 c 1,33,34
 352 -12.0004882812 352 -12.0004882812 230 -12 c 0,35,36
 144.000488282 -12 144.000488282 -12 97 44 c 128,-1,37
 50.0004882812 99.9995117188 50.0004882812 99.9995117188 50 197 c 2,0,-1
EndSplineSet
EndChar
StartChar: afii10093.loclBGR
Encoding: 570 -1 473
Width: 682
Flags: W
HStem: 0 21G<476 555> 0 57<129 304.478> 262 68<129.005 304.665> 459 20G<50 129.001 476 555>
VStem: 50 79<57 262 330 479> 344 80<92.6646 227.847> 476 79<0 479>
LayerCount: 2
Fore
SplineSet
51 189 m 6
 51 479 l 5
 131 479 l 5
 131 319.686523438 l 5
 160.995117188 360 214.314453125 390 273 390 c 4
 416.1328125 390 496 288.64453125 496 189 c 4
 496 90.11328125 415.689453125 -11 273 -11 c 132
 130.344726562 -11 51 90.162109375 51 189 c 6
131 189.5 m 132
 131 125.15234375 170.682617188 57 270.5 57 c 132
 370.377929688 57 416 125.025390625 416 189.5 c 132
 416 253.905273438 374.345703125 322 274.5 322 c 132
 174.6484375 322 131 253.91796875 131 189.5 c 132
566 0 m 1
 566 479 l 1xbe
 645 479 l 1
 645 0 l 1
 566 0 l 1
EndSplineSet
EndChar
StartChar: eight.propold
Encoding: 65547 -1 91
Width: 647
Flags: W
LayerCount: 2
Back
Fore
SplineSet
259 411 m 1,0,-1
 334 382 l 1,1,2
 381.5 382 381.5 382 417.5 406 c 0,3,4
 453 429.667 453 429.667 453 468.833 c 128,-1,5
 453 508 453 508 417 531.5 c 128,-1,6
 381 555 381 555 323 555 c 0,7,8
 267.25 555 267.25 555 230.5 534 c 0,9,10
 193 512.571 193 512.571 193 475.192 c 128,-1,11
 193 437.812 193 437.812 259 411 c 1,0,-1
303 278 m 1,12,13
 211.891 271.717 211.891 271.717 180.5 220.5 c 0,14,15
 171 205 171 205 171 185 c 128,-1,16
 171 165 171 165 183 148 c 128,-1,17
 195 131 195 131 215.5 119 c 0,18,19
 256.5 95 256.5 95 328.75 95 c 128,-1,20
 401 95 401 95 438.5 114.5 c 128,-1,21
 476 134 476 134 476 162.5 c 128,-1,22
 476 191 476 191 457.5 208.5 c 128,-1,23
 439 226 439 226 407 239 c 2,24,-1
 303 278 l 1,12,13
502 609.5 m 128,-1,26
 575 556.897 575 556.897 575 476 c 0,27,28
 575 427 575 427 541.5 388.5 c 128,-1,29
 508 350 508 350 445 339 c 1,30,31
 527.851 305.859 527.851 305.859 559.5 272.5 c 0,32,33
 598 231.919 598 231.919 598 172 c 0,34,35
 598 88.9 598 88.9 526 38.5 c 0,36,37
 451 -14 451 -14 323 -14 c 0,38,39
 200.18 -14 200.18 -14 123.5 40 c 0,40,41
 49 92.4648 49 92.4648 49 175 c 0,42,43
 49 236 49 236 91.5 273.5 c 128,-1,44
 134 311 134 311 200 319 c 1,45,46
 112.575 360.812 112.575 360.812 82.5 427.5 c 0,47,48
 71 453 71 453 71 485 c 0,49,50
 71 567 71 567 136.5 614.5 c 128,-1,51
 202 662 202 662 315.571 662 c 128,-1,25
 429.143 662 429.143 662 502 609.5 c 128,-1,26
EndSplineSet
EndChar
StartChar: five.propold
Encoding: 270 -1 88
Width: 589
Flags: W
LayerCount: 2
Fore
SplineSet
57 92 m 1,0,-1
 174 92 l 1,1,2
 174 41 174 41 205 15 c 128,-1,3
 236 -11 236 -11 287 -11 c 0,4,5
 343.364 -11 343.364 -11 381 23.5 c 0,6,7
 419 58.3333 419 58.3333 419 114.667 c 128,-1,8
 419 171 419 171 383.5 202 c 128,-1,9
 348 233 348 233 275 233 c 2,10,-1
 91 233 l 1,11,-1
 122 581 l 1,12,-1
 503 581 l 1,13,-1
 503 473 l 1,14,-1
 230 473 l 1,15,-1
 215 317 l 1,16,17
 260 329 260 329 310.5 329 c 128,-1,18
 361 329 361 329 403 313.5 c 128,-1,19
 445 298 445 298 475 270 c 0,20,21
 537 212.133 537 212.133 537 115 c 0,22,23
 537 14.0896 537 14.0896 464.5 -53 c 0,24,25
 393.177 -119 393.177 -119 284 -119 c 0,26,27
 188.5 -119 188.5 -119 125.5 -65 c 0,28,29
 57 -6.28571 57 -6.28571 57 92 c 1,0,-1
EndSplineSet
EndChar
StartChar: four.propold
Encoding: 1114119 -1 87
Width: 596
Flags: W
LayerCount: 2
Fore
SplineSet
18 49 m 1,3,-1
 18 138 l 1,4,-1
 350 574 l 1,5,-1
 466 574 l 1,6,-1
 466 151 l 1,7,-1
 578 151 l 1,8,-1
 578 49 l 1,9,-1
 466 49 l 1,10,-1
 466 -108 l 1,11,-1
 347 -108 l 1,12,-1
 347 49 l 1,13,-1
 18 49 l 1,3,-1
148 138 m 1,0,-1
 353 138 l 1,1,-1
 353 401 l 1,2,-1
 148 138 l 1,0,-1
EndSplineSet
EndChar
StartChar: nine.propold
Encoding: 65548 -1 92
Width: 609
Flags: W
LayerCount: 2
Fore
SplineSet
287 480 m 128,-1,1
 234 480 234 480 204.5 449 c 128,-1,2
 175 418 175 418 175 370 c 128,-1,3
 175 322 175 322 205 291 c 128,-1,4
 235 260 235 260 288 260 c 128,-1,5
 341 260 341 260 371 292 c 128,-1,6
 401 324 401 324 401 371 c 128,-1,7
 401 418 401 418 370.5 449 c 128,-1,0
 340 480 340 480 287 480 c 128,-1,1
295.5 583 m 0,8,9
 356 583 356 583 407.5 553.5 c 128,-1,10
 459 524 459 524 493.5 475.5 c 0,11,12
 563 377.797 563 377.797 563 237 c 0,13,14
 563 71.5352 563 71.5352 488.5 -25 c 0,15,16
 415.957 -119 415.957 -119 292 -119 c 0,17,18
 193.444 -119 193.444 -119 128 -62 c 0,19,20
 62 -4.51613 62 -4.51613 62 86 c 1,21,-1
 186 86 l 1,22,23
 189 40 189 40 215.5 14.5 c 128,-1,24
 242 -11 242 -11 292 -11 c 0,25,26
 371 -11 371 -11 408 58.5 c 128,-1,27
 445 128 445 128 445 246 c 0,28,29
 445 283 445 283 441 317 c 1,30,31
 431 242 431 242 383.5 202.5 c 128,-1,32
 336 163 336 163 270 163 c 0,33,34
 177.691 163 177.691 163 116 221.5 c 0,35,36
 53 281.241 53 281.241 53 371 c 0,37,38
 53 464.29 53 464.29 118 523 c 0,39,40
 184.429 583 184.429 583 295.5 583 c 0,8,9
EndSplineSet
EndChar
StartChar: one.propold
Encoding: 65540 -1 84
Width: 357
Flags: W
LayerCount: 2
Back
Fore
SplineSet
42 518 m 1,0,1
 116.091 526.717 116.091 526.717 174 571 c 1,2,-1
 263 571 l 1,3,-1
 263 0 l 1,4,-1
 145 0 l 1,5,-1
 145 430 l 1,6,7
 97.25 406.125 97.25 406.125 42 404 c 1,8,-1
 42 518 l 1,0,1
EndSplineSet
EndChar
StartChar: seven.propold
Encoding: 65546 -1 90
Width: 498
Flags: W
LayerCount: 2
Back
Fore
SplineSet
480 583 m 1,0,-1
 480 481 l 1,1,-1
 180 -104 l 1,2,-1
 36 -104 l 1,3,-1
 359 480 l 1,4,-1
 24 480 l 1,5,-1
 24 583 l 1,6,-1
 480 583 l 1,0,-1
EndSplineSet
EndChar
StartChar: six.propold
Encoding: 1114121 -1 89
Width: 607
Flags: W
LayerCount: 2
Fore
SplineSet
47 313 m 0,10,11
 47 478.892 47 478.892 124 571.5 c 0,12,13
 199.247 662 199.247 662 328 662 c 0,14,15
 425.68 662 425.68 662 486 610 c 0,16,17
 546.98 557.431 546.98 557.431 551 471 c 1,18,-1
 425 471 l 1,19,20
 420 510 420 510 397 532.5 c 128,-1,21
 374 555 374 555 333.5 555 c 128,-1,22
 293 555 293 555 262.5 537.5 c 128,-1,23
 232 520 232 520 210.5 487 c 0,24,25
 166 418.698 166 418.698 166 303 c 0,26,27
 166 260.5 166 260.5 169 238 c 1,28,29
 180.174 323.669 180.174 323.669 234 363.5 c 0,30,31
 280.622 398 280.622 398 351 398 c 0,32,33
 441.426 398 441.426 398 500.5 340 c 0,34,35
 558 283.545 558 283.545 558 192 c 0,36,37
 558 99.6129 558 99.6129 493 43 c 0,38,39
 427.556 -14 427.556 -14 323 -14 c 0,40,41
 201.115 -14 201.115 -14 123.5 78.5 c 0,42,43
 47 169.671 47 169.671 47 313 c 0,10,11
210 197 m 128,-1,1
 210 150 210 150 242.5 122.5 c 128,-1,2
 275 95 275 95 322.5 95 c 128,-1,3
 370 95 370 95 403 122.5 c 128,-1,4
 436 150 436 150 436 197 c 0,5,6
 436 244.323 436 244.323 402.5 273.5 c 0,7,8
 370.926 301 370.926 301 322.963 301 c 128,-1,9
 275 301 275 301 242.5 272.5 c 128,-1,0
 210 244 210 244 210 197 c 128,-1,1
EndSplineSet
EndChar
StartChar: three.propold
Encoding: 268 -1 86
Width: 588
Flags: W
LayerCount: 2
Fore
SplineSet
20 95 m 1,0,-1
 140 95 l 1,1,2
 144 35 144 35 181 8 c 128,-1,3
 218 -19 218 -19 274.5 -19 c 128,-1,4
 331 -19 331 -19 367.5 13 c 128,-1,5
 404 45 404 45 404 93.5 c 128,-1,6
 404 142 404 142 368 174.5 c 128,-1,7
 332 207 332 207 266 207 c 2,8,-1
 199 207 l 1,9,-1
 199 300 l 1,10,-1
 260 300 l 2,11,12
 317 300 317 300 350 324.5 c 128,-1,13
 383 349 383 349 383 391 c 128,-1,14
 383 433 383 433 354 458.5 c 128,-1,15
 325 484 325 484 276.5 484 c 128,-1,16
 228 484 228 484 196.5 461.5 c 128,-1,17
 165 439 165 439 159 398 c 1,18,-1
 33 398 l 1,19,20
 50.2332 541.61 50.2332 541.61 180.5 573 c 0,21,22
 222 583 222 583 273.5 583 c 128,-1,23
 325 583 325 583 367.5 569.5 c 128,-1,24
 410 556 410 556 439.5 532.5 c 0,25,26
 501 483.508 501 483.508 501 407 c 0,27,28
 501 307.176 501 307.176 396 266 c 1,29,30
 457 243 457 243 490 195 c 128,-1,31
 523 147 523 147 523 93.5 c 128,-1,32
 523 40 523 40 505 3 c 128,-1,33
 487 -34 487 -34 454 -61 c 0,34,35
 383.111 -119 383.111 -119 273 -119 c 0,36,37
 167 -119 167 -119 97 -67 c 0,38,39
 20 -9.8 20 -9.8 20 95 c 1,0,-1
EndSplineSet
EndChar
StartChar: two.propold
Encoding: 65541 -1 85
Width: 595
Flags: W
LayerCount: 2
Fore
SplineSet
313 480 m 0,0,1
 211.524 480 211.524 480 202 400 c 1,2,-1
 71 400 l 1,3,4
 72.9469 489.558 72.9469 489.558 139 537.5 c 0,5,6
 201.689 583 201.689 583 307 583 c 0,7,8
 405.167 583 405.167 583 468 531 c 0,9,10
 529 480.517 529 480.517 529 406.759 c 128,-1,11
 529 333 529 333 489.5 292.5 c 128,-1,12
 450 252 450 252 362 230 c 2,13,-1
 257 204 l 2,14,15
 215 193 215 193 196.5 175.5 c 128,-1,16
 178 158 178 158 178 132 c 2,17,-1
 178 108 l 1,18,-1
 533 108 l 1,19,-1
 533 0 l 1,20,-1
 60 0 l 1,21,-1
 60 98 l 2,22,23
 60 181.077 60 181.077 98.5 225.5 c 0,24,25
 135.149 267.787 135.149 267.787 216 288 c 2,26,-1
 311 311 l 2,27,28
 366 325 366 325 388.5 347.5 c 128,-1,29
 411 370 411 370 411 403 c 128,-1,30
 411 436 411 436 385 458 c 128,-1,31
 359 480 359 480 313 480 c 0,0,1
EndSplineSet
EndChar
StartChar: zero.propold
Encoding: 1114115 -1 83
Width: 570
Flags: W
LayerCount: 2
Fore
SplineSet
47 285 m 0,5,6
 47 426.143 47 426.143 114.5 506.5 c 0,7,8
 178.76 583 178.76 583 285 583 c 128,-1,9
 391.24 583 391.24 583 455.5 506.5 c 0,10,11
 522 427.333 522 427.333 522 285 c 0,12,13
 522 143.222 522 143.222 455.5 63 c 0,14,15
 391.671 -14 391.671 -14 285 -14 c 128,-1,16
 178.329 -14 178.329 -14 114.5 63 c 0,17,18
 47 144.429 47 144.429 47 285 c 0,5,6
166 285 m 128,-1,1
 166 93 166 93 285.5 93 c 128,-1,2
 405 93 405 93 405 285 c 128,-1,3
 405 477 405 477 285 477 c 0,4,0
 166 477 166 477 166 285 c 128,-1,1
EndSplineSet
EndChar
